<?xml version="1.0" encoding="iso-8859-1"?>
<!-- Generator: Adobe Illustrator 14.0.0, SVG Export Plug-In . SVG Version: 6.00 Build 43363)  -->
<!DOCTYPE svg PUBLIC "-//W3C//DTD SVG 1.1//EN" "http://www.w3.org/Graphics/SVG/1.1/DTD/svg11.dtd">
<svg version="1.1" xmlns="http://www.w3.org/2000/svg" xmlns:xlink="http://www.w3.org/1999/xlink" x="0px" y="0px" width="512px"
	 height="512px" viewBox="0 0 512 512" style="enable-background:new 0 0 512 512;" xml:space="preserve">
<g id="alternatives">
	<path d="M310.04,0v80.845h46.66L249.5,179.04l-98.375-98.195h50.83V0H12.8v188.627h81.065v-50.58L200.1,244.115
		c7.34,7.407,15.2,20.463,15.2,25.352V512h81.07V269.467c0-7.279-1-14.324-2.675-21.057L418.13,134.285v54.342h81.07V0H310.04z
		 M269.35,485.043h-27.024V269.467c0-17.394-16.681-37.919-23.115-44.394L66.84,72.94v88.74H39.82V26.95H174.93v26.944H85.95
		l152.42,152.158c3.165,3.157,30.979,31.815,30.979,63.414V485.043z M472.17,161.68h-27.02V72.94L283.04,221.485
		c-4.9-9.065-10.4-16.8-15.13-22.722L426.045,53.895h-88.98V26.95H472.17V161.68z"/>
</g>
<g id="Layer_1">
</g>
</svg>
