<?xml version="1.0" encoding="iso-8859-1"?>
<!-- Generator: Adobe Illustrator 14.0.0, SVG Export Plug-In . SVG Version: 6.00 Build 43363)  -->
<!DOCTYPE svg PUBLIC "-//W3C//DTD SVG 1.1//EN" "http://www.w3.org/Graphics/SVG/1.1/DTD/svg11.dtd">
<svg version="1.1" xmlns="http://www.w3.org/2000/svg" xmlns:xlink="http://www.w3.org/1999/xlink" x="0px" y="0px" width="512px"
	 height="512px" viewBox="0 0 512 512" style="enable-background:new 0 0 512 512;" xml:space="preserve">
<g id="blank-link">
	<path d="M230.4,0v25.59H25.6C11.448,25.59,0,37.05,0,51.19V486.4C0,500.55,11.448,512,25.6,512h435.203
		c14.147,0,25.6-11.45,25.6-25.6V281.615H512V0H230.4z M460.803,486.4H25.6V51.19h204.8V76.81h150.5L153.603,307.22l51.198,51.195
		L435.2,131.11v150.505h25.603V486.4z M486.402,256.015h-25.6V69.88L204.925,322.34L189.7,307.09L442.103,51.21H255.998V25.6
		h230.405V256.015z"/>
</g>
<g id="Layer_1">
</g>
</svg>
