<?xml version="1.0" encoding="iso-8859-1"?>
<!-- Generator: Adobe Illustrator 14.0.0, SVG Export Plug-In . SVG Version: 6.00 Build 43363)  -->
<!DOCTYPE svg PUBLIC "-//W3C//DTD SVG 1.1//EN" "http://www.w3.org/Graphics/SVG/1.1/DTD/svg11.dtd">
<svg version="1.1" xmlns="http://www.w3.org/2000/svg" xmlns:xlink="http://www.w3.org/1999/xlink" x="0px" y="0px" width="512px"
	 height="512px" viewBox="0 0 512 512" style="enable-background:new 0 0 512 512;" xml:space="preserve">
<g id="cycle-two-arrows">
	<path d="M460.98,255.999c0-52.425-20.011-104.825-60-144.795c-80.011-80.005-209.75-80.005-289.74,0l72.43,72.395
		c65.01-64.98,174.87-18.145,174.87,72.35h-51.42l102.44,128.05l102.439-128H460.98z M409.561,343.004l-49-61.405h23.59
		c-0.99-25.6,8.38-70.22-37.511-116.095c-43.75-43.76-111.3-49.205-160.97-16.405l-36.58-36.6c70.12-52.35,170.08-46.85,233.79,16.8
		c34.931,34.9,55.4,80.53,52.49,152.3h23.46L409.561,343.004z M153.46,256.049h51.42L102.44,127.999L0,255.999h51.021
		c0,52.43,20.01,104.825,60,144.805c80.01,79.995,209.75,79.995,289.739,0l-72.43-72.405
		C263.32,393.379,153.46,346.549,153.46,256.049z M129.12,382.699c-34.94-34.9-55.4-80.53-52.49-152.3H53.17l49.271-61.4
		l48.989,61.4h-23.579c0.989,25.6-8.391,70.225,37.51,116.105c43.75,43.75,111.3,49.195,160.97,16.4l36.58,36.6
		C292.79,451.849,192.82,446.359,129.12,382.699z"/>
</g>
<g id="Layer_1">
</g>
</svg>
