<?xml version="1.0" encoding="iso-8859-1"?>
<!-- Generator: Adobe Illustrator 14.0.0, SVG Export Plug-In . SVG Version: 6.00 Build 43363)  -->
<!DOCTYPE svg PUBLIC "-//W3C//DTD SVG 1.1//EN" "http://www.w3.org/Graphics/SVG/1.1/DTD/svg11.dtd">
<svg version="1.1" xmlns="http://www.w3.org/2000/svg" xmlns:xlink="http://www.w3.org/1999/xlink" x="0px" y="0px" width="512px"
	 height="512px" viewBox="0 0 512 512" style="enable-background:new 0 0 512 512;" xml:space="preserve">
<g id="cycle-four-arrows">
	<path d="M255.975,153.405v51.398L384.006,102.4L256.005,0v51c-52.43,0-104.8,20.005-144.82,59.955l72.42,72.445
		C203.555,163.455,229.755,153.405,255.975,153.405z M281.605,76.578V53.155l61.42,49.245l-61.42,48.98v-23.575
		c0,0-62.39-5.715-96.08,21.125l-36.57-36.575C201.175,69.605,281.605,76.578,281.605,76.578z M256.025,358.605V307.2L128.005,409.6
		l128,102.4v-51c52.43,0,104.799-20,144.825-59.942L328.405,328.6C308.455,348.55,282.256,358.605,256.025,358.605z M230.405,435.43
		v23.42l-61.43-49.25l61.43-48.975v23.58c0,0,62.38,5.71,96.069-21.13l36.58,36.575C310.825,442.404,230.405,435.43,230.405,435.43z
		 M461.01,256c0-52.425-20-104.795-59.949-144.82l-72.455,72.427c19.949,19.945,30,46.14,30,72.373h-51.4L409.61,384L512,256H461.01
		z M409.61,343.025L360.625,281.6h23.58c0,0,5.71-62.379-21.13-96.07l36.585-36.575c42.75,52.223,35.77,132.645,35.77,132.645
		h23.431L409.61,343.025z M153.405,256.033h51.4l-102.4-128.03L0,256h51c0,52.43,20,104.805,59.955,144.825l72.45-72.421
		C163.455,308.455,153.405,282.255,153.405,256.033z M148.925,326.48l-36.57,36.569C69.6,310.828,76.57,230.4,76.57,230.4H53.15
		l49.255-61.42l48.98,61.42h-23.58C127.805,230.4,122.085,292.79,148.925,326.48z"/>
</g>
<g id="Layer_1">
</g>
</svg>
