<?xml version="1.0" encoding="iso-8859-1"?>
<!-- Generator: Adobe Illustrator 14.0.0, SVG Export Plug-In . SVG Version: 6.00 Build 43363)  -->
<!DOCTYPE svg PUBLIC "-//W3C//DTD SVG 1.1//EN" "http://www.w3.org/Graphics/SVG/1.1/DTD/svg11.dtd">
<svg version="1.1" xmlns="http://www.w3.org/2000/svg" xmlns:xlink="http://www.w3.org/1999/xlink" x="0px" y="0px" width="512px"
	 height="512px" viewBox="0 0 512 512" style="enable-background:new 0 0 512 512;" xml:space="preserve">
<g id="d-pad">
	<path d="M358.4,128.002V0H153.6v128.002L256,230.4L358.4,128.002z M179.2,25.6h153.6v91.81L256,194.205l-76.8-76.795V25.6z
		 M153.6,383.992V512H358.4V383.992L256,281.6L153.6,383.992z M332.8,486.4H179.2v-91.805l76.8-76.801l76.8,76.801V486.4z
		 M384,153.603L281.6,256L384,358.393h128v-204.79H384z M486.4,332.8H394.6L317.8,256l76.8-76.797H486.4V332.8z M128,153.603H0
		v204.79h128L230.4,256L128,153.603z M117.4,332.8H25.6V179.203H117.4L194.2,256L117.4,332.8z"/>
</g>
<g id="Layer_1">
</g>
</svg>
