<?xml version="1.0" encoding="iso-8859-1"?>
<!-- Generator: Adobe Illustrator 14.0.0, SVG Export Plug-In . SVG Version: 6.00 Build 43363)  -->
<!DOCTYPE svg PUBLIC "-//W3C//DTD SVG 1.1//EN" "http://www.w3.org/Graphics/SVG/1.1/DTD/svg11.dtd">
<svg version="1.1" xmlns="http://www.w3.org/2000/svg" xmlns:xlink="http://www.w3.org/1999/xlink" x="0px" y="0px" width="512px"
	 height="512px" viewBox="0 0 512 512" style="enable-background:new 0 0 512 512;" xml:space="preserve">
<g id="expand-arrows">
	<path d="M332.8,0L384,51.2L281.601,153.595l76.8,76.795L460.8,127.995l51.2,51.2V0H332.8z M486.4,117.395l-25.601-25.6
		L358.4,194.195l-40.601-40.6L420.2,51.2l-25.6-25.6h91.8V117.395z M179.2,0H0v179.195l51.2-51.2l102.4,102.395l76.8-76.795
		L128,51.2L179.2,0z M194.195,153.595l-40.595,40.6L51.2,91.795l-25.6,25.6V25.6h91.8L91.8,51.2L194.195,153.595z M358.4,281.6
		l-76.8,76.795L384,460.795L332.8,512H512V332.795l-51.2,51.2L358.4,281.6z M486.4,486.4h-91.8l25.6-25.605l-102.4-102.4
		l40.601-40.6l102.399,102.4l25.601-25.6V486.4z M153.601,281.6L51.2,383.995L0,332.795V512h179.2L128,460.795l102.4-102.4
		L153.601,281.6z M117.4,486.4h-91.8v-91.805l25.6,25.6l102.4-102.4l40.595,40.6L91.8,460.795L117.4,486.4z"/>
</g>
<g id="Layer_1">
</g>
</svg>
