<?xml version="1.0" encoding="iso-8859-1"?>
<!-- Generator: Adobe Illustrator 14.0.0, SVG Export Plug-In . SVG Version: 6.00 Build 43363)  -->
<!DOCTYPE svg PUBLIC "-//W3C//DTD SVG 1.1//EN" "http://www.w3.org/Graphics/SVG/1.1/DTD/svg11.dtd">
<svg version="1.1" xmlns="http://www.w3.org/2000/svg" xmlns:xlink="http://www.w3.org/1999/xlink" x="0px" y="0px" width="512px"
	 height="512px" viewBox="0 0 512 512" style="enable-background:new 0 0 512 512;" xml:space="preserve">
<g id="external-link">
	<path d="M0,0v512h512V0H0z M486.4,486.4h-460.8V25.6h460.8V486.4z M230.405,460.8c0,0-55.66-48.035,0-102.41
		C251.065,337.729,332.805,256,332.805,256L435.21,358.39V51.2H127.995L230.405,153.6L127.995,256c0,0-51.19,51.19-51.19,102.39
		C76.805,449.825,155.245,469.59,230.405,460.8z M146.105,274.1l120.495-120.5l-76.796-76.8h219.801v219.8l-76.801-76.8L212.3,340.3
		c-3.399,3.39-47.515,45.065-27.675,96.45c-54.57-4.005-82.229-30.315-82.229-78.36C102.396,325.375,133.976,286.325,146.105,274.1z
		"/>
</g>
<g id="Layer_1">
</g>
</svg>
