<?xml version="1.0" encoding="iso-8859-1"?>
<!-- Generator: Adobe Illustrator 14.0.0, SVG Export Plug-In . SVG Version: 6.00 Build 43363)  -->
<!DOCTYPE svg PUBLIC "-//W3C//DTD SVG 1.1//EN" "http://www.w3.org/Graphics/SVG/1.1/DTD/svg11.dtd">
<svg version="1.1" xmlns="http://www.w3.org/2000/svg" xmlns:xlink="http://www.w3.org/1999/xlink" x="0px" y="0px" width="512px"
	 height="512px" viewBox="0 0 512 512" style="enable-background:new 0 0 512 512;" xml:space="preserve">
<g id="minimize-screen">
	<path d="M512,0.05v511.925h-0.02V512l-281.591-0.025v-0.01V486.38h25.601v-25.595h25.6v25.595v0.021H486.4V25.65H25.6V230.4v0.02
		H51.2v25.595H25.6v25.596H0V230.4V0.05V0.04V0l411.592,0.04L511.98,0.05H512z M383.985,204.82L281.59,307.2l51.195,51.2H281.59
		h-128v-128v-51.171l51.2,51.19l102.396-102.385L383.985,204.82z M347.78,204.82l-40.595-40.596L204.79,266.61l-25.6-25.591v91.78
		h91.8l-25.601-25.6L347.78,204.82z M281.59,435.189V383.99h-25.6v51.199H281.59z M76.795,511.965v0.01h51.2v-0.01V486.38h-51.2
		V511.965z M153.59,511.965v0.01h51.2v-0.01V486.38h-51.2V511.965z M25.6,307.2H0v51.2h25.6V307.2z M25.6,383.99H0v51.199h25.6
		V383.99z M25.6,460.785H0v25.595v25.585v0.01h25.6H51.2v-0.01V486.38H25.6V460.785z M76.795,256.015h51.2V230.42h-51.2V256.015z"/>
</g>
<g id="Layer_1">
</g>
</svg>
