<?xml version="1.0" encoding="iso-8859-1"?>
<!-- Generator: Adobe Illustrator 14.0.0, SVG Export Plug-In . SVG Version: 6.00 Build 43363)  -->
<!DOCTYPE svg PUBLIC "-//W3C//DTD SVG 1.1//EN" "http://www.w3.org/Graphics/SVG/1.1/DTD/svg11.dtd">
<svg version="1.1" xmlns="http://www.w3.org/2000/svg" xmlns:xlink="http://www.w3.org/1999/xlink" x="0px" y="0px" width="512px"
	 height="512px" viewBox="0 0 512 512" style="enable-background:new 0 0 512 512;" xml:space="preserve">
<g id="move">
	<path d="M451.75,195.75l-18.1,18.095L463,243.19h-79.64c-5.995-60.495-54.065-108.561-114.56-114.561V49.01l29.35,29.351
		l18.1-18.096L256,0l-60.255,60.265l18.105,18.096L243.2,49.01v79.62c-60.5,6-108.565,54.065-114.565,114.561H49l29.351-29.346
		L60.245,195.75L0,255.99l60.245,60.255l18.105-18.095L49,268.79h79.635c5.995,60.5,54.065,108.57,114.565,114.57V463l-29.35-29.35
		l-18.105,18.095L256,512l60.25-60.255l-18.1-18.095L268.801,463v-79.64c60.494-6,108.564-54.07,114.56-114.57H463l-29.35,29.36
		l18.1,18.095L512,255.99L451.75,195.75z M256,358.39c-56.45,0-102.405-45.935-102.405-102.399c0-56.46,45.955-102.4,102.405-102.4
		c56.445,0,102.4,45.94,102.4,102.4C358.4,312.455,312.445,358.39,256,358.39z"/>
</g>
<g id="Layer_1">
</g>
</svg>
