<?xml version="1.0" encoding="iso-8859-1"?>
<!-- Generator: Adobe Illustrator 14.0.0, SVG Export Plug-In . SVG Version: 6.00 Build 43363)  -->
<!DOCTYPE svg PUBLIC "-//W3C//DTD SVG 1.1//EN" "http://www.w3.org/Graphics/SVG/1.1/DTD/svg11.dtd">
<svg version="1.1" xmlns="http://www.w3.org/2000/svg" xmlns:xlink="http://www.w3.org/1999/xlink" x="0px" y="0px" width="512px"
	 height="512px" viewBox="0 0 512 512" style="enable-background:new 0 0 512 512;" xml:space="preserve">
<g id="minimize">
	<path d="M155.43,153.6H4.58v76.808h226.28V0H155.43V153.6z M180.57,25.605h25.145v179.203H29.72v-25.605H180.57V25.605z
		 M356.565,153.6V0H281.14v230.408h226.28V153.6H356.565z M482.275,204.808H306.28V25.605h25.145v153.598h150.851V204.808z
		 M4.58,358.402h150.85V512h75.431V281.603H4.58V358.402z M29.72,307.207h175.995v179.195H180.57v-153.6H29.72V307.207z M281.14,512
		h75.426V358.402H507.42v-76.8H281.14V512z M306.28,307.207h175.995v25.596H331.425v153.6H306.28V307.207z"/>
</g>
<g id="Layer_1">
</g>
</svg>
