<?xml version="1.0" encoding="iso-8859-1"?>
<!-- Generator: Adobe Illustrator 14.0.0, SVG Export Plug-In . SVG Version: 6.00 Build 43363)  -->
<!DOCTYPE svg PUBLIC "-//W3C//DTD SVG 1.1//EN" "http://www.w3.org/Graphics/SVG/1.1/DTD/svg11.dtd">
<svg version="1.1" xmlns="http://www.w3.org/2000/svg" xmlns:xlink="http://www.w3.org/1999/xlink" x="0px" y="0px" width="512px"
	 height="512px" viewBox="0 0 512 512" style="enable-background:new 0 0 512 512;" xml:space="preserve">
<g id="move-cross">
	<path d="M507.418,256L381.707,153.6v51.203h-75.424V128h50.285L256.002,0l-100.57,128h50.285v76.803h-75.424V153.6L4.582,256
		l125.711,102.402V307.2h75.424V384h-50.285l100.57,128l100.566-128h-50.285v-76.8h75.424v51.202L507.418,256z M281.143,281.603
		V409.6h23.131l-48.271,61.426l-48.27-61.426h23.125V281.603H105.152v23.522L44.828,256l60.324-49.125V230.4h125.705v-128h-23.125
		l48.27-61.425l48.271,61.425h-23.131v128h125.711v-23.525L467.178,256l-60.324,49.125v-23.522H281.143z"/>
</g>
<g id="Layer_1">
</g>
</svg>
