<?xml version="1.0" encoding="iso-8859-1"?>
<!-- Generator: Adobe Illustrator 14.0.0, SVG Export Plug-In . SVG Version: 6.00 Build 43363)  -->
<!DOCTYPE svg PUBLIC "-//W3C//DTD SVG 1.1//EN" "http://www.w3.org/Graphics/SVG/1.1/DTD/svg11.dtd">
<svg version="1.1" xmlns="http://www.w3.org/2000/svg" xmlns:xlink="http://www.w3.org/1999/xlink" x="0px" y="0px" width="512px"
	 height="512px" viewBox="0 0 512 512" style="enable-background:new 0 0 512 512;" xml:space="preserve">
<g id="maximize">
	<path d="M80.008,281.603H4.582V512h226.275v-76.797H80.008V281.603z M205.717,460.803v25.6H29.723V307.207h25.141v153.596H205.717z
		 M281.143,0v76.808h150.85v153.6h75.426V0H281.143z M482.277,204.808h-25.145V51.203h-150.85V25.605h175.994V204.808z
		 M4.582,230.408h75.426v-153.6h150.85V0H4.582V230.408z M29.723,25.605h175.994v25.598H54.863v153.605H29.723V25.605z
		 M431.992,435.203h-150.85V512h226.275V281.603h-75.426V435.203z M457.133,307.207h25.145v179.195H306.283v-25.6h150.85V307.207z"
		/>
</g>
<g id="Layer_1">
</g>
</svg>
