<?xml version="1.0" encoding="iso-8859-1"?>
<!-- Generator: Adobe Illustrator 14.0.0, SVG Export Plug-In . SVG Version: 6.00 Build 43363)  -->
<!DOCTYPE svg PUBLIC "-//W3C//DTD SVG 1.1//EN" "http://www.w3.org/Graphics/SVG/1.1/DTD/svg11.dtd">
<svg version="1.1" xmlns="http://www.w3.org/2000/svg" xmlns:xlink="http://www.w3.org/1999/xlink" x="0px" y="0px" width="512px"
	 height="512px" viewBox="0 0 512 512" style="enable-background:new 0 0 512 512;" xml:space="preserve">
<g id="maximize-screen">
	<path d="M486.4,383.99H512v51.199h-25.6V383.99z M384,512h51.2v-25.6H384V512z M307.2,512h51.2v-25.6h-51.2V512z M486.4,486.4
		H460.8V512H512v-51.21h-25.6V486.4z M486.4,358.39H512V307.2h-25.6V358.39z M486.4,281.6H512v-51.21h-25.6V281.6z M486.4,204.8H512
		v-51.21h-25.6V204.8z M486.4,127.99H512v-51.2h-25.6V127.99z M128,0H76.8v25.6H128V0z M204.8,0h-51.2v25.6h51.2V0z M281.6,0H230.4
		v25.6H281.6V0z M358.4,0h-51.2v25.6h51.2V0z M384,25.6h51.2V0H384V25.6z M460.8,0v25.6H486.4V51.2H512V0H460.8z M25.6,25.6H51.2V0
		H0v51.2h25.6V25.6z M25.6,76.79H0v51.2h25.6V76.79z M25.6,153.59H0v51.21h25.6V153.59z M332.8,255.99l-51.2,51.21V512H0V230.39
		h204.8L256,179.19l-51.2-51.2H384V307.2L332.8,255.99z M256,332.8l-25.6,25.59L153.6,281.6L179.2,255.99H25.6V486.4H256V332.8z
		 M332.8,219.795L358.4,245.4V153.59H266.6L292.2,179.19L189.8,281.6l40.601,40.596L332.8,219.795z"/>
</g>
<g id="Layer_1">
</g>
</svg>
