<?xml version="1.0" encoding="iso-8859-1"?>
<!-- Generator: Adobe Illustrator 14.0.0, SVG Export Plug-In . SVG Version: 6.00 Build 43363)  -->
<!DOCTYPE svg PUBLIC "-//W3C//DTD SVG 1.1//EN" "http://www.w3.org/Graphics/SVG/1.1/DTD/svg11.dtd">
<svg version="1.1" xmlns="http://www.w3.org/2000/svg" xmlns:xlink="http://www.w3.org/1999/xlink" x="0px" y="0px" width="512px"
	 height="512px" viewBox="0 0 512 512" style="enable-background:new 0 0 512 512;" xml:space="preserve">
<g id="reset-arrow">
	<path d="M294.4,25.96V25.6h-25.605v120.47c12.025-1.867,21.125-0.52,25.605,0v-17.442C359.005,135.072,409.6,189.745,409.6,256
		c0,70.574-57.404,128-127.994,128c-61.795,0-113.54-44.04-125.436-102.408h48.63l-78.035-78.027l48.735,20.89
		c2.46-8.295,5.855-16.175,10.085-23.525l-110.71-47.45l-10.07,23.535l27.84,11.935L0,281.592h52.625
		C65.365,396.8,163.01,486.4,281.605,486.4C408.85,486.4,512,383.25,512,256C512,133.047,415.69,32.6,294.4,25.96z M281.605,460.803
		c-112.905,0-204.8-91.873-204.8-204.803h-15l40.6-40.6l40.59,40.6h-15c0,84.835,68.75,153.592,153.61,153.592
		c84.85,0,153.59-68.757,153.59-153.592c0-80.53-61.94-146.563-140.795-153.07V51.61C401.405,58.248,486.396,147.37,486.396,256
		C486.396,368.93,394.545,460.803,281.605,460.803z M194.82,187.32l-85.175-85.19l18.109-18.1l85.16,85.19
		C206.205,174.535,200.13,180.61,194.82,187.32z M228.885,158.67l-44.74-111.84l23.78-9.505L252.66,149.16
		C244.295,151.42,236.335,154.615,228.885,158.67z"/>
</g>
<g id="Layer_1">
</g>
</svg>
