<?xml version="1.0" encoding="iso-8859-1"?>
<!-- Generator: Adobe Illustrator 14.0.0, SVG Export Plug-In . SVG Version: 6.00 Build 43363)  -->
<!DOCTYPE svg PUBLIC "-//W3C//DTD SVG 1.1//EN" "http://www.w3.org/Graphics/SVG/1.1/DTD/svg11.dtd">
<svg version="1.1" xmlns="http://www.w3.org/2000/svg" xmlns:xlink="http://www.w3.org/1999/xlink" x="0px" y="0px" width="512px"
	 height="512px" viewBox="0 0 512 512" style="enable-background:new 0 0 512 512;" xml:space="preserve">
<g id="rotate-right">
	<path d="M356.939,102.402L256.369,0v51.35c-0.024,0-0.07,0-0.1,0c-57.891,0-115.76,22.38-159.905,67.325
		c-88.365,89.973-88.365,235.865,0,325.841C140.529,489.505,198.449,512,256.369,512V409.603c-0.024,0-0.024,0-0.05,0
		c-32.135,0-64.29-12.503-88.83-37.487c-49.104-49.995-49.104-131.025,0-181.01c24.48-24.927,56.79-37.025,88.88-37.025v50.723
		L356.939,102.402z M149.712,173.005c-58.928,59.955-58.918,157.237,0,217.216c22.468,22.879,50.774,37.659,81.518,42.869v51.742
		c-44.22-5.582-85.101-25.827-117.09-58.417c-78.426-79.86-78.426-209.785,0-289.635c37.885-38.58,97.069-66.94,167.375-59.83
		V61.805l39.87,40.597l-39.995,40.723l-0.17-14.645C219.81,124.4,177.914,144.29,149.712,173.005z M380.704,268.803h101.205
		c-2.92-53.948-23.965-102.86-57.16-140.638l-71.545,72.85C368.377,219.93,378.174,243.155,380.704,268.803z M422.52,166.655
		c15.505,23.125,26.024,48.995,31.095,76.548h-51.92c-3.485-13.772-8.81-26.948-15.885-39.178L422.52,166.655z M281.414,407.029
		v103.469c48.025-5.402,91.385-26.219,125.535-57.354L335.43,380.3C319.939,393.189,301.744,402.811,281.414,407.029z
		 M306.555,479.85v-53.504c8.965-3.32,17.654-7.568,26.05-12.721l36.56,37.234C349.989,464.207,328.874,473.99,306.555,479.85z
		 M353.204,362.189l71.545,72.851c33.195-37.774,54.24-86.69,57.16-140.64H380.704C378.174,320.05,368.377,343.279,353.204,362.189z
		 M401.694,320h51.92c-5.07,27.555-15.59,53.425-31.095,76.55l-36.71-37.37C392.885,346.95,398.209,333.779,401.694,320z
		 M256.369,358.4l75.33-76.798l-75.33-76.8l-75.524,76.8L256.369,358.4z M296.145,281.603L256.369,322.2l-39.97-40.598l39.97-40.598
		L296.145,281.603z"/>
</g>
<g id="Layer_1">
</g>
</svg>
