<?xml version="1.0" encoding="iso-8859-1"?>
<!-- Generator: Adobe Illustrator 14.0.0, SVG Export Plug-In . SVG Version: 6.00 Build 43363)  -->
<!DOCTYPE svg PUBLIC "-//W3C//DTD SVG 1.1//EN" "http://www.w3.org/Graphics/SVG/1.1/DTD/svg11.dtd">
<svg version="1.1" xmlns="http://www.w3.org/2000/svg" xmlns:xlink="http://www.w3.org/1999/xlink" x="0px" y="0px" width="512px"
	 height="512px" viewBox="0 0 512 512" style="enable-background:new 0 0 512 512;" xml:space="preserve">
<g id="rotate">
	<path d="M141.7,256c0-54.95,42.435-116.07,114.31-115.945v46.12L347.43,93.09L256.01,0v46.67
		C140.285,46.67,50.255,142.28,50.255,256c0,53.59,20.095,107.2,60.26,148.096l64.675-65.801
		C152.865,315.561,141.7,285.779,141.7,256z M111.99,367c-23.745-31.775-36.61-70.38-36.61-111
		c0-101.695,81.17-193.515,205.755-183.75V61.76l30.77,31.33l-30.77,31.325V114.5c-105.76-11.275-164.56,70.45-164.56,141.5
		c0,29.388,8.715,57.377,24.89,80.992L111.99,367z M401.484,107.905l-64.674,65.805C359.135,196.445,370.3,226.22,370.3,256
		c0,54.95-42.44,116.07-114.315,115.945V325.83l-91.42,93.085L255.985,512v-46.67c115.73,0,205.76-95.609,205.76-209.33
		C461.745,202.41,441.65,148.8,401.484,107.905z M230.86,439.75v10.49l-30.765-31.325l30.765-31.33v9.915
		c105.76,11.275,164.565-70.453,164.565-141.5c0-29.385-8.715-57.382-24.89-80.99L400.01,145c23.74,31.78,36.61,70.38,36.61,111
		C436.62,357.695,355.45,449.516,230.86,439.75z M203.875,256c0,29.311,23.33,53.067,52.11,53.067
		c28.781,0,52.115-23.757,52.115-53.067c0-29.305-23.334-53.065-52.115-53.065C227.205,202.935,203.875,226.695,203.875,256z
		 M282.195,256c0,14.713-11.756,26.68-26.21,26.68c-14.45,0-26.205-11.967-26.205-26.68c0-14.717,11.755-26.68,26.205-26.68
		C270.439,229.32,282.195,241.283,282.195,256z"/>
</g>
<g id="Layer_1">
</g>
</svg>
