<?xml version="1.0" encoding="iso-8859-1"?>
<!-- Generator: Adobe Illustrator 14.0.0, SVG Export Plug-In . SVG Version: 6.00 Build 43363)  -->
<!DOCTYPE svg PUBLIC "-//W3C//DTD SVG 1.1//EN" "http://www.w3.org/Graphics/SVG/1.1/DTD/svg11.dtd">
<svg version="1.1" xmlns="http://www.w3.org/2000/svg" xmlns:xlink="http://www.w3.org/1999/xlink" x="0px" y="0px" width="512px"
	 height="512px" viewBox="0 0 512 512" style="enable-background:new 0 0 512 512;" xml:space="preserve">
<g id="reduce-arrows">
	<path d="M102.4,332.795L0,435.189L76.803,512l102.4-102.4l51.2,51.195V281.6h-179.2L102.4,332.795z M204.8,307.2v91.795
		l-25.598-25.604L76.803,475.79l-40.6-40.601l102.4-102.395l-25.6-25.595H204.8z M460.798,281.6H281.603v179.195l51.2-51.195
		l102.4,102.4L512,435.189L409.6,332.795L460.798,281.6z M475.803,435.189l-40.6,40.601l-102.4-102.399L307.2,398.995V307.2h91.798
		L373.4,332.795L475.803,435.189z M76.803,0L0,76.795l102.4,102.4L51.203,230.39h179.2V51.2l-51.2,51.2L76.803,0z M204.8,204.8
		h-91.798l25.6-25.605l-102.4-102.4l40.6-40.595l102.4,102.4l25.598-25.605V204.8z M409.6,179.195L512,76.795L435.203,0
		l-102.4,102.4l-51.2-51.2v179.19h179.195L409.6,179.195z M307.2,204.8v-91.805l25.603,25.605l102.4-102.4l40.6,40.595
		L373.4,179.195l25.598,25.605H307.2z"/>
</g>
<g id="Layer_1">
</g>
</svg>
