<?xml version="1.0" encoding="iso-8859-1"?>
<!-- Generator: Adobe Illustrator 14.0.0, SVG Export Plug-In . SVG Version: 6.00 Build 43363)  -->
<!DOCTYPE svg PUBLIC "-//W3C//DTD SVG 1.1//EN" "http://www.w3.org/Graphics/SVG/1.1/DTD/svg11.dtd">
<svg version="1.1" xmlns="http://www.w3.org/2000/svg" xmlns:xlink="http://www.w3.org/1999/xlink" x="0px" y="0px" width="512px"
	 height="512px" viewBox="0 0 512 512" style="enable-background:new 0 0 512 512;" xml:space="preserve">
<g id="return-left">
	<path d="M281.6,102.4h-128V25.6L0,179.199l153.6,153.602V256c0,0,102.4,0,128,0c25.601,0,76.801,0,76.131,37.051
		c0.67,39.75-50.53,39.75-76.131,39.75c-25.6,0-51.199,0-51.199,0v153.6H281.6C384,486.4,512,444.609,512,291
		C512,134.75,384,102.4,281.6,102.4z M281.6,230.4H128v40.605l-91.8-91.807L128,87.404V128h103.17v0.025
		c89.28,0,158.945,28.385,186.345,75.924c27.355,47.49,1.815,91.291-38.01,111.625C379.505,315.574,413.65,230.4,281.6,230.4z
		 M281.6,460.801H256V358.4h40.48c67.25,0,120.369-23.971,144.63-65.82c29.97-51.77,6.35-109.041-39.29-143.506
		C458.04,174.17,486.4,221.615,486.4,291C486.4,444.25,343.175,460.801,281.6,460.801z"/>
</g>
<g id="Layer_1">
</g>
</svg>
