<?xml version="1.0" encoding="iso-8859-1"?>
<!-- Generator: Adobe Illustrator 14.0.0, SVG Export Plug-In . SVG Version: 6.00 Build 43363)  -->
<!DOCTYPE svg PUBLIC "-//W3C//DTD SVG 1.1//EN" "http://www.w3.org/Graphics/SVG/1.1/DTD/svg11.dtd">
<svg version="1.1" xmlns="http://www.w3.org/2000/svg" xmlns:xlink="http://www.w3.org/1999/xlink" x="0px" y="0px" width="512px"
	 height="512px" viewBox="0 0 512 512" style="enable-background:new 0 0 512 512;" xml:space="preserve">
<g id="return-right">
	<path d="M512,179.199L358.4,25.6V102.4h-128C128,102.4,0,134.75,0,291c0,153.609,128,195.4,230.4,195.4h51.2v-153.6
		c0,0-25.601,0-51.2,0c-25.601,0-76.8,0-76.13-39.75C153.601,256,204.8,256,230.4,256c25.6,0,128,0,128,0v76.801L512,179.199z
		 M215.521,358.4H256v102.4h-25.6c-61.58,0-204.8-16.551-204.8-169.801c0-69.385,28.359-116.83,84.579-141.926
		c-45.64,34.465-69.26,91.736-39.295,143.506C95.15,334.43,148.271,358.4,215.521,358.4z M230.4,230.4
		c-132.045,0-97.91,85.174-97.91,85.174c-39.82-20.334-65.36-64.135-38.005-111.625c27.399-47.539,97.064-75.924,186.35-75.924V128
		h103.16V87.404l91.805,91.795l-91.805,91.807V230.4H230.4z"/>
</g>
<g id="Layer_1">
</g>
</svg>
