<?xml version="1.0" encoding="iso-8859-1"?>
<!-- Generator: Adobe Illustrator 14.0.0, SVG Export Plug-In . SVG Version: 6.00 Build 43363)  -->
<!DOCTYPE svg PUBLIC "-//W3C//DTD SVG 1.1//EN" "http://www.w3.org/Graphics/SVG/1.1/DTD/svg11.dtd">
<svg version="1.1" xmlns="http://www.w3.org/2000/svg" xmlns:xlink="http://www.w3.org/1999/xlink" x="0px" y="0px" width="512px"
	 height="512px" viewBox="0 0 512 512" style="enable-background:new 0 0 512 512;" xml:space="preserve">
<g id="rotate-left">
	<path d="M415.636,118.675C371.491,73.73,313.621,51.35,255.726,51.35c-0.024,0-0.07,0-0.095,0V0l-100.57,102.402l100.57,102.4
		V154.08c32.09,0,64.399,12.098,88.88,37.025c49.105,49.985,49.105,131.015,0,181.01c-24.54,24.984-56.695,37.487-88.83,37.487
		c-0.025,0-0.025,0-0.05,0V512c57.92,0,115.835-22.495,160.005-67.484C504.001,354.54,504.001,208.647,415.636,118.675z
		 M397.86,426.415c-31.989,32.59-72.869,52.835-117.09,58.417V433.09c30.74-5.21,59.05-19.99,81.516-42.869
		c58.92-59.979,58.93-157.261,0-217.216c-28.2-28.715-70.096-48.605-131.506-44.525l-0.17,14.645l-39.994-40.723l39.869-40.597
		V76.95c70.306-7.11,129.49,21.25,167.375,59.83C476.28,216.63,476.28,346.555,397.86,426.415z M158.796,201.015l-71.545-72.85
		c-33.195,37.777-54.24,86.69-57.16,140.638h101.205C133.826,243.155,143.621,219.93,158.796,201.015z M110.301,243.203H58.386
		c5.07-27.553,15.59-53.423,31.095-76.548l36.71,37.37C119.116,216.255,113.791,229.43,110.301,243.203z M105.051,453.145
		c34.15,31.135,77.51,51.951,125.535,57.354V407.029c-20.33-4.219-38.525-13.84-54.016-26.729L105.051,453.145z M205.445,426.346
		v53.504c-22.319-5.859-43.435-15.643-62.609-28.99l36.56-37.234C187.791,418.777,196.48,423.025,205.445,426.346z M131.296,294.4
		H30.091c2.92,53.949,23.965,102.865,57.16,140.64l71.545-72.851C143.621,343.279,133.826,320.05,131.296,294.4z M89.48,396.55
		C73.976,373.425,63.456,347.555,58.386,320h51.915c3.49,13.779,8.815,26.95,15.89,39.18L89.48,396.55z M255.631,358.4l75.52-76.798
		l-75.52-76.8l-75.33,76.8L255.631,358.4z M295.601,281.603l-39.97,40.598l-39.775-40.598l39.775-40.598L295.601,281.603z"/>
</g>
<g id="Layer_1">
</g>
</svg>
