<?xml version="1.0" encoding="iso-8859-1"?>
<!-- Generator: Adobe Illustrator 14.0.0, SVG Export Plug-In . SVG Version: 6.00 Build 43363)  -->
<!DOCTYPE svg PUBLIC "-//W3C//DTD SVG 1.1//EN" "http://www.w3.org/Graphics/SVG/1.1/DTD/svg11.dtd">
<svg version="1.1" xmlns="http://www.w3.org/2000/svg" xmlns:xlink="http://www.w3.org/1999/xlink" x="0px" y="0px" width="512px"
	 height="512px" viewBox="0 0 512 512" style="enable-background:new 0 0 512 512;" xml:space="preserve">
<g id="scroll-horizontal">
	<path d="M255.99,179.199c-42.4,0-76.79,34.41-76.79,76.811s34.39,76.801,76.79,76.801c42.4,0,76.8-34.4,76.8-76.801
		S298.391,179.199,255.99,179.199z M255.99,307.199c-28.22,0-51.19-22.949-51.19-51.189s22.97-51.209,51.19-51.209
		c28.23,0,51.21,22.969,51.21,51.209S284.221,307.199,255.99,307.199z M358.391,102.4V409.6L512,256.01L358.391,102.4z
		 M383.99,164.205l91.8,91.805l-91.8,91.801V164.205z M153.59,409.6V102.4L0,256.01L153.59,409.6z M127.99,347.811l-91.8-91.801
		l91.8-91.805V347.811z"/>
</g>
<g id="Layer_1">
</g>
</svg>
