<?xml version="1.0" encoding="iso-8859-1"?>
<!-- Generator: Adobe Illustrator 14.0.0, SVG Export Plug-In . SVG Version: 6.00 Build 43363)  -->
<!DOCTYPE svg PUBLIC "-//W3C//DTD SVG 1.1//EN" "http://www.w3.org/Graphics/SVG/1.1/DTD/svg11.dtd">
<svg version="1.1" xmlns="http://www.w3.org/2000/svg" xmlns:xlink="http://www.w3.org/1999/xlink" x="0px" y="0px" width="512px"
	 height="512px" viewBox="0 0 512 512" style="enable-background:new 0 0 512 512;" xml:space="preserve">
<g id="swap-diagonal1">
	<path d="M307.199,230.395V0H76.8l64,64L0,204.8l102.4,102.396L243.2,166.4L307.199,230.395z M36.2,204.8L177,64l-38.4-38.4h143
		v142.995l-38.4-38.4l-140.8,140.8L36.2,204.8z M512,307.195L409.6,204.8L268.8,345.596l-64-64V512h230.399l-64-64.005L512,307.195z
		 M373.4,486.395h-143v-143l38.4,38.4L409.6,241l66.2,66.195L335,447.995L373.4,486.395z"/>
</g>
<g id="Layer_1">
</g>
</svg>
