<?xml version="1.0" encoding="iso-8859-1"?>
<!-- Generator: Adobe Illustrator 14.0.0, SVG Export Plug-In . SVG Version: 6.00 Build 43363)  -->
<!DOCTYPE svg PUBLIC "-//W3C//DTD SVG 1.1//EN" "http://www.w3.org/Graphics/SVG/1.1/DTD/svg11.dtd">
<svg version="1.1" xmlns="http://www.w3.org/2000/svg" xmlns:xlink="http://www.w3.org/1999/xlink" x="0px" y="0px" width="512px"
	 height="512px" viewBox="0 0 512 512" style="enable-background:new 0 0 512 512;" xml:space="preserve">
<g id="shuffle-arrows">
	<path d="M384,312.595c-59.65-1.845-72.84-53-105.39-78.835c23.58-19.185,48.285-27.125,105.39-28.645v50.88L512,153.6L384,51.2
		v51.385c-85.37,1.32-129.354,11.74-188.4,62.405C134.896,132.186,89.83,134.39,0,134.39v102.415c41.59,0,85.34-0.79,117.67,8.245
		C94.42,271.385,79.51,285.64,0,281.595v102.41c110.12,4.29,153.8-26.274,201.89-73.35C224.25,326.1,273.19,411.085,384,415.061
		V460.8l128-102.41L384,255.995V312.595z M409.6,127.78v-23.325L471.03,153.6L409.6,202.74v-23.91
		c-55.399,2.22-100.04-2.36-149.199,36.97c-15.105-14.39-28.976-26.29-42.391-36.109C269.78,137.15,303.56,126.896,409.6,127.78z
		 M25.6,358.4v-51.205c67.591,0,85.771-15.84,116.79-51.57c14.351,8.515,26.33,20.38,41.761,36.49
		C138.705,336.6,102.965,358.4,25.6,358.4z M409.6,309.26l61.431,49.13L409.6,407.545V391.18
		c-78.06-4.875-109.229-9.27-201.25-110.774C158.88,228.021,134.5,210.04,25.6,211.2v-51.205c115.681,0,153.65,8.735,237.525,94.53
		c56.83,64.625,62.025,81.415,146.475,86.104V309.26z"/>
</g>
<g id="Layer_1">
</g>
</svg>
