<?xml version="1.0" encoding="iso-8859-1"?>
<!-- Generator: Adobe Illustrator 14.0.0, SVG Export Plug-In . SVG Version: 6.00 Build 43363)  -->
<!DOCTYPE svg PUBLIC "-//W3C//DTD SVG 1.1//EN" "http://www.w3.org/Graphics/SVG/1.1/DTD/svg11.dtd">
<svg version="1.1" xmlns="http://www.w3.org/2000/svg" xmlns:xlink="http://www.w3.org/1999/xlink" x="0px" y="0px" width="512px"
	 height="512px" viewBox="0 0 512 512" style="enable-background:new 0 0 512 512;" xml:space="preserve">
<g id="swap-diagonal2">
	<path d="M102.4,204.8L0,307.195l140.8,140.8L76.8,512h230.395V281.596l-63.995,64L102.4,204.8z M281.596,486.395H138.6l38.4-38.399
		l-140.8-140.8L102.4,241l140.8,140.795l38.396-38.4V486.395z M371.2,64l64-64H204.8v230.395l63.995-63.995L409.6,307.195L512,204.8
		L371.2,64z M268.795,130.195l-38.4,38.4V25.6H373.4L335,64l140.801,140.8L409.6,270.995L268.795,130.195z"/>
</g>
<g id="Layer_1">
</g>
</svg>
