<?xml version="1.0" encoding="iso-8859-1"?>
<!-- Generator: Adobe Illustrator 14.0.0, SVG Export Plug-In . SVG Version: 6.00 Build 43363)  -->
<!DOCTYPE svg PUBLIC "-//W3C//DTD SVG 1.1//EN" "http://www.w3.org/Graphics/SVG/1.1/DTD/svg11.dtd">
<svg version="1.1" xmlns="http://www.w3.org/2000/svg" xmlns:xlink="http://www.w3.org/1999/xlink" x="0px" y="0px" width="512px"
	 height="512px" viewBox="0 0 512 512" style="enable-background:new 0 0 512 512;" xml:space="preserve">
<g id="scroll-vertical">
	<path d="M179.21,256.01c0,42.4,34.4,76.8,76.79,76.8c42.4,0,76.801-34.399,76.801-76.8c0-42.399-34.4-76.81-76.801-76.81
		C213.61,179.2,179.21,213.61,179.21,256.01z M307.2,256.01c0,28.24-22.97,51.19-51.2,51.19c-28.22,0-51.2-22.95-51.2-51.19
		c0-28.26,22.98-51.21,51.2-51.21C284.23,204.8,307.2,227.75,307.2,256.01z M256,0L102.4,153.61h307.2L256,0z M256,36.21
		l91.801,91.8H164.21L256,36.21z M256,512l153.6-153.59H102.4L256,512z M256,475.81L164.21,384h183.591L256,475.81z"/>
</g>
<g id="Layer_1">
</g>
</svg>
