<?xml version="1.0" encoding="iso-8859-1"?>
<!-- Generator: Adobe Illustrator 14.0.0, SVG Export Plug-In . SVG Version: 6.00 Build 43363)  -->
<!DOCTYPE svg PUBLIC "-//W3C//DTD SVG 1.1//EN" "http://www.w3.org/Graphics/SVG/1.1/DTD/svg11.dtd">
<svg version="1.1" xmlns="http://www.w3.org/2000/svg" xmlns:xlink="http://www.w3.org/1999/xlink" x="0px" y="0px" width="512px"
	 height="512px" viewBox="0 0 512 512" style="enable-background:new 0 0 512 512;" xml:space="preserve">
<g id="space-coordinate-system">
	<path d="M332.8,230.4v76.8H384l-89.6,89.59V147l29.35,29.35l54.3-54.3L256,0L133.95,122.05l54.3,54.3L217.6,147v249.79L128,307.2
		h51.2v-76.8H0V409.59h76.8v-51.2L230.4,512H281.6L435.2,358.39v51.2H512V230.4H332.8z M486.4,383.99H460.8v-87.396L271,486.39h-30
		L51.2,296.595v87.396H25.6V256h128v25.59H66.2l177,177.005V85.2l-54.95,54.95l-18.1-18.101L256,36.195l85.85,85.854l-18.1,18.101
		L268.8,85.2v373.395l177-177.005H358.4V256h128V383.99z"/>
</g>
<g id="Layer_1">
</g>
</svg>
