<?xml version="1.0" encoding="iso-8859-1"?>
<!-- Generator: Adobe Illustrator 14.0.0, SVG Export Plug-In . SVG Version: 6.00 Build 43363)  -->
<!DOCTYPE svg PUBLIC "-//W3C//DTD SVG 1.1//EN" "http://www.w3.org/Graphics/SVG/1.1/DTD/svg11.dtd">
<svg version="1.1" xmlns="http://www.w3.org/2000/svg" xmlns:xlink="http://www.w3.org/1999/xlink" x="0px" y="0px" width="512px"
	 height="512px" viewBox="0 0 512 512" style="enable-background:new 0 0 512 512;" xml:space="preserve">
<g id="update-arrow">
	<path d="M418.908,67.542c-90.779-90.8-236.63-89.31-325.92,0c-85.659,85.649-89.6,221.854-12.149,312.353l73.09-73.049
		c-37.64-50.149-34.11-121.305,11.51-166.904c54.41-54.449,135.67-45.35,181.03,0c50,50,50,131.005,0,181.005
		c-24.94,24.904-57.54,36.999-90.22,36.999c-0.101,0-0.2,0-0.301,0v-50.699L153.528,409.59L255.948,512v-51.3
		c0.04,0,0.061,0,0.101,0c58.95,0,117.899-22.4,162.859-67.355C508.898,303.396,508.898,157.491,418.908,67.542z M400.799,375.246
		c-66.28,65.954-144.8,60.554-170.45,59.854V450.2l-40.62-40.61l40.74-40.695l0.17,14.65c0,0,78.65,12.35,133.93-44.499
		c54.83-54.85,65.11-152.055,0.011-217.204c-57.801-57.8-155.141-62.149-217.25,0c-48.15,48.149-57.801,122.699-26.04,181.404
		l-37.63,37.655c-50.971-79.556-40.95-186.91,27.439-255.26c84.8-84.85,214.65-75.05,289.7,0
		C484.519,169.291,477.068,298.996,400.799,375.246z"/>
</g>
<g id="Layer_1">
</g>
</svg>
