<?xml version="1.0" encoding="iso-8859-1"?>
<!-- Generator: Adobe Illustrator 14.0.0, SVG Export Plug-In . SVG Version: 6.00 Build 43363)  -->
<!DOCTYPE svg PUBLIC "-//W3C//DTD SVG 1.1//EN" "http://www.w3.org/Graphics/SVG/1.1/DTD/svg11.dtd">
<svg version="1.1" xmlns="http://www.w3.org/2000/svg" xmlns:xlink="http://www.w3.org/1999/xlink" x="0px" y="0px" width="512px"
	 height="512px" viewBox="0 0 512 512" style="enable-background:new 0 0 512 512;" xml:space="preserve">
<g id="american-power-outlet">
	<path d="M435.21,25.6H76.805C76.805,25.6,0,102.4,0,255.99C0,409.59,76.805,486.4,76.805,486.4H435.21
		c0,0,76.79-76.811,76.79-230.41C512,102.4,435.21,25.6,435.21,25.6z M423.45,460.79H88.555C71.355,438.971,25.6,370.2,25.6,255.99
		C25.6,141.725,71.41,72.93,88.555,51.2H423.45c17.204,21.825,62.954,90.6,62.954,204.79
		C486.404,370.275,440.605,439.07,423.45,460.79z M358.404,102.4h25.601v128h-25.601V102.4z M128.01,102.4h25.595v128H128.01V102.4z
		 M256.005,255.99c-42.35,0-76.8,34.46-76.8,76.8v76.8h153.605v-76.8C332.811,290.45,298.35,255.99,256.005,255.99z M307.2,384
		H204.8v-51.21c0-28.265,22.93-51.189,51.205-51.189c28.274,0,51.195,22.925,51.195,51.189V384z"/>
</g>
<g id="Layer_1">
</g>
</svg>
