<?xml version="1.0" encoding="iso-8859-1"?>
<!-- Generator: Adobe Illustrator 14.0.0, SVG Export Plug-In . SVG Version: 6.00 Build 43363)  -->
<!DOCTYPE svg PUBLIC "-//W3C//DTD SVG 1.1//EN" "http://www.w3.org/Graphics/SVG/1.1/DTD/svg11.dtd">
<svg version="1.1" xmlns="http://www.w3.org/2000/svg" xmlns:xlink="http://www.w3.org/1999/xlink" x="0px" y="0px" width="512px"
	 height="512px" viewBox="0 0 512 512" style="enable-background:new 0 0 512 512;" xml:space="preserve">
<g id="american-plug">
	<path d="M204.8,371.2c0-7.08,5.721-12.8,12.801-12.8h76.8c7.069,0,12.8,5.72,12.8,12.8c0,7.075-5.73,12.8-12.8,12.8h-76.8
		C210.521,384,204.8,378.275,204.8,371.2z M217.601,332.793h76.8c7.069,0,12.8-5.723,12.8-12.793c0-7.074-5.73-12.8-12.8-12.8h-76.8
		c-7.08,0-12.801,5.726-12.801,12.8C204.8,327.07,210.521,332.793,217.601,332.793z M435.2,204.793V281.6h-25.6L332.8,435.2V512
		H179.2v-76.8L102.4,281.6H76.8v-76.807h51.201V0H204.8v204.793h102.4V0h76.802v204.793H435.2z M332.8,204.793H358.4V25.6H332.8
		V204.793z M153.601,204.793h25.6V25.6h-25.6V204.793z M380.97,281.6H131.03l73.77,147.545v57.248h102.4v-57.248L380.97,281.6z
		 M409.601,230.4H102.4V256h307.2V230.4z"/>
</g>
<g id="Layer_1">
</g>
</svg>
