<?xml version="1.0" encoding="iso-8859-1"?>
<!-- Generator: Adobe Illustrator 14.0.0, SVG Export Plug-In . SVG Version: 6.00 Build 43363)  -->
<!DOCTYPE svg PUBLIC "-//W3C//DTD SVG 1.1//EN" "http://www.w3.org/Graphics/SVG/1.1/DTD/svg11.dtd">
<svg version="1.1" xmlns="http://www.w3.org/2000/svg" xmlns:xlink="http://www.w3.org/1999/xlink" x="0px" y="0px" width="512px"
	 height="512px" viewBox="0 0 512 512" style="enable-background:new 0 0 512 512;" xml:space="preserve">
<g id="american-power-outlet2">
	<path d="M486.4,51.2H25.6C11.45,51.2,0,62.665,0,76.8v358.4c0,14.14,11.45,25.6,25.6,25.6h460.8c14.149,0,25.6-11.46,25.6-25.6
		V76.8C512,62.665,500.55,51.2,486.4,51.2z M486.4,435.2H25.6V76.8h460.8V435.2z M381.3,409.6c33.22-39.024,53.9-93.399,53.9-153.6
		c0-60.21-20.681-114.57-53.9-153.6H128C94.775,141.43,76.8,195.79,76.8,256c0,60.2,17.975,114.575,51.2,153.6H381.3z M140.37,128
		H369c26.25,35.08,40.6,80.065,40.6,128c0,47.936-14.35,92.93-40.6,128H140.37c-24.57-33.45-37.97-78.4-37.97-128
		C102.4,206.405,115.8,161.455,140.37,128z M204.8,256h-25.6V153.6h25.6V256z M332.8,256h-25.6V153.6h25.6V256z M294.4,358.4h-76.8
		V320c0-21.21,17.2-38.4,38.4-38.4s38.4,17.19,38.4,38.4V358.4z"/>
</g>
<g id="Layer_1">
</g>
</svg>
