<?xml version="1.0" encoding="iso-8859-1"?>
<!-- Generator: Adobe Illustrator 14.0.0, SVG Export Plug-In . SVG Version: 6.00 Build 43363)  -->
<!DOCTYPE svg PUBLIC "-//W3C//DTD SVG 1.1//EN" "http://www.w3.org/Graphics/SVG/1.1/DTD/svg11.dtd">
<svg version="1.1" xmlns="http://www.w3.org/2000/svg" xmlns:xlink="http://www.w3.org/1999/xlink" x="0px" y="0px" width="512px"
	 height="512px" viewBox="0 0 512 512" style="enable-background:new 0 0 512 512;" xml:space="preserve">
<g id="american-power-extension">
	<path d="M166.4,384c0-7.074,5.699-12.8,12.799-12.8c7.051,0,12.801,5.726,12.801,12.8c0,7.075-5.75,12.801-12.801,12.801
		C172.1,396.801,166.4,391.075,166.4,384z M76.801,179.203c0-42.427,34.35-76.802,76.789-76.802
		c42.41,0,76.811,34.375,76.811,76.802S196,256,153.59,256C111.15,256,76.801,221.63,76.801,179.203z M102.4,179.203
		c0,28.238,22.949,51.198,51.189,51.198c28.26,0,51.211-22.96,51.211-51.198c0-28.243-22.951-51.203-51.211-51.203
		C125.35,128,102.4,150.96,102.4,179.203z M128,192c7.051,0,12.801-5.72,12.801-12.797S135.051,166.4,128,166.4
		c-7.1,0-12.801,5.725-12.801,12.802S120.9,192,128,192z M128,396.801c7.051,0,12.801-5.726,12.801-12.801
		c0-7.074-5.75-12.8-12.801-12.8c-7.1,0-12.801,5.726-12.801,12.8C115.199,391.075,120.9,396.801,128,396.801z M179.199,192
		c7.051,0,12.801-5.72,12.801-12.797s-5.75-12.802-12.801-12.802c-7.1,0-12.799,5.725-12.799,12.802S172.1,192,179.199,192z
		 M76.801,384c0-42.425,34.35-76.8,76.789-76.8c42.41,0,76.811,34.375,76.811,76.8c0,42.426-34.4,76.801-76.811,76.801
		C111.15,460.801,76.801,426.426,76.801,384z M102.4,384c0,28.235,22.949,51.2,51.189,51.2c28.26,0,51.211-22.965,51.211-51.2
		c0-28.234-22.951-51.199-51.211-51.199C125.35,332.801,102.4,355.766,102.4,384z M486.4,153.6v76.8l-25.6,25.6v25.6h-25.602V448
		c0,22.12-13.398,64-64,64c-50.648,0-64-41.88-64-64V51.203C307.199,25.6,281.5,25.6,281.5,25.6H179.199
		c-10.299,0-12.648,7.055-12.799,12.95v12.652H256c14.15,0,25.59,11.453,25.59,25.598v409.6c0,14.15-11.439,25.6-25.59,25.6H51.199
		c-14.148,0-25.6-11.449-25.6-25.6V76.8c0-14.145,11.451-25.598,25.6-25.598h89.602v-12.8C140.801,22.975,151,0,179.199,0H281.59
		c0,0,51.211,0.575,51.211,51.203V448c0.049,6.35,2.25,38.4,38.398,38.4c36.102,0,38.291-32.051,38.391-38.48V281.6H384V256
		l-25.6-25.6v-76.8H384v-51.2c0-7.061,5.721-12.785,12.779-12.785c7.061,0,12.811,5.725,12.811,12.785v51.2h25.609v-51.2
		c0-7.061,5.701-12.785,12.762-12.785c7.059,0,12.84,5.725,12.84,12.785v51.2H486.4z M51.199,76.8v409.6H256V76.8H51.199z
		 M460.801,179.203H384V219.8l25.59,25.6V256h25.609v-10.6l25.602-25.6V179.203z"/>
</g>
<g id="Layer_1">
</g>
</svg>
