<?xml version="1.0" encoding="iso-8859-1"?>
<!-- Generator: Adobe Illustrator 14.0.0, SVG Export Plug-In . SVG Version: 6.00 Build 43363)  -->
<!DOCTYPE svg PUBLIC "-//W3C//DTD SVG 1.1//EN" "http://www.w3.org/Graphics/SVG/1.1/DTD/svg11.dtd">
<svg version="1.1" xmlns="http://www.w3.org/2000/svg" xmlns:xlink="http://www.w3.org/1999/xlink" x="0px" y="0px" width="512px"
	 height="512px" viewBox="0 0 512 512" style="enable-background:new 0 0 512 512;" xml:space="preserve">
<g id="battery-charger">
	<path d="M471.505,0h-431c-13.239,0-23.95,10.91-23.95,24.385v463.23c0,13.475,10.711,24.385,23.95,24.385h431
		c13.229,0,23.94-10.91,23.94-24.385V24.385C495.445,10.91,484.734,0,471.505,0z M471.505,487.615h-431v-24.381h431V487.615z
		 M471.505,438.859h-431V121.905h431V438.859z M471.505,97.525h-431v-73.14h431V97.525z M64.445,60.955
		c0-6.745,5.354-12.19,11.97-12.19h23.95c6.615,0,11.971,5.445,11.971,12.19c0,6.734-5.355,12.195-11.971,12.195h-23.95
		C69.8,73.15,64.445,67.689,64.445,60.955z M399.665,60.955c0-6.745,5.36-12.19,11.976-12.19h23.945
		c6.619,0,11.969,5.445,11.969,12.19c0,6.734-5.35,12.195-11.969,12.195h-23.945C405.025,73.15,399.665,67.689,399.665,60.955z
		 M232.055,60.955c0-6.745,5.36-12.19,11.976-12.19h23.944c6.615,0,11.971,5.445,11.971,12.19c0,6.734-5.355,12.195-11.971,12.195
		H244.03C237.415,73.15,232.055,67.689,232.055,60.955z M363.755,414.479h71.831c13.209,0,23.944-10.909,23.944-24.385V195.05
		c0-13.48-10.735-24.383-23.944-24.383h-11.971v-24.382h-47.891v24.382h-11.97c-13.215,0-23.95,10.903-23.95,24.383v195.045
		C339.805,403.57,350.54,414.479,363.755,414.479z M363.755,195.05h71.831v195.045h-71.831V195.05z M220.086,414.479h71.829
		c13.215,0,23.95-10.909,23.95-24.385V195.05c0-13.48-10.735-24.383-23.95-24.383h-11.97v-24.382h-47.891v24.382h-11.969
		c-13.211,0-23.945,10.903-23.945,24.383v195.045C196.141,403.57,206.875,414.479,220.086,414.479z M220.086,195.05h71.829v195.045
		h-71.829V195.05z M76.415,414.479h71.835c13.215,0,23.945-10.909,23.945-24.385V195.05c0-13.48-10.73-24.383-23.945-24.383h-11.97
		v-24.382h-47.89v24.382H76.415c-13.21,0-23.94,10.903-23.94,24.383v195.045C52.475,403.57,63.205,414.479,76.415,414.479z
		 M76.415,195.05h71.835v195.045H76.415V195.05z"/>
</g>
<g id="Layer_1">
</g>
</svg>
