<?xml version="1.0" encoding="iso-8859-1"?>
<!-- Generator: Adobe Illustrator 14.0.0, SVG Export Plug-In . SVG Version: 6.00 Build 43363)  -->
<!DOCTYPE svg PUBLIC "-//W3C//DTD SVG 1.1//EN" "http://www.w3.org/Graphics/SVG/1.1/DTD/svg11.dtd">
<svg version="1.1" xmlns="http://www.w3.org/2000/svg" xmlns:xlink="http://www.w3.org/1999/xlink" x="0px" y="0px" width="512px"
	 height="512px" viewBox="0 0 512 512" style="enable-background:new 0 0 512 512;" xml:space="preserve">
<g id="battery-alert">
	<path d="M381.709,76.8H331.42V25.6c0-14.15-11.24-25.6-25.141-25.6H205.719C191.82,0,180.57,11.45,180.57,25.6v51.2h-50.281
		c-13.9,0-25.139,11.45-25.139,25.6v384.002c0,14.147,11.238,25.598,25.139,25.598h251.42c13.891,0,25.141-11.45,25.141-25.598
		V102.4C406.85,88.25,395.6,76.8,381.709,76.8z M205.719,25.6h100.561v51.2H205.719V25.6z M381.709,486.402h-251.42V102.4h251.42
		V486.402z M289.539,332.779l16.74-204.777H205.719l16.762,204.777H289.539z M278.959,153.6L266.4,307.175h-20.791L233.039,153.6
		H278.959z M256,460.8c27.789,0,50.279-22.925,50.279-51.2c0-28.27-22.49-51.199-50.279-51.199c-27.75,0-50.281,22.93-50.281,51.199
		C205.719,437.875,228.25,460.8,256,460.8z M256,384c13.859,0,25.139,11.475,25.139,25.6c0,14.13-11.279,25.6-25.139,25.6
		c-13.861,0-25.141-11.47-25.141-25.6C230.859,395.475,242.139,384,256,384z"/>
</g>
<g id="Layer_1">
</g>
</svg>
