<?xml version="1.0" encoding="iso-8859-1"?>
<!-- Generator: Adobe Illustrator 14.0.0, SVG Export Plug-In . SVG Version: 6.00 Build 43363)  -->
<!DOCTYPE svg PUBLIC "-//W3C//DTD SVG 1.1//EN" "http://www.w3.org/Graphics/SVG/1.1/DTD/svg11.dtd">
<svg version="1.1" xmlns="http://www.w3.org/2000/svg" xmlns:xlink="http://www.w3.org/1999/xlink" x="0px" y="0px" width="512px"
	 height="512px" viewBox="0 0 512 512" style="enable-background:new 0 0 512 512;" xml:space="preserve">
<g id="battery-low">
	<path d="M486.4,179.2h-51.2v-51.213c0-14.138-11.45-25.587-25.604-25.587H25.59C11.45,102.4,0,113.85,0,127.987V384
		c0,14.15,11.45,25.6,25.59,25.6h384.005c14.154,0,25.604-11.449,25.604-25.6v-51.2h51.2c14.15,0,25.6-11.45,25.6-25.6V204.792
		C512,190.65,500.551,179.2,486.4,179.2z M409.596,384H25.59V127.987h384.005V384z M486.4,307.2h-51.2V204.792h51.2V307.2z
		 M153.6,153.593H76.8V358.4h76.8V153.593z M128,332.8h-25.604V179.2H128V332.8z"/>
</g>
<g id="Layer_1">
</g>
</svg>
