<?xml version="1.0" encoding="iso-8859-1"?>
<!-- Generator: Adobe Illustrator 14.0.0, SVG Export Plug-In . SVG Version: 6.00 Build 43363)  -->
<!DOCTYPE svg PUBLIC "-//W3C//DTD SVG 1.1//EN" "http://www.w3.org/Graphics/SVG/1.1/DTD/svg11.dtd">
<svg version="1.1" xmlns="http://www.w3.org/2000/svg" xmlns:xlink="http://www.w3.org/1999/xlink" x="0px" y="0px" width="512px"
	 height="512px" viewBox="0 0 512 512" style="enable-background:new 0 0 512 512;" xml:space="preserve">
<g id="battery-horizontal">
	<path d="M486.4,179.203h-51.211v-51.195c0-14.152-11.439-25.607-25.6-25.607H25.6C11.45,102.4,0,113.855,0,128.007V384
		c0,14.15,11.45,25.6,25.6,25.6h383.99c14.16,0,25.6-11.449,25.6-25.6v-51.2H486.4c14.149,0,25.6-11.45,25.6-25.601V204.802
		C512,190.65,500.55,179.203,486.4,179.203z M409.59,384H25.6V128.007h383.99V384z M486.4,307.199h-51.211V204.802H486.4V307.199z
		 M217.6,270.63h-64l96-117.03l-32,87.78h63.995L185.6,358.4L217.6,270.63z"/>
</g>
<g id="Layer_1">
</g>
</svg>
