<?xml version="1.0" encoding="iso-8859-1"?>
<!-- Generator: Adobe Illustrator 14.0.0, SVG Export Plug-In . SVG Version: 6.00 Build 43363)  -->
<!DOCTYPE svg PUBLIC "-//W3C//DTD SVG 1.1//EN" "http://www.w3.org/Graphics/SVG/1.1/DTD/svg11.dtd">
<svg version="1.1" xmlns="http://www.w3.org/2000/svg" xmlns:xlink="http://www.w3.org/1999/xlink" x="0px" y="0px" width="512px"
	 height="512px" viewBox="0 0 512 512" style="enable-background:new 0 0 512 512;" xml:space="preserve">
<g id="battery-full">
	<path d="M486.41,179.2H435.2V128c0-14.15-11.455-25.6-25.595-25.6H25.6C11.45,102.4,0,113.85,0,128v256
		c0,14.15,11.45,25.6,25.6,25.6h384.005c14.14,0,25.595-11.449,25.595-25.6v-51.2h51.21c14.15,0,25.59-11.45,25.59-25.6V204.8
		C512,190.65,500.561,179.2,486.41,179.2z M409.605,384H25.6V128h384.005V384z M486.41,307.2H435.2V204.8h51.21V307.2z
		 M358.404,153.6h-76.799V358.4h76.799V153.6z M332.805,332.8h-25.6V179.2h25.6V332.8z M153.595,153.6h-76.79V358.4h76.79V153.6z
		 M128.005,332.8h-25.6V179.2h25.6V332.8z M256.005,153.6h-76.8V358.4h76.8V153.6z M230.405,332.8h-25.6V179.2h25.6V332.8z"/>
</g>
<g id="Layer_1">
</g>
</svg>
