<?xml version="1.0" encoding="iso-8859-1"?>
<!-- Generator: Adobe Illustrator 14.0.0, SVG Export Plug-In . SVG Version: 6.00 Build 43363)  -->
<!DOCTYPE svg PUBLIC "-//W3C//DTD SVG 1.1//EN" "http://www.w3.org/Graphics/SVG/1.1/DTD/svg11.dtd">
<svg version="1.1" xmlns="http://www.w3.org/2000/svg" xmlns:xlink="http://www.w3.org/1999/xlink" x="0px" y="0px" width="512px"
	 height="512px" viewBox="0 0 512 512" style="enable-background:new 0 0 512 512;" xml:space="preserve">
<g id="bulb">
	<path d="M435.2,179.2C435.2,80.225,354.976,0,256.001,0C157.021,0,76.8,80.225,76.8,179.2c0,60.875,30.4,114.55,76.801,146.95
		V460.8H204.8V512h102.396v-51.2H358.4l-0.005-134.65C404.8,293.75,435.2,240.075,435.2,179.2z M281.595,486.399H230.4v-25.6h51.194
		V486.399z M332.8,435.2H179.2V409.6h153.6V435.2z M332.8,384H179.2v-25.601h153.6V384z M332.8,312.8v20h-64v-97.1l73.051-73.05
		l-18.1-18.1l-67.75,67.75l-67.75-67.75l-18.101,18.1l73.05,73.05v97.1h-64v-20c0,0-76.8-40.555-76.8-133.6
		c0-84.7,68.899-153.6,153.601-153.6c84.699,0,153.594,68.9,153.594,153.6C409.595,271.625,332.8,312.8,332.8,312.8z"/>
</g>
<g id="Layer_1">
</g>
</svg>
