<?xml version="1.0" encoding="iso-8859-1"?>
<!-- Generator: Adobe Illustrator 14.0.0, SVG Export Plug-In . SVG Version: 6.00 Build 43363)  -->
<!DOCTYPE svg PUBLIC "-//W3C//DTD SVG 1.1//EN" "http://www.w3.org/Graphics/SVG/1.1/DTD/svg11.dtd">
<svg version="1.1" xmlns="http://www.w3.org/2000/svg" xmlns:xlink="http://www.w3.org/1999/xlink" x="0px" y="0px" width="512px"
	 height="512px" viewBox="0 0 512 512" style="enable-background:new 0 0 512 512;" xml:space="preserve">
<g id="battery-vertical">
	<path d="M179.2,435.199l76.8-128h-76.8l153.601-153.6l-76.8,128h76.8L179.2,435.199z M409.6,102.4v384
		c0,14.135-11.449,25.6-25.6,25.6H128c-14.15,0-25.6-11.465-25.6-25.6v-384c0-14.135,11.45-25.6,25.6-25.6h51.2V25.6
		c0-14.135,11.45-25.6,25.6-25.6h102.4c14.149,0,25.601,11.465,25.601,25.6v51.2H384C398.15,76.8,409.6,88.265,409.6,102.4z
		 M204.8,76.8h102.4V25.6H204.8V76.8z M384,102.4H128v384h256V102.4z"/>
</g>
<g id="Layer_1">
</g>
</svg>
