<?xml version="1.0" encoding="iso-8859-1"?>
<!-- Generator: Adobe Illustrator 14.0.0, SVG Export Plug-In . SVG Version: 6.00 Build 43363)  -->
<!DOCTYPE svg PUBLIC "-//W3C//DTD SVG 1.1//EN" "http://www.w3.org/Graphics/SVG/1.1/DTD/svg11.dtd">
<svg version="1.1" xmlns="http://www.w3.org/2000/svg" xmlns:xlink="http://www.w3.org/1999/xlink" x="0px" y="0px" width="512px"
	 height="512px" viewBox="0 0 512 512" style="enable-background:new 0 0 512 512;" xml:space="preserve">
<g id="battery-empty">
	<path d="M486.4,179.375h-51.205V128.29c0-14.125-11.445-25.555-25.6-25.555h-21.74l57.17-68.45l-19.65-16.365l-70.835,84.815H25.6
		c-14.145,0-25.6,11.43-25.6,25.555v255.431c0,14.125,11.455,25.55,25.6,25.55h72.945l-57.17,68.45l19.65,16.359l70.83-84.81h277.74
		c14.154,0,25.6-11.425,25.6-25.55v-51.086H486.4c14.15,0,25.6-11.42,25.6-25.539V204.915
		C512,190.795,500.551,179.375,486.4,179.375z M119.875,383.721H25.6V128.29h307.605L119.875,383.721z M409.596,383.721h-256.4
		l213.33-255.431h43.07V383.721z M486.4,307.096h-51.205V204.915H486.4V307.096z"/>
</g>
<g id="Layer_1">
</g>
</svg>
