<?xml version="1.0" encoding="iso-8859-1"?>
<!-- Generator: Adobe Illustrator 14.0.0, SVG Export Plug-In . SVG Version: 6.00 Build 43363)  -->
<!DOCTYPE svg PUBLIC "-//W3C//DTD SVG 1.1//EN" "http://www.w3.org/Graphics/SVG/1.1/DTD/svg11.dtd">
<svg version="1.1" xmlns="http://www.w3.org/2000/svg" xmlns:xlink="http://www.w3.org/1999/xlink" x="0px" y="0px" width="512px"
	 height="512px" viewBox="0 0 512 512" style="enable-background:new 0 0 512 512;" xml:space="preserve">
<g id="charger">
	<path d="M435.18,243.203c0-15.277,0-25.603-0.005-25.603h-51.195c-14.14,0-25.6,11.465-25.6,25.603v38.4H281.6
		c-22.14,0-64,13.378-64,64.005c0,50.623,41.86,63.995,64,63.995h51.125c6.426,0.077,38.475,2.268,38.475,38.397
		c0,36.145-32.049,38.33-38.399,38.402H128c-36.14,0-38.33-32.047-38.4-38.402V281.603h63.985l0.005-76.8h76.8V179.2H294.4
		c7.064,0,12.799-5.72,12.799-12.8c0-7.075-5.734-12.8-12.799-12.8H230.39v-51.198H294.4c7.064,0,12.799-5.722,12.799-12.802
		c0-7.07-5.734-12.797-12.799-12.797H230.39V51.2H153.6V0H51.2C22.92,0,0,22.925,0,51.2v230.402h64V448c0,22.141,13.37,64,64,64
		h204.8c22.14,0,64-13.369,64-64c0-50.619-41.86-63.997-64-63.997h-51.125c-6.425-0.073-38.475-2.258-38.475-38.396
		c0-36.143,32.05-38.327,38.4-38.404h76.78v38.404c0,14.138,11.46,25.596,25.6,25.596h51.195c0.005,0,0.005-10.318,0.005-25.596H512
		V243.203H435.18z M153.595,76.803h51.195V179.2h-51.2L153.595,76.803z M25.6,256.003V51.2c0-14.115,11.49-25.6,25.6-25.6H128
		l-0.015,230.403H25.6z M409.574,345.607h-25.595V243.203h25.595C409.59,271.59,409.59,317.215,409.574,345.607z M486.4,320.003
		h-51.216c0-4.173,0-8.463,0-12.8H460.8v-25.601h-25.615c0-4.343,0-8.628,0-12.8H486.4V320.003z"/>
</g>
<g id="Layer_1">
</g>
</svg>
