<?xml version="1.0" encoding="iso-8859-1"?>
<!-- Generator: Adobe Illustrator 14.0.0, SVG Export Plug-In . SVG Version: 6.00 Build 43363)  -->
<!DOCTYPE svg PUBLIC "-//W3C//DTD SVG 1.1//EN" "http://www.w3.org/Graphics/SVG/1.1/DTD/svg11.dtd">
<svg version="1.1" xmlns="http://www.w3.org/2000/svg" xmlns:xlink="http://www.w3.org/1999/xlink" x="0px" y="0px" width="512px"
	 height="512px" viewBox="0 0 512 512" style="enable-background:new 0 0 512 512;" xml:space="preserve">
<g id="car-battery">
	<path d="M460.799,128V76.8h-128.01V128h-153.6V76.8h-128V128H0v307.2h512V128H460.799z M358.389,102.388h76.811V128h-76.811
		V102.388z M76.789,102.388h76.801V128H76.789V102.388z M486.399,409.593H25.59v-256h460.81V409.593z M102.39,230.393H76.789V204.8
		h25.601v-25.607H128V204.8h25.59v25.593H128v25.6h-25.61V230.393z M435.199,230.393h-76.811V204.8h76.811V230.393z
		 M255.989,307.192h-51.2L281.6,204.8l-25.61,76.8h51.2l-76.801,102.393L255.989,307.192z"/>
</g>
<g id="Layer_1">
</g>
</svg>
