<?xml version="1.0" encoding="iso-8859-1"?>
<!-- Generator: Adobe Illustrator 14.0.0, SVG Export Plug-In . SVG Version: 6.00 Build 43363)  -->
<!DOCTYPE svg PUBLIC "-//W3C//DTD SVG 1.1//EN" "http://www.w3.org/Graphics/SVG/1.1/DTD/svg11.dtd">
<svg version="1.1" xmlns="http://www.w3.org/2000/svg" xmlns:xlink="http://www.w3.org/1999/xlink" x="0px" y="0px" width="512px"
	 height="512px" viewBox="0 0 512 512" style="enable-background:new 0 0 512 512;" xml:space="preserve">
<g id="car-adapter">
	<path d="M371.195,192c-4.49,0-8.791,0-12.801,0v-38.4L384,102.4V0H128v102.4l25.6,51.199V192c-4,0-8.31,0-12.795,0
		c-21.205,0-38.405,17.195-38.405,38.4V281.6c0,21.221,17.2,38.4,38.405,38.4c4.485,0,8.795,0,12.795,0v38.4l51.205,76.81H217.6
		v38.38c0,21.22,17.205,38.41,38.4,38.41c21.205,0,38.404-17.19,38.404-38.41v-38.38H307.2l51.194-76.81V320
		c4.01,0,8.311,0,12.801,0c21.199,0,38.404-17.18,38.404-38.4V230.4C409.6,209.195,392.395,192,371.195,192z M153.6,294.41h-12.795
		c-7.05,0-12.805-5.74-12.805-12.811V230.4c0-7.056,5.755-12.801,12.805-12.801H153.6V294.41z M268.805,473.59
		c0,7.05-5.755,12.8-12.805,12.8c-7.045,0-12.8-5.75-12.8-12.8v-38.38h25.604V473.59z M332.805,350.66L293.5,409.61h-75
		l-39.305-58.95V281.6h153.61V350.66z M332.805,256h-153.61V153.6h153.61V256z M342.575,128h-173.15L153.6,96.365V25.6h204.794
		v70.766L342.575,128z M384,281.6c0,7.07-5.75,12.811-12.805,12.811h-12.801V217.6h12.801c7.055,0,12.805,5.745,12.805,12.801V281.6
		z"/>
</g>
<g id="Layer_1">
</g>
</svg>
