<?xml version="1.0" encoding="iso-8859-1"?>
<!-- Generator: Adobe Illustrator 14.0.0, SVG Export Plug-In . SVG Version: 6.00 Build 43363)  -->
<!DOCTYPE svg PUBLIC "-//W3C//DTD SVG 1.1//EN" "http://www.w3.org/Graphics/SVG/1.1/DTD/svg11.dtd">
<svg version="1.1" xmlns="http://www.w3.org/2000/svg" xmlns:xlink="http://www.w3.org/1999/xlink" x="0px" y="0px" width="512px"
	 height="512px" viewBox="0 0 512 512" style="enable-background:new 0 0 512 512;" xml:space="preserve">
<g id="christmas-lights">
	<path d="M486.404,102.4c-14.375,0-37.049,5.631-51.2,23.455c-14.154-17.824-36.851-23.455-51.206-23.455h-76.795
		c-14.379,0-37.051,5.631-51.206,23.455c-14.145-17.824-36.845-23.455-51.194-23.455h-76.807c-14.375,0-37.046,5.631-51.195,23.455
		C62.65,108.031,39.949,102.4,25.6,102.4H0V128h25.6c3.391,0,29.926,0.83,36.78,25.6H25.6V230.4h9.76
		c-6.135,12.016-9.76,28.734-9.76,51.199c0,56.551,25.6,128,51.201,128c25.6,0,51.195-71.449,51.195-128
		c0-22.465-3.625-39.184-9.76-51.199h9.76V153.6H91.21c6.565-23.859,31.292-25.535,36.786-25.6h76.807
		c3.389,0,29.925,0.83,36.781,25.6h-36.781V230.4h9.76c-6.131,12.016-9.76,28.734-9.76,51.199c0,56.551,25.6,128,51.194,128
		c25.606,0,51.206-71.449,51.206-128c0-22.465-3.629-39.184-9.77-51.199h9.77V153.6h-36.785c6.555-23.859,31.291-25.535,36.785-25.6
		h76.795c3.396,0,29.927,0.83,36.781,25.6h-36.781V230.4h9.766c-6.135,12.016-9.766,28.734-9.766,51.199
		c0,56.551,25.606,128,51.206,128c25.601,0,51.2-71.449,51.2-128c0-22.465-3.629-39.184-9.764-51.199h9.764V153.6h-36.789
		c6.564-23.859,31.289-25.535,36.789-25.6H512v-25.6H486.404z M76.801,380.326c-10.674-14.65-25.602-56.57-25.602-98.727
		c0-51.199,19.271-51.199,25.602-51.199c6.326,0,25.6,0,25.6,51.199C102.4,323.756,87.471,365.676,76.801,380.326z M102.4,179.201
		v25.6H51.199v-25.6H102.4z M255.997,380.326c-10.674-14.65-25.595-56.57-25.595-98.727c0-51.199,19.275-51.199,25.595-51.199
		c6.33,0,25.606,0,25.606,51.199C281.604,323.756,266.678,365.676,255.997,380.326z M281.604,179.201v25.6h-51.201v-25.6H281.604z
		 M435.204,380.326c-10.68-14.65-25.6-56.57-25.6-98.727c0-51.199,19.271-51.199,25.6-51.199c6.32,0,25.601,0,25.601,51.199
		C460.805,323.756,445.875,365.676,435.204,380.326z M460.805,179.201v25.6h-51.2v-25.6H460.805z"/>
</g>
<g id="Layer_1">
</g>
</svg>
