<?xml version="1.0" encoding="iso-8859-1"?>
<!-- Generator: Adobe Illustrator 14.0.0, SVG Export Plug-In . SVG Version: 6.00 Build 43363)  -->
<!DOCTYPE svg PUBLIC "-//W3C//DTD SVG 1.1//EN" "http://www.w3.org/Graphics/SVG/1.1/DTD/svg11.dtd">
<svg version="1.1" xmlns="http://www.w3.org/2000/svg" xmlns:xlink="http://www.w3.org/1999/xlink" x="0px" y="0px" width="512px"
	 height="512px" viewBox="0 0 512 512" style="enable-background:new 0 0 512 512;" xml:space="preserve">
<g id="ceiling-light">
	<path d="M358.399,109.05L409.601,0H102.399l51.201,109.05c-46.4,32.4-76.826,86.08-76.826,146.94
		C76.774,354.975,157,435.2,256,435.2c98.95,0,179.2-80.226,179.2-179.21C435.2,195.13,404.8,141.45,358.399,109.05z M143.8,25.59
		h224.35l-25.6,58.47h-173.15L143.8,25.59z M256,409.6c-84.7,0-153.601-68.899-153.601-153.61c0-91.3,76.801-133.59,76.801-133.59
		v-13.35h63.975v90.45l-73.025,73.045l18.076,18.1L256,222.9l67.75,67.745l18.101-18.1L268.8,199.5v-90.45h64v13.35
		c0,0,76.801,41.27,76.801,133.59C409.601,340.7,340.7,409.6,256,409.6z M243.175,460.8H268.8V512h-25.625V460.8z M0,268.8h51.2
		v25.6H0V268.8z M512,268.8v25.6h-51.2v-25.6H512z M409.851,417.365l36.199,36.194l-18.1,18.105l-36.2-36.205L409.851,417.365z
		 M102.149,417.375l18.076,18.095L84,471.67l-18.101-18.1L102.149,417.375z"/>
</g>
<g id="Layer_1">
</g>
</svg>
