<?xml version="1.0" encoding="iso-8859-1"?>
<!-- Generator: Adobe Illustrator 14.0.0, SVG Export Plug-In . SVG Version: 6.00 Build 43363)  -->
<!DOCTYPE svg PUBLIC "-//W3C//DTD SVG 1.1//EN" "http://www.w3.org/Graphics/SVG/1.1/DTD/svg11.dtd">
<svg version="1.1" xmlns="http://www.w3.org/2000/svg" xmlns:xlink="http://www.w3.org/1999/xlink" x="0px" y="0px" width="512px"
	 height="512px" viewBox="0 0 512 512" style="enable-background:new 0 0 512 512;" xml:space="preserve">
<g id="desktop-lamp">
	<path d="M393.045,195.75l51.196,51.205L426.15,265.05l-51.21-51.2L393.045,195.75z M413.996,115.2v25.6H486.4v-25.6H413.996z
		 M294.396,307.2H320v-76.801h-25.604V307.2z M383.996,512l-204.795-0.025c0-33.935,16.515-63.99,41.945-82.62L99.125,327.67
		c-19.075,9.245-42.7,5.97-58.53-9.865c-19.995-19.995-19.995-52.415,0-72.41c14.9-14.899,36.71-18.689,55.13-11.375L179.69,129.08
		c2.655-32.03,16.23-63.325,40.73-87.83c54.97-54.995,144.125-55.005,199.125,0l-44.921,44.915
		c16.18,30.524,11.426,69.26-14.279,94.955c-28.455,28.439-68.105,28.545-94.985,14.29l-44.94,44.939
		c-20.66-20.66-33.555-46.145-38.685-72.835l-65.32,81.646c14.57,17.765,15.375,43.034,2.435,61.635L245.355,416.21
		c11.27-4.255,23.48-6.61,36.24-6.61C338.146,409.6,383.996,455.45,383.996,512z M355.476,105.314l-70.925,70.92
		c19.289,6.03,41.26,3.21,57.699-13.21C357.246,148.024,361.371,124.295,355.476,105.314z M222.44,202.125L381.34,43.255
		c-30.51-19.28-93.569-33.18-142.819,16.095C199.835,98.055,194.47,157.649,222.44,202.125z M94.9,263.5
		c-9.98-9.98-26.22-9.99-36.21,0c-9.985,9.979-9.975,26.225,0,36.205c9.98,9.975,26.22,9.984,36.21,0
		C104.891,289.72,104.88,273.475,94.9,263.5z M354.01,486.399c-10.559-29.8-39.039-51.199-72.414-51.199
		c-33.37,0-61.85,21.399-72.41,51.175L354.01,486.399z"/>
</g>
<g id="Layer_1">
</g>
</svg>
