<?xml version="1.0" encoding="iso-8859-1"?>
<!-- Generator: Adobe Illustrator 14.0.0, SVG Export Plug-In . SVG Version: 6.00 Build 43363)  -->
<!DOCTYPE svg PUBLIC "-//W3C//DTD SVG 1.1//EN" "http://www.w3.org/Graphics/SVG/1.1/DTD/svg11.dtd">
<svg version="1.1" xmlns="http://www.w3.org/2000/svg" xmlns:xlink="http://www.w3.org/1999/xlink" x="0px" y="0px" width="512px"
	 height="512px" viewBox="0 0 512 512" style="enable-background:new 0 0 512 512;" xml:space="preserve">
<g id="european-power-outlet">
	<path d="M486.4,102.4H25.6C11.45,102.4,0,113.86,0,128v256c0,14.135,11.45,25.6,25.6,25.6H486.4c14.149,0,25.6-11.465,25.6-25.6
		V128C512,113.86,500.55,102.4,486.4,102.4z M486.4,384H25.6V128H486.4V384z M256,358.4c56.55,0,102.4-45.851,102.4-102.4
		S312.55,153.6,256,153.6c-56.55,0-102.4,45.851-102.4,102.4S199.45,358.4,256,358.4z M243.2,180.285V204.8h25.6v-24.515
		c36.274,6.115,64,37.729,64,75.715c0,37.99-27.726,69.6-64,75.715V307.2h-25.6v24.515c-36.275-6.115-64-37.725-64-75.715
		C179.2,218.015,206.925,186.4,243.2,180.285z M204.8,256c0-7.075,5.725-12.8,12.8-12.8c7.075,0,12.8,5.725,12.8,12.8
		s-5.725,12.8-12.8,12.8C210.525,268.8,204.8,263.075,204.8,256z M281.6,256c0-7.075,5.73-12.8,12.801-12.8
		c7.074,0,12.799,5.725,12.799,12.8s-5.725,12.8-12.799,12.8C287.33,268.8,281.6,263.075,281.6,256z"/>
</g>
<g id="Layer_1">
</g>
</svg>
