<?xml version="1.0" encoding="iso-8859-1"?>
<!-- Generator: Adobe Illustrator 14.0.0, SVG Export Plug-In . SVG Version: 6.00 Build 43363)  -->
<!DOCTYPE svg PUBLIC "-//W3C//DTD SVG 1.1//EN" "http://www.w3.org/Graphics/SVG/1.1/DTD/svg11.dtd">
<svg version="1.1" xmlns="http://www.w3.org/2000/svg" xmlns:xlink="http://www.w3.org/1999/xlink" x="0px" y="0px" width="512px"
	 height="512px" viewBox="0 0 512 512" style="enable-background:new 0 0 512 512;" xml:space="preserve">
<g id="european-plug">
	<path d="M398.629,199.11V42.662C398.629,19.1,379.459,0,355.84,0c-23.621,0-42.791,19.1-42.791,42.662V199.11H198.939V42.662
		C198.939,19.1,179.779,0,156.16,0c-23.621,0-42.791,19.1-42.791,42.662V199.11H56.32v142.217L141.895,512h228.215l85.57-170.673
		V199.11H398.629z M341.574,42.662c0-7.847,6.404-14.22,14.266-14.22c7.859,0,14.27,6.373,14.27,14.22V199.11h-28.535V42.662z
		 M141.895,42.662c0-7.847,6.404-14.22,14.266-14.22c7.859,0,14.26,6.373,14.26,14.22V199.11h-28.525V42.662z M427.154,334.615
		L352.469,483.55H159.529L84.84,334.615V227.553h342.314V334.615z"/>
</g>
<g id="Layer_1">
</g>
</svg>
