<?xml version="1.0" encoding="iso-8859-1"?>
<!-- Generator: Adobe Illustrator 14.0.0, SVG Export Plug-In . SVG Version: 6.00 Build 43363)  -->
<!DOCTYPE svg PUBLIC "-//W3C//DTD SVG 1.1//EN" "http://www.w3.org/Graphics/SVG/1.1/DTD/svg11.dtd">
<svg version="1.1" xmlns="http://www.w3.org/2000/svg" xmlns:xlink="http://www.w3.org/1999/xlink" x="0px" y="0px" width="512px"
	 height="512px" viewBox="0 0 512 512" style="enable-background:new 0 0 512 512;" xml:space="preserve">
<g id="european-power-extension">
	<path d="M192,281.6c0,7.076-5.75,12.801-12.8,12.801c-7.1,0-12.801-5.725-12.801-12.801c0-7.074,5.701-12.799,12.801-12.799
		C186.25,268.801,192,274.525,192,281.6z M128,268.801c-7.11,0-12.81,5.725-12.81,12.799c0,7.076,5.699,12.801,12.81,12.801
		c7.05,0,12.8-5.725,12.8-12.801C140.8,274.525,135.05,268.801,128,268.801z M76.79,179.203V128c0-14.15,11.449-25.6,25.609-25.6
		h102.4c14.15,0,25.6,11.45,25.6,25.6v51.203c0,14.147-11.449,25.598-25.6,25.598h-102.4C88.239,204.8,76.79,193.35,76.79,179.203z
		 M102.399,179.203h102.4V128h-102.4V179.203z M128,140.8c-7.11,0-12.81,5.725-12.81,12.8c0,7.075,5.699,12.8,12.81,12.8
		c7.05,0,12.8-5.725,12.8-12.8C140.8,146.525,135.05,140.8,128,140.8z M76.79,307.2V256c0-14.15,11.449-25.6,25.609-25.6h102.4
		c14.15,0,25.6,11.45,25.6,25.6v51.2c0,14.149-11.449,25.601-25.6,25.601h-102.4C88.239,332.801,76.79,321.35,76.79,307.2z
		 M102.399,307.2h102.4V256h-102.4V307.2z M179.2,140.8c-7.1,0-12.801,5.725-12.801,12.8c0,7.075,5.701,12.8,12.801,12.8
		c7.05,0,12.8-5.725,12.8-12.8C192,146.525,186.25,140.8,179.2,140.8z M179.2,396.801c-7.1,0-12.801,5.725-12.801,12.799
		c0,7.076,5.701,12.801,12.801,12.801c7.05,0,12.8-5.725,12.8-12.801C192,402.525,186.25,396.801,179.2,396.801z M486.399,153.6v64
		c0,30.965-21.99,56.791-51.199,62.712V448c0,22.12-13.4,64-64,64c-50.65,0-64-41.88-64-64V51.203c0-25.603-25.7-25.603-25.7-25.603
		H179.2c-10.301,0-12.65,7.055-12.801,12.95v12.652H256c14.149,0,25.601,11.453,25.601,25.598v409.6
		c0,14.15-11.451,25.6-25.601,25.6H51.19c-14.141,0-25.59-11.449-25.59-25.6V76.8c0-14.145,11.449-25.598,25.59-25.598H140.8v-12.8
		C140.8,22.975,151,0,179.2,0h102.4c0,0,51.199,0.575,51.199,51.203V448c0.051,6.35,2.25,38.4,38.4,38.4
		c36.1,0,38.289-32.051,38.4-38.48V280.313c-29.221-5.922-51.201-31.747-51.201-62.712v-64h25.59v-51.2
		c0-7.075,5.711-12.8,12.811-12.8c7.051,0,12.801,5.725,12.801,12.8v51.2h25.6v-51.2c0-7.075,5.699-12.8,12.8-12.8
		c7.05,0,12.8,5.725,12.8,12.8v51.2H486.399z M51.19,76.8v409.6H256V76.8H51.19z M460.8,179.203h-76.811V217.6
		c0,21.175,17.211,38.4,38.41,38.4c21.15,0,38.4-17.225,38.4-38.4V179.203z M76.79,435.2V384c0-14.15,11.449-25.6,25.609-25.6h102.4
		c14.15,0,25.6,11.449,25.6,25.6v51.2c0,14.149-11.449,25.601-25.6,25.601h-102.4C88.239,460.801,76.79,449.35,76.79,435.2z
		 M102.399,435.2h102.4V384h-102.4V435.2z M128,396.801c-7.11,0-12.81,5.725-12.81,12.799c0,7.076,5.699,12.801,12.81,12.801
		c7.05,0,12.8-5.725,12.8-12.801C140.8,402.525,135.05,396.801,128,396.801z"/>
</g>
<g id="Layer_1">
</g>
</svg>
