<?xml version="1.0" encoding="iso-8859-1"?>
<!-- Generator: Adobe Illustrator 14.0.0, SVG Export Plug-In . SVG Version: 6.00 Build 43363)  -->
<!DOCTYPE svg PUBLIC "-//W3C//DTD SVG 1.1//EN" "http://www.w3.org/Graphics/SVG/1.1/DTD/svg11.dtd">
<svg version="1.1" xmlns="http://www.w3.org/2000/svg" xmlns:xlink="http://www.w3.org/1999/xlink" x="0px" y="0px" width="512px"
	 height="512px" viewBox="0 0 512 512" style="enable-background:new 0 0 512 512;" xml:space="preserve">
<g id="flash-off">
	<path d="M334.655,316.515l74.984-111.712H273.6L308.68,0L191.99,173.83L82.1,63.955L64,82.05l113.45,113.44l-74.98,111.709h136.035
		L203.439,512L320.12,338.175l109.779,109.76L448,429.84L334.655,316.515z M263.26,113.604l-14.88,86.87l-4.35,25.4l-33.591-33.585
		L263.26,113.604z M150.49,281.6l45.41-67.655L263.55,281.6H150.49z M248.86,398.4l14.869-86.871l4.351-25.399l33.59,33.59
		L248.86,398.4z M316.21,298.06l-67.66-67.657h25.05h88.021L316.21,298.06z"/>
</g>
<g id="Layer_1">
</g>
</svg>
