<?xml version="1.0" encoding="iso-8859-1"?>
<!-- Generator: Adobe Illustrator 14.0.0, SVG Export Plug-In . SVG Version: 6.00 Build 43363)  -->
<!DOCTYPE svg PUBLIC "-//W3C//DTD SVG 1.1//EN" "http://www.w3.org/Graphics/SVG/1.1/DTD/svg11.dtd">
<svg version="1.1" xmlns="http://www.w3.org/2000/svg" xmlns:xlink="http://www.w3.org/1999/xlink" x="0px" y="0px" width="512px"
	 height="512px" viewBox="0 0 512 512" style="enable-background:new 0 0 512 512;" xml:space="preserve">
<g id="green-energy">
	<path d="M256,0C157.05,0,76.8,80.229,76.8,179.2c0,60.88,30.4,114.55,76.8,146.949V460.8h51.2V512h102.4v-51.2h51.2v-134.65
		C404.8,293.75,435.2,240.08,435.2,179.2C435.2,80.229,355,0,256,0z M281.6,486.399H230.4v-25.6H281.6V486.399z M332.8,435.2H179.2
		V409.6h153.6V435.2z M332.8,384H179.2v-25.601h153.6V384z M243.2,128v151.359c-22.48-5.96-64-25.279-64-74.56
		c0-43.721,46.55-93.95,76.8-120.5c30.25,26.55,76.8,76.779,76.8,120.5c0,49.28-41.52,68.6-64,74.56V128H243.2z M332.8,312.8v20h-64
		v-27.06c32.07-6.36,89.601-34.471,89.601-100.94C358.4,128,256,51.2,256,51.2S153.6,128,153.6,204.8
		c0,66.47,57.53,94.58,89.601,100.94v27.06h-64v-20c0,0-76.8-40.01-76.8-133.6C102.4,94.5,171.3,25.6,256,25.6
		S409.6,94.5,409.6,179.2C409.6,272.189,332.8,312.8,332.8,312.8z"/>
</g>
<g id="Layer_1">
</g>
</svg>
