<?xml version="1.0" encoding="iso-8859-1"?>
<!-- Generator: Adobe Illustrator 14.0.0, SVG Export Plug-In . SVG Version: 6.00 Build 43363)  -->
<!DOCTYPE svg PUBLIC "-//W3C//DTD SVG 1.1//EN" "http://www.w3.org/Graphics/SVG/1.1/DTD/svg11.dtd">
<svg version="1.1" xmlns="http://www.w3.org/2000/svg" xmlns:xlink="http://www.w3.org/1999/xlink" x="0px" y="0px" width="512px"
	 height="512px" viewBox="0 0 512 512" style="enable-background:new 0 0 512 512;" xml:space="preserve">
<g id="italian-power-outlet">
	<path d="M486.4,102.4H25.6C11.45,102.4,0,113.86,0,128v256c0,14.135,11.45,25.6,25.6,25.6h460.8c14.149,0,25.6-11.465,25.6-25.6
		V128C512,113.86,500.55,102.4,486.4,102.4z M486.4,384H25.6V128h460.8V384z M409.6,179.2H102.4v153.6H409.6V179.2z M384,307.2H128
		V204.8h256V307.2z M166.4,256c0-7.075,5.72-12.8,12.8-12.8c7.075,0,12.8,5.725,12.8,12.8s-5.725,12.8-12.8,12.8
		C172.12,268.8,166.4,263.075,166.4,256z M320,256c0-7.075,5.721-12.8,12.8-12.8c7.07,0,12.8,5.725,12.8,12.8s-5.729,12.8-12.8,12.8
		C325.721,268.8,320,263.075,320,256z M243.2,256c0-7.075,5.72-12.8,12.8-12.8c7.07,0,12.8,5.725,12.8,12.8s-5.729,12.8-12.8,12.8
		C248.92,268.8,243.2,263.075,243.2,256z"/>
</g>
<g id="Layer_1">
</g>
</svg>
