<?xml version="1.0" encoding="iso-8859-1"?>
<!-- Generator: Adobe Illustrator 14.0.0, SVG Export Plug-In . SVG Version: 6.00 Build 43363)  -->
<!DOCTYPE svg PUBLIC "-//W3C//DTD SVG 1.1//EN" "http://www.w3.org/Graphics/SVG/1.1/DTD/svg11.dtd">
<svg version="1.1" xmlns="http://www.w3.org/2000/svg" xmlns:xlink="http://www.w3.org/1999/xlink" x="0px" y="0px" width="512px"
	 height="512px" viewBox="0 0 512 512" style="enable-background:new 0 0 512 512;" xml:space="preserve">
<g id="lamp">
	<path d="M384,384c0-51.2-51.201-76.8-51.201-76.8V281.6H486.4L409.6,0H102.4L25.6,281.6H64v80.25
		c-7.645,4.425-12.8,12.67-12.8,22.15c0,14.154,11.45,25.6,25.6,25.6c14.15,0,25.601-11.445,25.601-25.6
		c0-9.48-5.155-17.726-12.8-22.15V281.6h89.6V307.2c0,0-51.2,25.6-51.2,76.8c0,41.88,20.105,79.05,51.19,102.399H166.4
		c-7.075,0-12.8,5.726-12.8,12.801c0,7.079,5.725,12.8,12.8,12.8h179.2c7.07,0,12.801-5.721,12.801-12.8
		c0-7.075-5.73-12.801-12.801-12.801h-12.789C363.895,463.05,384,425.88,384,384z M121.95,25.6h268.099L431.939,179.2H80.06
		L121.95,25.6z M59.11,256l13.97-51.2h365.84l13.965,51.2H59.11z M256,486.399C199.535,486.399,153.6,440.45,153.6,384
		c0-34.351,36.029-54.775,51.199-60.976V281.6h102.4l0.16,41.28c16.746,7.31,51.041,26.77,51.041,61.12
		C358.4,440.45,312.459,486.399,256,486.399z"/>
</g>
<g id="Layer_1">
</g>
</svg>
