<?xml version="1.0" encoding="iso-8859-1"?>
<!-- Generator: Adobe Illustrator 14.0.0, SVG Export Plug-In . SVG Version: 6.00 Build 43363)  -->
<!DOCTYPE svg PUBLIC "-//W3C//DTD SVG 1.1//EN" "http://www.w3.org/Graphics/SVG/1.1/DTD/svg11.dtd">
<svg version="1.1" xmlns="http://www.w3.org/2000/svg" xmlns:xlink="http://www.w3.org/1999/xlink" x="0px" y="0px" width="512px"
	 height="512px" viewBox="0 0 512 512" style="enable-background:new 0 0 512 512;" xml:space="preserve">
<g id="led-light">
	<path d="M409.6,283.8V153.6C409.6,68.774,340.83,0,256,0c-84.82,0-153.6,68.774-153.6,153.6v130.2
		c-14.905,5.27-25.6,19.495-25.6,36.2c0,21.2,17.2,38.399,38.4,38.399h38.4V512h25.6V358.399h153.6V512H358.4V358.399h38.404
		c21.225,0,38.396-17.199,38.396-38.399C435.2,303.29,424.52,289.069,409.6,283.8z M128,153.6c0-70.57,57.43-128,128-128
		c70.58,0,128,57.43,128,128v128H268.8v-71.495l47.45-47.45l-18.1-18.1L256,186.7l-42.15-42.146l-18.095,18.1l47.445,47.45V281.6
		H128V153.6z M396.805,332.8H115.2c-7.05,0-12.8-5.75-12.8-12.8s5.75-12.8,12.8-12.8h281.604c7.045,0,12.795,5.75,12.795,12.8
		S403.85,332.8,396.805,332.8z"/>
</g>
<g id="Layer_1">
</g>
</svg>
