<?xml version="1.0" encoding="iso-8859-1"?>
<!-- Generator: Adobe Illustrator 14.0.0, SVG Export Plug-In . SVG Version: 6.00 Build 43363)  -->
<!DOCTYPE svg PUBLIC "-//W3C//DTD SVG 1.1//EN" "http://www.w3.org/Graphics/SVG/1.1/DTD/svg11.dtd">
<svg version="1.1" xmlns="http://www.w3.org/2000/svg" xmlns:xlink="http://www.w3.org/1999/xlink" x="0px" y="0px" width="512px"
	 height="512px" viewBox="0 0 512 512" style="enable-background:new 0 0 512 512;" xml:space="preserve">
<g id="magnet">
	<path d="M256.515,153.6H512V0H256.515C114.855,0,0,114.604,0,256c0,141.38,114.855,256,256.515,256H512V358.399H256.515
		C200.7,358.399,155.46,311.7,155.46,256C155.46,200.305,200.7,153.6,256.515,153.6z M410.42,25.6h75.93V128h-75.93V25.6z
		 M410.42,384h75.93v102.399h-75.93V384z M129.805,256c0,70.58,56.84,128,126.71,128h128.25v102.399h-128.25
		c-127.29,0-230.859-103.345-230.859-230.399c0-127.05,103.569-230.4,230.859-230.4h128.25V128h-128.25
		C186.645,128,129.805,185.43,129.805,256z"/>
</g>
<g id="Layer_1">
</g>
</svg>
