<?xml version="1.0" encoding="iso-8859-1"?>
<!-- Generator: Adobe Illustrator 14.0.0, SVG Export Plug-In . SVG Version: 6.00 Build 43363)  -->
<!DOCTYPE svg PUBLIC "-//W3C//DTD SVG 1.1//EN" "http://www.w3.org/Graphics/SVG/1.1/DTD/svg11.dtd">
<svg version="1.1" xmlns="http://www.w3.org/2000/svg" xmlns:xlink="http://www.w3.org/1999/xlink" x="0px" y="0px" width="512px"
	 height="512px" viewBox="0 0 512 512" style="enable-background:new 0 0 512 512;" xml:space="preserve">
<g id="narrow-bulb">
	<path d="M256,0c-70.699,0-127.996,142.901-127.996,256c0,44.998,10.199,78.352,25.595,102.401v102.397h51.2V512h102.402v-51.201
		h51.2V358.401h1.022c15.397-24.05,24.572-57.403,24.572-102.401C383.996,142.901,326.699,0,256,0z M281.596,486.399h-51.19v-25.601
		h51.19V486.399z M332.797,435.198h-25.596H204.799h-25.596v-25.601h153.594V435.198z M332.797,383.998H179.203v-25.597h153.594
		V383.998z M344.32,332.802h-75.523v-71.501l47.451-47.45l-18.104-18.104L256,237.902l-42.153-42.155l-18.095,18.104l47.451,47.45
		v71.501h-74.602c-9.949-20.677-15.003-46.427-15.003-76.802c0-107.663,54.55-230.399,102.401-230.399
		c47.85,0,102.401,122.737,102.401,230.399C358.401,287.026,353.679,312.777,344.32,332.802z"/>
</g>
<g id="Layer_1">
</g>
</svg>
