<?xml version="1.0" encoding="iso-8859-1"?>
<!-- Generator: Adobe Illustrator 14.0.0, SVG Export Plug-In . SVG Version: 6.00 Build 43363)  -->
<!DOCTYPE svg PUBLIC "-//W3C//DTD SVG 1.1//EN" "http://www.w3.org/Graphics/SVG/1.1/DTD/svg11.dtd">
<svg version="1.1" xmlns="http://www.w3.org/2000/svg" xmlns:xlink="http://www.w3.org/1999/xlink" x="0px" y="0px" width="512px"
	 height="512px" viewBox="0 0 512 512" style="enable-background:new 0 0 512 512;" xml:space="preserve">
<g id="solar-energy">
	<path d="M499.199,243.2h-90.135c-2.71-32.801-15.715-62.681-35.785-86.381l63.771-63.744c5-5.005,4.95-13.101,0-18.096
		c-5-5.01-13.105-5.01-18.155,0l-63.71,63.735c-23.71-20.07-53.58-33.075-86.39-35.775V12.8c0-7.075-5.75-12.8-12.8-12.8
		c-7.051,0-12.801,5.725-12.801,12.8v90.14c-32.8,2.7-62.675,15.705-86.38,35.775l-63.72-63.735c-5-5.01-13.15-4.979-18.1,0
		C70,79.975,70,88.07,74.995,93.075l63.72,63.739c-20.07,23.705-33.08,53.575-35.78,86.386H12.8C5.739,243.2,0,248.95,0,256
		s5.739,12.8,12.8,12.8h90.135c2.7,32.805,15.71,62.68,35.78,86.39l-63.72,63.735c-4.995,5-4.995,13.1,0,18.1
		c5,4.995,13.1,4.995,18.1,0l63.72-63.739c23.705,20.064,53.58,33.074,86.38,35.779V499.2c0,7.074,5.75,12.8,12.801,12.8
		c7.05,0,12.8-5.726,12.8-12.8v-90.136c32.81-2.705,62.68-15.715,86.39-35.779l63.71,63.739c5.05,4.995,13.105,4.995,18.155,0
		c4.95-5,5-13.1,0-18.1l-63.771-63.745c20.07-23.705,33.075-53.575,35.785-86.38h90.135C506.3,268.8,512,263.075,512,256
		C512,248.95,506.3,243.2,499.199,243.2z M240.995,332.8l-36.2-36.2V256h102.399v40.6l-36.199,36.2H240.995z M268.795,383.359
		v-24.96h12.8l51.2-51.199v-76.801h-25.601V179.2c0-7.075-5.72-12.801-12.795-12.801c-7.08,0-12.805,5.726-12.805,12.801v51.199
		h-51.2V179.2c0-7.075-5.725-12.801-12.8-12.801c-7.07,0-12.8,5.726-12.8,12.801v51.199h-25.601V307.2l51.2,51.199h12.8v24.96
		c-64.59-6.444-115.199-61.104-115.199-127.359c0-70.575,57.425-128,128-128c70.574,0,128,57.425,128,128
		C383.995,322.255,333.385,376.915,268.795,383.359z"/>
</g>
<g id="Layer_1">
</g>
</svg>
