<?xml version="1.0" encoding="iso-8859-1"?>
<!-- Generator: Adobe Illustrator 14.0.0, SVG Export Plug-In . SVG Version: 6.00 Build 43363)  -->
<!DOCTYPE svg PUBLIC "-//W3C//DTD SVG 1.1//EN" "http://www.w3.org/Graphics/SVG/1.1/DTD/svg11.dtd">
<svg version="1.1" xmlns="http://www.w3.org/2000/svg" xmlns:xlink="http://www.w3.org/1999/xlink" x="0px" y="0px" width="512px"
	 height="512px" viewBox="0 0 512 512" style="enable-background:new 0 0 512 512;" xml:space="preserve">
<g id="solar-panel">
	<path d="M140.8,140.8h39.48c1.96,11.67,6.55,22.435,13.13,31.685l-27.91,27.915c-5.005,5-5.005,13.101,0,18.105
		c5,4.995,13.09,4.995,18.101,0l27.909-27.92c9.25,6.595,20.021,11.175,31.69,13.135v39.48c0,7.079,5.72,12.8,12.8,12.8
		c7.07,0,12.8-5.721,12.8-12.8v-39.48c11.66-1.96,22.431-6.54,31.681-13.135l27.92,27.92c5,4.995,13.1,4.995,18.1,0
		c4.995-5.005,4.995-13.105,0-18.105l-27.92-27.915c6.59-9.25,11.18-20.02,13.13-31.685h39.49c7.07,0,12.8-5.72,12.8-12.8
		c0-7.07-5.729-12.8-12.8-12.8h-39.49c-1.95-11.665-6.54-22.431-13.13-31.681l27.92-27.915c4.995-5.005,4.995-13.104,0-18.104
		c-5-5-13.1-5-18.1,0l-27.92,27.915c-9.25-6.585-20.021-11.17-31.681-13.13V12.8C268.8,5.72,263.07,0,256,0
		c-7.08,0-12.8,5.72-12.8,12.8v39.485c-11.67,1.96-22.44,6.545-31.69,13.13L183.601,37.5c-5.011-5-13.101-5-18.101,0
		c-5.005,5-5.005,13.1,0,18.104l27.91,27.915c-6.58,9.25-11.17,20.016-13.13,31.681H140.8c-7.079,0-12.8,5.729-12.8,12.8
		C128,135.08,133.721,140.8,140.8,140.8z M256,76.8c28.221,0,51.195,22.979,51.195,51.2c0,28.225-22.975,51.2-51.195,51.2
		c-28.229,0-51.205-22.976-51.205-51.2C204.795,99.779,227.771,76.8,256,76.8z M460.795,277.33h-409.6L0,512h512L460.795,277.33z
		 M227.74,302.93h57.53l1.39,32h-60.47L227.74,302.93z M224.95,360.529h62.83l1.95,44.801h-66.95L224.95,360.529z M93.181,486.399
		h-61.38l12.1-55.47h57.345L93.181,486.399z M104.971,405.33H49.48l9.78-44.801h52.229L104.971,405.33z M64.84,334.93l6.98-32h48.05
		l-4.66,32H64.84z M193.23,486.399H119.05l8.03-55.47h68.845L193.23,486.399z M197.17,405.33h-66.385l6.485-44.801h62.075
		L197.17,405.33z M200.58,334.93h-59.6l4.635-32h56.525L200.58,334.93z M218.84,486.399l2.695-55.47h69.315l2.43,55.47H218.84z
		 M309.851,302.93h56.385l4.655,32H311.4L309.851,302.93z M312.646,360.529h61.975l6.515,44.801H314.82L312.646,360.529z
		 M318.76,486.399l-2.694-55.47h68.79l8.075,55.47H318.76z M391.98,302.93h48.189l6.98,32h-50.49L391.98,302.93z M400.4,360.529
		h52.34l9.77,44.801h-55.56L400.4,360.529z M410.69,430.93h57.399l12.11,55.47h-61.4L410.69,430.93z"/>
</g>
<g id="Layer_1">
</g>
</svg>
