<?xml version="1.0" encoding="iso-8859-1"?>
<!-- Generator: Adobe Illustrator 14.0.0, SVG Export Plug-In . SVG Version: 6.00 Build 43363)  -->
<!DOCTYPE svg PUBLIC "-//W3C//DTD SVG 1.1//EN" "http://www.w3.org/Graphics/SVG/1.1/DTD/svg11.dtd">
<svg version="1.1" xmlns="http://www.w3.org/2000/svg" xmlns:xlink="http://www.w3.org/1999/xlink" x="0px" y="0px" width="512px"
	 height="512px" viewBox="0 0 512 512" style="enable-background:new 0 0 512 512;" xml:space="preserve">
<g id="switch">
	<path d="M409.6,0H102.395C88.249,0,76.8,11.45,76.8,25.6v460.8C76.8,500.55,88.249,512,102.395,512H409.6
		c14.14,0,25.601-11.45,25.601-25.601V25.6C435.2,11.45,423.739,0,409.6,0z M409.6,486.399H102.395V25.6H409.6V486.399z
		 M204.8,409.6h102.395c14.15,0,25.605-11.45,25.605-25.6V281.6l51.199-128L332.8,102.4h-128c-14.15,0-25.605,11.45-25.605,25.6v256
		C179.194,398.149,190.649,409.6,204.8,409.6z M315.47,256h-98.475l35.854-89.6h98.45L315.47,256z M322.194,128l12.795,12.8h-81.185
		l-12.81-12.8H322.194z M204.8,128l25.595,25.6L204.8,217.59V128z M204.8,281.6h102.395V384H204.8V281.6z M243.194,64
		c0-7.07,5.726-12.8,12.801-12.8c7.074,0,12.8,5.73,12.8,12.8c0,7.075-5.726,12.8-12.8,12.8C248.92,76.8,243.194,71.075,243.194,64z
		 M268.795,448c0,7.075-5.726,12.79-12.8,12.79c-7.075,0-12.801-5.715-12.801-12.79c0-7.08,5.726-12.8,12.801-12.8
		C263.069,435.2,268.795,440.92,268.795,448z"/>
</g>
<g id="Layer_1">
</g>
</svg>
