<?xml version="1.0" encoding="iso-8859-1"?>
<!-- Generator: Adobe Illustrator 14.0.0, SVG Export Plug-In . SVG Version: 6.00 Build 43363)  -->
<!DOCTYPE svg PUBLIC "-//W3C//DTD SVG 1.1//EN" "http://www.w3.org/Graphics/SVG/1.1/DTD/svg11.dtd">
<svg version="1.1" xmlns="http://www.w3.org/2000/svg" xmlns:xlink="http://www.w3.org/1999/xlink" x="0px" y="0px" width="512px"
	 height="512px" viewBox="0 0 512 512" style="enable-background:new 0 0 512 512;" xml:space="preserve">
<g id="sun-energy">
	<path d="M499.201,243.2h-90.141c-2.699-32.801-15.71-62.681-35.775-86.381l63.766-63.744c5-5.005,4.949-13.101,0-18.096
		c-5-5.01-13.105-5.01-18.154,0l-63.716,63.735c-23.705-20.07-53.58-33.075-86.38-35.775V12.8C268.801,5.725,263.045,0,256,0
		c-7.055,0-12.799,5.725-12.799,12.8v90.14c-32.811,2.7-62.68,15.705-86.391,35.775L93.102,74.979c-5.006-5.01-13.15-4.979-18.105,0
		c-5,4.995-5,13.091,0,18.096l63.72,63.739c-20.069,23.705-33.075,53.575-35.785,86.386h-90.13C5.75,243.2,0,248.95,0,256
		s5.75,12.8,12.801,12.8h90.13c2.71,32.805,15.716,62.68,35.785,86.39l-63.72,63.735c-5,5-5,13.1,0,18.1
		c5.004,4.995,13.1,4.995,18.105,0l63.709-63.739c23.711,20.064,53.58,33.074,86.391,35.779V499.2c0,7.074,5.744,12.8,12.799,12.8
		c7.045,0,12.801-5.726,12.801-12.8v-90.136c32.8-2.705,62.675-15.715,86.38-35.779l63.716,63.739
		c5.049,4.995,13.104,4.995,18.154,0c4.949-5,5-13.1,0-18.1l-63.766-63.745c20.065-23.705,33.076-53.575,35.775-86.38h90.141
		c7.1,0,12.799-5.725,12.799-12.8C512,248.95,506.301,243.2,499.201,243.2z M256,384c-70.574,0-128-57.425-128-128
		s57.426-128,128-128c70.57,0,128,57.425,128,128S326.57,384,256,384z M256,241.375h63.996l-96,117.024L256,270.625h-64.004
		l96-117.025L256,241.375z"/>
</g>
<g id="Layer_1">
</g>
</svg>
