<?xml version="1.0" encoding="iso-8859-1"?>
<!-- Generator: Adobe Illustrator 14.0.0, SVG Export Plug-In . SVG Version: 6.00 Build 43363)  -->
<!DOCTYPE svg PUBLIC "-//W3C//DTD SVG 1.1//EN" "http://www.w3.org/Graphics/SVG/1.1/DTD/svg11.dtd">
<svg version="1.1" xmlns="http://www.w3.org/2000/svg" xmlns:xlink="http://www.w3.org/1999/xlink" x="0px" y="0px" width="512px"
	 height="512px" viewBox="0 0 512 512" style="enable-background:new 0 0 512 512;" xml:space="preserve">
<g id="save-energy">
	<path d="M486.4,179.345V0.4H409.6v9.26C385.121,0,358.4,0,358.4,0H256C204.805,0,67.131,135.385,67.131,135.385
		c-17.201,12.415-21.076,36.435-8.65,53.65C69.76,204.62,93.791,210.92,112.1,197.68l92.705-69.575c0,3.48,0.246,6.8,0.695,9.965
		c-45.574,19.61-77.494,64.925-77.494,117.72c0,29.64,10.064,56.92,26.959,78.63c-19.895,2.729-38.504,8.229-52.559,13.26v-15.025
		H25.6V511.6h76.807v-9.255C126.891,512,153.605,512,153.605,512H256c51.201,0,188.881-135.38,188.881-135.38
		c17.195-12.42,21.08-36.44,8.65-53.65c-11.275-15.59-35.316-21.885-53.631-8.649l-92.699,69.579c0-3.62-0.262-7.079-0.75-10.37
		C352.051,353.93,384,308.604,384,255.79c0-29.465-9.949-56.605-26.66-78.25c19.785-2.75,38.281-8.215,52.26-13.22v15.025H486.4z
		 M435.201,25.615h25.6v126.88h-25.6V25.615z M76.801,486.385h-25.6V359.51h25.6V486.385z M153.605,255.79
		c0-41.965,25.35-78.11,61.516-93.936c8.785,11.23,22.834,17.49,40.879,17.49c0,0,4.6,0,11.561,0l-62.756,93.545h45.352
		l-10.246,59.765c-15.465,0-38.369,0-51.529,0C167.08,313.87,153.605,286.38,153.605,255.79z M414.9,335.09
		c4.9-3.505,13.805-2.805,17.85,2.87c4.15,5.729,2.85,13.75-2.85,17.89C366.98,417.685,280.361,486.385,256,486.385H153.68
		c-9.08-0.05-34.85-2.58-51.273-12.395v-98.92c17.145-6.801,47.398-16.791,76.795-16.791H256c25.6,0,25.6,25.62,25.6,25.62
		s0,25.63-25.6,25.63h-76.799v25.615c0,0,76.799,0,102.398,0L414.9,335.09z M358.4,255.79c0,42.064-25.465,78.26-61.77,94.03
		c-8.795-11.021-22.75-17.166-40.631-17.166c0,0-4.715,0-11.82,0l63.021-93.944h-45.34l10.158-59.365c15.66,0,38.98,0,52.07,0
		C345.125,198.12,358.4,225.43,358.4,255.79z M332.805,153.72H256c-25.6,0-25.6-25.615-25.6-25.615s0-25.625,25.6-25.625h76.805
		V76.854c0,0-76.805,0-102.404,0L97.105,176.92c-4.9,3.5-13.811,2.795-17.85-2.88c-4.156-5.74-2.855-13.75,2.855-17.89
		C145.031,94.32,231.65,25.615,256,25.615h102.33c9.076,0.05,34.85,2.58,51.27,12.4v98.915
		C392.455,143.729,362.201,153.72,332.805,153.72z"/>
</g>
<g id="Layer_1">
</g>
</svg>
