<?xml version="1.0" encoding="iso-8859-1"?>
<!-- Generator: Adobe Illustrator 14.0.0, SVG Export Plug-In . SVG Version: 6.00 Build 43363)  -->
<!DOCTYPE svg PUBLIC "-//W3C//DTD SVG 1.1//EN" "http://www.w3.org/Graphics/SVG/1.1/DTD/svg11.dtd">
<svg version="1.1" xmlns="http://www.w3.org/2000/svg" xmlns:xlink="http://www.w3.org/1999/xlink" x="0px" y="0px" width="512px"
	 height="512px" viewBox="0 0 512 512" style="enable-background:new 0 0 512 512;" xml:space="preserve">
<g id="action-camera">
	<path d="M486.399,25.599H204.8C204.8,11.449,193.345,0,179.199,0c-14.154,0-25.6,11.449-25.6,25.599h-25.604
		C127.995,11.449,116.545,0,102.395,0C88.25,0,76.8,11.449,76.8,25.599H51.199c-14.159,0-25.6,11.45-25.6,25.601v51.204
		c-14.16,0-25.6,11.45-25.6,25.6v76.799c0,14.15,11.439,25.601,25.6,25.601v102.398c0,14.15,11.44,25.601,25.6,25.601h128V460.8
		H204.8V512h102.399v-51.2H332.8V358.401h153.6c14.15,0,25.601-11.45,25.601-25.601V51.199C512,37.049,500.55,25.599,486.399,25.599
		z M179.199,332.801h-128V51.199h128V332.801z M281.595,486.4h-51.2V460.8h51.2V486.4z M307.199,435.201H204.8v-76.8h12.8v25.6
		c0,21.18,17.225,38.399,38.396,38.399c21.175,0,38.404-17.22,38.404-38.399v-25.6h12.8V435.201z M243.194,384.001v-12.8h25.601
		v12.8c0,7.05-5.75,12.8-12.8,12.8C248.944,396.801,243.194,391.051,243.194,384.001z M486.399,332.801H204.8V51.199h281.6V332.801z
		 M345.6,307.202c63.625,0,115.2-51.579,115.2-115.2c0-63.628-51.575-115.199-115.2-115.199
		c-63.63,0-115.205,51.571-115.205,115.199C230.395,255.623,281.97,307.202,345.6,307.202z M345.6,102.403
		c49.396,0,89.6,40.2,89.6,89.599c0,49.4-40.204,89.601-89.6,89.601c-49.4,0-89.604-40.2-89.604-89.601
		C255.995,142.604,296.199,102.403,345.6,102.403z M294.399,192.002h-25.604c0-42.349,34.455-76.799,76.805-76.799v25.6
		C317.37,140.803,294.399,163.772,294.399,192.002z M115.194,153.604c21.205,0,38.405-17.2,38.405-38.4s-17.2-38.4-38.405-38.4
		c-21.194,0-38.395,17.2-38.395,38.4S94,153.604,115.194,153.604z M115.194,102.403c7.051,0,12.801,5.745,12.801,12.8
		c0,7.05-5.75,12.8-12.801,12.8c-7.045,0-12.8-5.75-12.8-12.8C102.395,108.148,108.149,102.403,115.194,102.403z"/>
</g>
<g id="Layer_1">
</g>
</svg>
