<svg xmlns="http://www.w3.org/2000/svg" xmlns:xlink="http://www.w3.org/1999/xlink" width="500" zoomAndPan="magnify" viewBox="0 0 375 374.999991" height="500" preserveAspectRatio="xMidYMid meet" version="1.0"><defs><g/><clipPath id="9ff2237aa5"><path d="M 164 144.351562 L 245 144.351562 L 245 258.351562 L 164 258.351562 Z M 164 144.351562 " clip-rule="nonzero"/></clipPath><clipPath id="710d309a33"><path d="M 116.65625 173 L 125 173 L 125 185 L 116.65625 185 Z M 116.65625 173 " clip-rule="nonzero"/></clipPath><clipPath id="ecd65d3dd5"><path d="M 125 144.351562 L 206 144.351562 L 206 258.351562 L 125 258.351562 Z M 125 144.351562 " clip-rule="nonzero"/></clipPath><clipPath id="d2d2914d9e"><path d="M 149.949219 173 L 219.699219 173 L 219.699219 210.214844 L 149.949219 210.214844 Z M 149.949219 173 " clip-rule="nonzero"/></clipPath><clipPath id="629c9d6573"><path d="M 155 165.214844 L 215 165.214844 L 215 207 L 155 207 Z M 155 165.214844 " clip-rule="nonzero"/></clipPath><clipPath id="e811bf6742"><path d="M 177 52.160156 L 193 52.160156 L 193 67 L 177 67 Z M 177 52.160156 " clip-rule="nonzero"/></clipPath><clipPath id="5bd99236a3"><path d="M 194 58 L 205.984375 58 L 205.984375 69.410156 L 194 69.410156 Z M 194 58 " clip-rule="nonzero"/></clipPath><clipPath id="ba4acba4d7"><path d="M 164 58 L 176 58 L 176 69.410156 L 164 69.410156 Z M 164 58 " clip-rule="nonzero"/></clipPath><clipPath id="3fadca4abd"><path d="M 48.730469 29.074219 L 320.980469 29.074219 L 320.980469 301.324219 L 48.730469 301.324219 Z M 48.730469 29.074219 " clip-rule="nonzero"/></clipPath><clipPath id="34ce287aa6"><path d="M 184.871094 29.074219 C 109.683594 29.074219 48.730469 90.027344 48.730469 165.214844 C 48.730469 240.40625 109.683594 301.359375 184.871094 301.359375 C 260.0625 301.359375 321.015625 240.40625 321.015625 165.214844 C 321.015625 90.027344 260.0625 29.074219 184.871094 29.074219 Z M 184.871094 29.074219 " clip-rule="nonzero"/></clipPath><clipPath id="389e856463"><rect x="0" width="145" y="0" height="26"/></clipPath><clipPath id="1f011c6344"><rect x="0" width="179" y="0" height="34"/></clipPath><clipPath id="bbc59f787e"><rect x="0" width="35" y="0" height="18"/></clipPath></defs><path fill="#9f7944" d="M 209.035156 237.320312 C 210.601562 233.183594 207.792969 229.625 207.792969 229.625 C 207.792969 229.625 203.574219 232.394531 201.902344 236.246094 C 200.234375 240.09375 201.921875 244.03125 201.921875 244.03125 C 201.921875 244.03125 207.46875 241.460938 209.035156 237.320312 " fill-opacity="1" fill-rule="nonzero"/><path fill="#9f7944" d="M 229.625 218.324219 C 229.445312 214.195312 225.777344 212.148438 225.777344 212.148438 C 225.777344 212.148438 223.132812 216.09375 223.136719 220.039062 C 223.144531 223.980469 226.078125 226.734375 226.078125 226.734375 C 226.078125 226.734375 229.804688 222.457031 229.625 218.324219 " fill-opacity="1" fill-rule="nonzero"/><path fill="#9f7944" d="M 212.707031 243.628906 C 208.121094 243.292969 202.730469 245.964844 202.730469 245.964844 C 202.730469 245.964844 204.175781 250.226562 208.875 250.910156 C 213.578125 251.589844 219.550781 247.761719 219.550781 247.761719 C 219.550781 247.761719 217.296875 243.96875 212.707031 243.628906 " fill-opacity="1" fill-rule="nonzero"/><path fill="#9f7944" d="M 224.773438 234.023438 C 220.386719 234.601562 215.867188 238.183594 215.867188 238.183594 C 215.867188 238.183594 218.085938 241.949219 222.640625 241.652344 C 227.191406 241.359375 232.042969 236.558594 232.042969 236.558594 C 232.042969 236.558594 229.160156 233.441406 224.773438 234.023438 " fill-opacity="1" fill-rule="nonzero"/><path fill="#9f7944" d="M 234.683594 222.03125 C 230.664062 223.464844 227.136719 227.742188 227.136719 227.742188 C 227.136719 227.742188 229.996094 230.824219 234.214844 229.613281 C 238.4375 228.398438 242.035156 222.90625 242.035156 222.90625 C 242.035156 222.90625 238.703125 220.59375 234.683594 222.03125 " fill-opacity="1" fill-rule="nonzero"/><path fill="#9f7944" d="M 241.984375 208.097656 C 238.496094 210.277344 236.042969 215.015625 236.042969 215.015625 C 236.042969 215.015625 239.351562 217.292969 243.0625 215.261719 C 246.78125 213.230469 249.058594 207.359375 249.058594 207.359375 C 249.058594 207.359375 245.472656 205.914062 241.984375 208.097656 " fill-opacity="1" fill-rule="nonzero"/><path fill="#9f7944" d="M 246.269531 192.785156 C 243.453125 195.570312 242.113281 200.515625 242.113281 200.515625 C 242.113281 200.515625 245.660156 201.910156 248.71875 199.207031 C 251.773438 196.503906 252.714844 190.5625 252.714844 190.5625 C 252.714844 190.5625 249.089844 189.996094 246.269531 192.785156 " fill-opacity="1" fill-rule="nonzero"/><path fill="#9f7944" d="M 247.234375 176.722656 C 245.195312 179.9375 244.964844 184.839844 244.964844 184.839844 C 244.964844 184.839844 248.539062 185.347656 250.804688 182.152344 C 253.074219 178.957031 252.734375 173.234375 252.734375 173.234375 C 252.734375 173.234375 249.273438 173.507812 247.234375 176.722656 " fill-opacity="1" fill-rule="nonzero"/><path fill="#9f7944" d="M 249.089844 164.875 C 250.496094 161.394531 248.988281 156.136719 248.988281 156.136719 C 248.988281 156.136719 245.882812 157.148438 244.683594 160.601562 C 243.484375 164.054688 244.300781 168.691406 244.300781 168.691406 C 244.300781 168.691406 247.683594 168.359375 249.089844 164.875 " fill-opacity="1" fill-rule="nonzero"/><g clip-path="url(#9ff2237aa5)"><path fill="#9f7944" d="M 227.761719 226.859375 C 233.910156 217.910156 238.339844 209.121094 241.0625 200.15625 C 241.261719 200.238281 241.378906 200.277344 241.378906 200.277344 C 241.378906 200.277344 241.8125 198.820312 241.960938 196.941406 C 242.988281 192.925781 243.6875 188.867188 244.039062 184.734375 C 244.351562 184.789062 244.546875 184.804688 244.546875 184.804688 C 244.546875 184.804688 244.6875 182.867188 244.265625 180.707031 C 244.390625 176.800781 244.214844 172.820312 243.738281 168.742188 C 244.046875 168.726562 244.234375 168.699219 244.234375 168.699219 C 244.234375 168.699219 243.984375 167.074219 243.265625 165.277344 C 242.910156 162.992188 242.464844 160.675781 241.929688 158.324219 C 241.988281 158.371094 242.027344 158.402344 242.027344 158.402344 C 242.027344 158.402344 243.371094 154.316406 241.710938 150.289062 C 240.050781 146.273438 236.238281 144.351562 236.238281 144.351562 C 236.238281 144.351562 235.78125 148.492188 237.320312 152.246094 C 238.691406 155.578125 241.335938 157.84375 241.910156 158.308594 C 242.371094 160.492188 242.765625 162.664062 243.078125 164.828125 C 242.566406 163.664062 241.851562 162.476562 240.871094 161.648438 C 238.238281 159.421875 235.050781 160.585938 235.050781 160.585938 C 235.050781 160.585938 236.101562 164.71875 238.550781 166.96875 C 240.324219 168.597656 242.503906 168.777344 243.574219 168.746094 C 243.960938 172.441406 244.117188 176.097656 244.03125 179.726562 C 243.753906 178.710938 243.335938 177.710938 242.699219 176.886719 C 240.480469 174.03125 236.902344 174.484375 236.902344 174.484375 C 236.902344 174.484375 237.042969 178.851562 239.066406 181.695312 C 240.488281 183.699219 242.625 184.421875 243.765625 184.675781 C 243.449219 188.382812 242.871094 192.046875 242.007812 195.664062 C 242 194.363281 241.8125 192.988281 241.238281 191.804688 C 239.585938 188.390625 235.789062 188.046875 235.789062 188.046875 C 235.789062 188.046875 234.988281 192.46875 236.4375 195.8125 C 237.527344 198.320312 239.769531 199.582031 240.816406 200.050781 C 239.675781 203.796875 238.210938 207.488281 236.421875 211.117188 C 236.890625 209.511719 237.207031 207.558594 236.765625 205.800781 C 235.796875 201.953125 231.96875 200.753906 231.96875 200.753906 C 231.96875 200.753906 230.226562 205.035156 230.996094 208.753906 C 231.632812 211.800781 233.964844 213.667969 234.789062 214.246094 C 232.574219 218.253906 229.9375 222.183594 226.851562 226.023438 C 223.363281 229.644531 219.835938 232.789062 216.085938 235.644531 C 217.527344 234.289062 219.78125 231.78125 220.234375 228.949219 C 220.910156 224.71875 217.585938 221.863281 217.585938 221.863281 C 217.585938 221.863281 214.113281 225.300781 213.296875 229.292969 C 212.546875 232.9375 214.460938 236.101562 214.796875 236.621094 C 212.289062 238.460938 209.671875 240.175781 206.890625 241.820312 C 203.3125 243.726562 199.691406 245.257812 196.171875 246.441406 C 192.597656 247.664062 189.167969 248.765625 185.964844 249.730469 C 179.554688 251.652344 173.972656 253.0625 170.101562 254.359375 C 168.160156 254.996094 166.671875 255.617188 165.703125 256.097656 C 165.226562 256.34375 164.863281 256.53125 164.632812 256.675781 C 164.402344 256.820312 164.28125 256.894531 164.28125 256.894531 C 165.417969 257.519531 165.996094 257.828125 167.164062 258.425781 C 167.164062 258.425781 167.246094 258.371094 167.410156 258.257812 C 167.5625 258.148438 167.828125 257.992188 168.175781 257.792969 C 168.898438 257.398438 170.070312 256.84375 171.769531 256.238281 C 175.136719 254.996094 180.484375 253.535156 186.75 251.550781 C 189.878906 250.554688 193.230469 249.433594 196.757812 248.175781 C 200.34375 246.914062 204.015625 245.296875 207.644531 243.300781 C 215.21875 238.679688 221.554688 233.519531 227.761719 226.859375 " fill-opacity="1" fill-rule="nonzero"/></g><path fill="#9f7944" d="M 160.699219 237.320312 C 159.132812 233.183594 161.941406 229.625 161.941406 229.625 C 161.941406 229.625 166.160156 232.394531 167.832031 236.246094 C 169.5 240.09375 167.8125 244.03125 167.8125 244.03125 C 167.8125 244.03125 162.265625 241.460938 160.699219 237.320312 " fill-opacity="1" fill-rule="nonzero"/><path fill="#9f7944" d="M 140.109375 218.324219 C 140.289062 214.195312 143.957031 212.148438 143.957031 212.148438 C 143.957031 212.148438 146.601562 216.09375 146.597656 220.039062 C 146.589844 223.980469 143.65625 226.734375 143.65625 226.734375 C 143.65625 226.734375 139.929688 222.457031 140.109375 218.324219 " fill-opacity="1" fill-rule="nonzero"/><path fill="#9f7944" d="M 157.027344 243.632812 C 161.617188 243.292969 167.003906 245.964844 167.003906 245.964844 C 167.003906 245.964844 165.5625 250.226562 160.859375 250.910156 C 156.15625 251.589844 150.183594 247.761719 150.183594 247.761719 C 150.183594 247.761719 152.441406 243.96875 157.027344 243.632812 " fill-opacity="1" fill-rule="nonzero"/><path fill="#9f7944" d="M 144.960938 234.023438 C 149.351562 234.601562 153.871094 238.183594 153.871094 238.183594 C 153.871094 238.183594 151.648438 241.949219 147.09375 241.652344 C 142.542969 241.359375 137.691406 236.558594 137.691406 236.558594 C 137.691406 236.558594 140.570312 233.441406 144.960938 234.023438 " fill-opacity="1" fill-rule="nonzero"/><path fill="#9f7944" d="M 135.050781 222.027344 C 139.070312 223.464844 142.597656 227.742188 142.597656 227.742188 C 142.597656 227.742188 139.738281 230.824219 135.519531 229.613281 C 131.296875 228.398438 127.695312 222.90625 127.695312 222.90625 C 127.695312 222.90625 131.03125 220.59375 135.050781 222.027344 " fill-opacity="1" fill-rule="nonzero"/><path fill="#9f7944" d="M 127.75 208.097656 C 131.238281 210.28125 133.691406 215.015625 133.691406 215.015625 C 133.691406 215.015625 130.382812 217.292969 126.667969 215.261719 C 122.953125 213.230469 120.675781 207.359375 120.675781 207.359375 C 120.675781 207.359375 124.261719 205.914062 127.75 208.097656 " fill-opacity="1" fill-rule="nonzero"/><path fill="#9f7944" d="M 123.464844 192.785156 C 126.28125 195.570312 127.621094 200.515625 127.621094 200.515625 C 127.621094 200.515625 124.070312 201.910156 121.015625 199.207031 C 117.960938 196.503906 117.019531 190.5625 117.019531 190.5625 C 117.019531 190.5625 120.644531 189.996094 123.464844 192.785156 " fill-opacity="1" fill-rule="nonzero"/><g clip-path="url(#710d309a33)"><path fill="#9f7944" d="M 122.5 176.722656 C 124.542969 179.9375 124.769531 184.839844 124.769531 184.839844 C 124.769531 184.839844 121.195312 185.347656 118.929688 182.152344 C 116.660156 178.957031 117 173.234375 117 173.234375 C 117 173.234375 120.460938 173.507812 122.5 176.722656 " fill-opacity="1" fill-rule="nonzero"/></g><path fill="#9f7944" d="M 120.644531 164.875 C 119.238281 161.390625 120.742188 156.136719 120.742188 156.136719 C 120.742188 156.136719 123.851562 157.148438 125.050781 160.601562 C 126.25 164.050781 125.429688 168.691406 125.429688 168.691406 C 125.429688 168.691406 122.050781 168.359375 120.644531 164.875 " fill-opacity="1" fill-rule="nonzero"/><g clip-path="url(#ecd65d3dd5)"><path fill="#9f7944" d="M 141.972656 226.859375 C 135.824219 217.910156 131.394531 209.121094 128.671875 200.15625 C 128.472656 200.238281 128.351562 200.277344 128.351562 200.277344 C 128.351562 200.277344 127.921875 198.820312 127.773438 196.941406 C 126.742188 192.921875 126.046875 188.863281 125.695312 184.730469 C 125.382812 184.789062 125.1875 184.804688 125.1875 184.804688 C 125.1875 184.804688 125.046875 182.867188 125.46875 180.707031 C 125.34375 176.800781 125.519531 172.820312 125.992188 168.742188 C 125.683594 168.726562 125.5 168.699219 125.5 168.699219 C 125.5 168.699219 125.75 167.074219 126.46875 165.277344 C 126.824219 162.992188 127.269531 160.675781 127.804688 158.324219 C 127.746094 158.371094 127.707031 158.402344 127.707031 158.402344 C 127.707031 158.402344 126.363281 154.3125 128.019531 150.289062 C 129.683594 146.273438 133.496094 144.351562 133.496094 144.351562 C 133.496094 144.351562 133.949219 148.492188 132.410156 152.246094 C 131.042969 155.578125 128.398438 157.84375 127.824219 158.308594 C 127.363281 160.492188 126.96875 162.664062 126.652344 164.828125 C 127.167969 163.664062 127.882812 162.476562 128.863281 161.648438 C 131.496094 159.421875 134.683594 160.585938 134.683594 160.585938 C 134.683594 160.585938 133.632812 164.714844 131.183594 166.96875 C 129.40625 168.597656 127.230469 168.773438 126.160156 168.746094 C 125.773438 172.441406 125.617188 176.097656 125.699219 179.726562 C 125.980469 178.710938 126.398438 177.707031 127.035156 176.886719 C 129.253906 174.03125 132.832031 174.484375 132.832031 174.484375 C 132.832031 174.484375 132.6875 178.851562 130.667969 181.695312 C 129.246094 183.699219 127.105469 184.421875 125.96875 184.675781 C 126.285156 188.382812 126.863281 192.046875 127.726562 195.664062 C 127.734375 194.363281 127.921875 192.988281 128.496094 191.804688 C 130.152344 188.390625 133.945312 188.046875 133.945312 188.046875 C 133.945312 188.046875 134.746094 192.46875 133.296875 195.8125 C 132.207031 198.320312 129.964844 199.582031 128.917969 200.050781 C 130.0625 203.796875 131.523438 207.488281 133.3125 211.113281 C 132.839844 209.511719 132.527344 207.558594 132.96875 205.800781 C 133.9375 201.953125 137.765625 200.753906 137.765625 200.753906 C 137.765625 200.753906 139.507812 205.035156 138.734375 208.753906 C 138.101562 211.800781 135.769531 213.667969 134.945312 214.246094 C 137.160156 218.253906 139.796875 222.183594 142.886719 226.023438 C 146.371094 229.644531 149.898438 232.789062 153.648438 235.644531 C 152.207031 234.289062 149.953125 231.78125 149.5 228.945312 C 148.820312 224.714844 152.148438 221.863281 152.148438 221.863281 C 152.148438 221.863281 155.621094 225.300781 156.441406 229.292969 C 157.1875 232.9375 155.273438 236.101562 154.9375 236.621094 C 157.445312 238.460938 160.058594 240.175781 162.84375 241.820312 C 166.425781 243.726562 170.039062 245.253906 173.5625 246.441406 C 177.140625 247.664062 180.566406 248.765625 183.769531 249.730469 C 190.179688 251.652344 195.761719 253.0625 199.636719 254.359375 C 201.574219 254.996094 203.0625 255.617188 204.027344 256.097656 C 204.507812 256.34375 204.871094 256.53125 205.101562 256.675781 C 205.332031 256.820312 205.453125 256.894531 205.453125 256.894531 C 204.316406 257.519531 203.738281 257.828125 202.570312 258.421875 C 202.570312 258.421875 202.488281 258.371094 202.324219 258.257812 C 202.171875 258.148438 201.910156 257.992188 201.558594 257.792969 C 200.839844 257.398438 199.664062 256.84375 197.964844 256.238281 C 194.597656 254.996094 189.25 253.535156 182.988281 251.550781 C 179.855469 250.554688 176.503906 249.433594 172.976562 248.175781 C 169.390625 246.914062 165.71875 245.296875 162.089844 243.300781 C 154.515625 238.679688 148.179688 233.519531 141.972656 226.859375 " fill-opacity="1" fill-rule="nonzero"/></g><g clip-path="url(#d2d2914d9e)"><path fill="#13325b" d="M 215.613281 173.046875 L 215.601562 173.164062 L 213 202 L 212.886719 203.3125 L 211.570312 203.140625 L 210.59375 203.011719 C 208.632812 202.761719 206.707031 202.625 204.863281 202.625 C 195.980469 202.625 190.578125 205.625 188.148438 207.414062 L 184.875 207.664062 L 184.867188 207.664062 L 181.589844 207.414062 C 179.160156 205.625 173.757812 202.625 164.875 202.625 C 163.03125 202.625 161.105469 202.761719 159.144531 203.011719 L 158.167969 203.140625 L 156.851562 203.3125 L 156.738281 202 L 154.136719 173.164062 L 154.125 173.046875 L 149.980469 173.046875 L 154.207031 205.703125 L 182.082031 210.523438 L 187.65625 210.523438 L 215.53125 205.703125 L 219.761719 173.046875 L 215.613281 173.046875 " fill-opacity="1" fill-rule="nonzero"/></g><g clip-path="url(#629c9d6573)"><path fill="#13325b" d="M 158.863281 171.308594 L 159.019531 172.964844 L 161.152344 195.398438 L 161.886719 195.507812 C 162.019531 195.523438 172.3125 197.105469 179.253906 202.363281 C 175.921875 200.8125 171.199219 199.449219 164.933594 199.449219 C 163.292969 199.449219 161.566406 199.542969 159.71875 199.746094 L 157.316406 173.046875 L 157.175781 171.464844 C 157.761719 171.398438 158.316406 171.355469 158.863281 171.308594 Z M 176.117188 171.238281 C 180.730469 173.679688 183.175781 176.476562 183.886719 177.382812 L 183.886719 204.132812 C 177.894531 196.855469 166.019531 194.308594 162.902344 193.75 L 160.914062 172.773438 L 160.382812 167.183594 C 167.210938 167.511719 172.378906 169.261719 176.117188 171.238281 Z M 185.851562 177.382812 C 186.566406 176.476562 189.007812 173.679688 193.621094 171.238281 C 197.359375 169.261719 202.527344 167.511719 209.355469 167.183594 L 208.824219 172.773438 L 206.835938 193.75 C 203.71875 194.308594 191.847656 196.855469 185.851562 204.132812 Z M 210.71875 172.964844 L 210.875 171.308594 C 211.421875 171.355469 211.980469 171.398438 212.5625 171.464844 L 212.421875 173.046875 L 210.019531 199.746094 C 208.171875 199.542969 206.445312 199.449219 204.808594 199.449219 C 198.539062 199.449219 193.816406 200.8125 190.484375 202.363281 C 197.429688 197.105469 207.71875 195.523438 207.851562 195.507812 L 208.585938 195.398438 Z M 158 201.886719 L 158.984375 201.761719 C 165.714844 200.871094 170.984375 201.574219 174.925781 202.773438 C 175.3125 202.894531 175.683594 203.011719 176.046875 203.140625 C 176.410156 203.269531 176.753906 203.402344 177.09375 203.53125 C 177.429688 203.667969 177.75 203.800781 178.0625 203.9375 C 179.617188 204.628906 180.859375 205.367188 181.808594 206.011719 C 182 206.148438 182.179688 206.273438 182.339844 206.394531 L 187.398438 206.394531 C 187.5625 206.273438 187.738281 206.148438 187.929688 206.011719 C 188.878906 205.367188 190.121094 204.628906 191.675781 203.9375 C 191.988281 203.800781 192.308594 203.667969 192.648438 203.53125 C 192.984375 203.402344 193.328125 203.269531 193.691406 203.140625 C 194.054688 203.011719 194.425781 202.894531 194.8125 202.773438 C 198.753906 201.574219 204.023438 200.871094 210.753906 201.761719 L 211.738281 201.886719 L 214.335938 173.046875 L 214.628906 169.78125 L 213.710938 169.675781 C 212.785156 169.566406 211.898438 169.476562 211.054688 169.417969 L 211.453125 165.214844 L 210.378906 165.238281 C 201.023438 165.484375 194.535156 168.191406 190.335938 170.902344 C 187.582031 172.6875 185.8125 174.472656 184.875 175.570312 L 184.871094 175.566406 L 184.867188 175.570312 C 183.925781 174.472656 182.15625 172.6875 179.402344 170.902344 C 175.203125 168.191406 168.71875 165.484375 159.359375 165.238281 L 158.285156 165.214844 L 158.683594 169.417969 C 157.839844 169.476562 156.953125 169.566406 156.027344 169.675781 L 155.109375 169.78125 L 155.402344 173.046875 L 158 201.886719 " fill-opacity="1" fill-rule="nonzero"/></g><g clip-path="url(#e811bf6742)"><path fill="#9f7944" d="M 184.867188 52.160156 L 187.167969 56.816406 L 192.308594 57.566406 L 188.589844 61.191406 L 189.464844 66.3125 L 184.867188 63.894531 L 180.269531 66.3125 L 181.148438 61.191406 L 177.425781 57.566406 L 182.570312 56.816406 Z M 184.867188 52.160156 " fill-opacity="1" fill-rule="nonzero"/></g><g clip-path="url(#5bd99236a3)"><path fill="#9f7944" d="M 200.59375 58.34375 L 201.832031 62.171875 L 205.6875 63.320312 L 202.429688 65.683594 L 202.527344 69.703125 L 199.273438 67.335938 L 195.480469 68.667969 L 196.726562 64.847656 L 194.285156 61.648438 L 198.308594 61.65625 Z M 200.59375 58.34375 " fill-opacity="1" fill-rule="nonzero"/></g><g clip-path="url(#ba4acba4d7)"><path fill="#9f7944" d="M 169.140625 58.34375 L 167.90625 62.171875 L 164.050781 63.320312 L 167.304688 65.683594 L 167.207031 69.703125 L 170.460938 67.335938 L 174.253906 68.667969 L 173.007812 64.847656 L 175.449219 61.648438 L 171.425781 61.65625 Z M 169.140625 58.34375 " fill-opacity="1" fill-rule="nonzero"/></g><g clip-path="url(#3fadca4abd)"><g clip-path="url(#34ce287aa6)"><path stroke-linecap="butt" transform="matrix(0.75, 0, 0, 0.75, 48.7297, 29.073001)" fill="none" stroke-linejoin="miter" d="M 181.521871 0.00162371 C 81.271864 0.00162371 0.0010254 81.272462 0.0010254 181.522469 C 0.0010254 281.777684 81.271864 363.048523 181.521871 363.048523 C 281.777086 363.048523 363.047924 281.777684 363.047924 181.522469 C 363.047924 81.272462 281.777086 0.00162371 181.521871 0.00162371 Z M 181.521871 0.00162371 " stroke="#13325b" stroke-width="32" stroke-opacity="1" stroke-miterlimit="4"/></g></g><g transform="matrix(1, 0, 0, 1, 116, 82)"><g clip-path="url(#389e856463)"><g fill="#9f7944" fill-opacity="1"><g transform="translate(1.093534, 18.713377)"><g><path d="M 12.09375 -9.640625 C 12.09375 -9.046875 11.976562 -8.488281 11.75 -7.96875 C 11.3125 -6.945312 10.5 -6.25 9.3125 -5.875 C 8.96875 -5.757812 8.644531 -5.703125 8.34375 -5.703125 C 7.4375 -5.703125 6.625 -5.941406 5.90625 -6.421875 L 5.90625 -6.609375 C 6.863281 -6.585938 7.640625 -6.90625 8.234375 -7.5625 C 8.742188 -8.125 9 -8.863281 9 -9.78125 C 9 -10.695312 8.773438 -11.410156 8.328125 -11.921875 C 7.890625 -12.429688 7.289062 -12.6875 6.53125 -12.6875 L 5.25 -12.6875 L 5.25 -1.40625 C 5.25 -1.070312 5.367188 -0.785156 5.609375 -0.546875 C 5.859375 -0.304688 6.148438 -0.1875 6.484375 -0.1875 L 6.734375 -0.1875 L 6.734375 0 L 0.875 0 L 0.875 -0.1875 L 1.125 -0.1875 C 1.457031 -0.1875 1.738281 -0.304688 1.96875 -0.546875 C 2.207031 -0.785156 2.335938 -1.070312 2.359375 -1.40625 L 2.359375 -12.1875 C 2.359375 -12.507812 2.234375 -12.773438 1.984375 -12.984375 C 1.742188 -13.191406 1.457031 -13.296875 1.125 -13.296875 L 0.875 -13.296875 L 0.875 -13.5 L 7.3125 -13.5 C 8.875 -13.5 10.054688 -13.164062 10.859375 -12.5 C 11.679688 -11.789062 12.09375 -10.835938 12.09375 -9.640625 Z M 12.09375 -9.640625 "/></g></g></g><g fill="#9f7944" fill-opacity="1"><g transform="translate(15.074062, 18.713377)"><g><path d="M 10.203125 -0.1875 C 10.535156 -0.1875 10.789062 -0.269531 10.96875 -0.4375 C 11.269531 -0.738281 11.425781 -1.054688 11.4375 -1.390625 L 11.4375 -6.3125 L 5.1875 -6.3125 L 5.1875 -1.40625 C 5.1875 -1.070312 5.304688 -0.785156 5.546875 -0.546875 C 5.796875 -0.304688 6.085938 -0.1875 6.421875 -0.1875 L 6.65625 -0.1875 L 6.671875 0 L 0.8125 0 L 0.8125 -0.1875 L 1.0625 -0.1875 C 1.394531 -0.1875 1.679688 -0.304688 1.921875 -0.546875 C 2.160156 -0.785156 2.285156 -1.070312 2.296875 -1.40625 L 2.296875 -12.09375 C 2.285156 -12.425781 2.160156 -12.707031 1.921875 -12.9375 C 1.679688 -13.175781 1.394531 -13.296875 1.0625 -13.296875 L 0.8125 -13.296875 L 0.8125 -13.5 L 6.671875 -13.5 L 6.65625 -13.296875 L 6.421875 -13.296875 C 6.085938 -13.296875 5.796875 -13.175781 5.546875 -12.9375 C 5.304688 -12.707031 5.1875 -12.425781 5.1875 -12.09375 L 5.1875 -7.140625 L 11.4375 -7.140625 L 11.4375 -12.09375 C 11.425781 -12.425781 11.300781 -12.707031 11.0625 -12.9375 C 10.820312 -13.175781 10.535156 -13.296875 10.203125 -13.296875 L 9.953125 -13.296875 L 9.953125 -13.5 L 15.8125 -13.5 L 15.8125 -13.296875 L 15.5625 -13.296875 C 15.226562 -13.296875 14.9375 -13.175781 14.6875 -12.9375 C 14.445312 -12.707031 14.328125 -12.425781 14.328125 -12.09375 L 14.328125 -1.40625 C 14.328125 -1.070312 14.445312 -0.785156 14.6875 -0.546875 C 14.9375 -0.304688 15.226562 -0.1875 15.5625 -0.1875 L 15.8125 -0.1875 L 15.8125 0 L 9.953125 0 L 9.953125 -0.1875 Z M 10.203125 -0.1875 "/></g></g></g><g fill="#9f7944" fill-opacity="1"><g transform="translate(33.026768, 18.713377)"><g><path d="M 15.234375 -13.296875 L 14.90625 -13.296875 C 14.632812 -13.296875 14.398438 -13.207031 14.203125 -13.03125 C 14.015625 -12.863281 13.914062 -12.648438 13.90625 -12.390625 L 13.90625 -4.875 C 13.90625 -3.289062 13.410156 -2.035156 12.421875 -1.109375 C 11.429688 -0.191406 10.070312 0.265625 8.34375 0.265625 C 6.3125 0.265625 4.753906 -0.1875 3.671875 -1.09375 C 2.597656 -2 2.0625 -3.253906 2.0625 -4.859375 L 2.0625 -12.34375 C 2.050781 -12.726562 1.878906 -13.007812 1.546875 -13.1875 C 1.390625 -13.257812 1.222656 -13.296875 1.046875 -13.296875 L 0.734375 -13.296875 L 0.734375 -13.5 L 6.28125 -13.5 L 6.28125 -13.296875 L 5.984375 -13.296875 C 5.691406 -13.296875 5.445312 -13.207031 5.25 -13.03125 C 5.0625 -12.863281 4.960938 -12.644531 4.953125 -12.375 L 4.953125 -5.015625 C 4.953125 -3.648438 5.285156 -2.566406 5.953125 -1.765625 C 6.617188 -0.972656 7.535156 -0.578125 8.703125 -0.578125 C 9.878906 -0.578125 10.804688 -0.953125 11.484375 -1.703125 C 12.171875 -2.453125 12.519531 -3.472656 12.53125 -4.765625 L 12.53125 -12.375 C 12.507812 -12.75 12.335938 -13.019531 12.015625 -13.1875 C 11.859375 -13.257812 11.691406 -13.296875 11.515625 -13.296875 L 11.203125 -13.296875 L 11.203125 -13.5 L 15.234375 -13.5 Z M 15.234375 -13.296875 "/></g></g></g><g fill="#9f7944" fill-opacity="1"><g transform="translate(50.208181, 18.713377)"><g><path d="M 18.265625 -0.1875 L 18.5625 -0.1875 L 18.5625 0 L 12.78125 0 L 12.78125 -0.171875 L 13.078125 -0.171875 C 13.296875 -0.179688 13.476562 -0.269531 13.625 -0.4375 C 13.78125 -0.601562 13.847656 -0.789062 13.828125 -1 L 13.078125 -8 L 9.453125 -1.75 C 8.972656 -0.957031 8.726562 -0.242188 8.71875 0.390625 L 8.515625 0.390625 L 3.5625 -7.9375 L 2.8125 -1 C 2.789062 -0.789062 2.851562 -0.597656 3 -0.421875 C 3.15625 -0.253906 3.34375 -0.171875 3.5625 -0.171875 L 3.859375 -0.171875 L 3.859375 0 L -0.171875 0 L -0.171875 -0.1875 L 0.140625 -0.1875 C 0.492188 -0.1875 0.800781 -0.296875 1.0625 -0.515625 C 1.332031 -0.734375 1.492188 -1.03125 1.546875 -1.40625 L 3.140625 -13.765625 L 3.3125 -13.765625 L 9.296875 -3.9375 L 15.046875 -13.765625 L 15.21875 -13.765625 L 16.859375 -1.40625 C 16.921875 -1.03125 17.082031 -0.734375 17.34375 -0.515625 C 17.601562 -0.296875 17.910156 -0.1875 18.265625 -0.1875 Z M 18.265625 -0.1875 "/></g></g></g><g fill="#9f7944" fill-opacity="1"><g transform="translate(69.934864, 18.713377)"><g><path d="M 1.0625 -0.1875 C 1.394531 -0.1875 1.679688 -0.304688 1.921875 -0.546875 C 2.160156 -0.785156 2.285156 -1.070312 2.296875 -1.40625 L 2.296875 -12.140625 C 2.265625 -12.472656 2.164062 -12.71875 2 -12.875 C 1.695312 -13.15625 1.382812 -13.296875 1.0625 -13.296875 L 0.8125 -13.296875 L 0.8125 -13.5 L 8.1875 -13.5 C 8.820312 -13.5 9.34375 -13.546875 9.75 -13.640625 C 10.164062 -13.734375 10.421875 -13.800781 10.515625 -13.84375 L 10.515625 -10.46875 L 10.3125 -10.484375 L 10.3125 -10.703125 C 10.3125 -11.492188 10.015625 -12.054688 9.421875 -12.390625 C 9.140625 -12.554688 8.804688 -12.648438 8.421875 -12.671875 L 5.1875 -12.671875 L 5.1875 -7.0625 L 7.734375 -7.0625 C 8.203125 -7.070312 8.59375 -7.234375 8.90625 -7.546875 C 9.21875 -7.859375 9.375 -8.25 9.375 -8.71875 L 9.375 -8.890625 L 9.5625 -8.890625 L 9.5625 -4.4375 L 9.375 -4.4375 L 9.375 -4.59375 C 9.375 -5.0625 9.222656 -5.453125 8.921875 -5.765625 C 8.617188 -6.078125 8.234375 -6.238281 7.765625 -6.25 L 5.1875 -6.25 L 5.1875 -0.828125 L 7.71875 -0.828125 C 8.65625 -0.828125 9.441406 -1.097656 10.078125 -1.640625 C 10.710938 -2.179688 11.179688 -2.945312 11.484375 -3.9375 L 11.6875 -3.9375 L 10.796875 0 L 0.8125 0 L 0.8125 -0.1875 Z M 1.0625 -0.1875 "/></g></g></g><g fill="#9f7944" fill-opacity="1"><g transform="translate(83.452628, 18.713377)"><g><path d="M 1.0625 -0.1875 C 1.394531 -0.1875 1.679688 -0.304688 1.921875 -0.546875 C 2.160156 -0.785156 2.285156 -1.070312 2.296875 -1.40625 L 2.296875 -12.09375 C 2.285156 -12.425781 2.160156 -12.707031 1.921875 -12.9375 C 1.679688 -13.175781 1.394531 -13.296875 1.0625 -13.296875 L 0.8125 -13.296875 L 0.8125 -13.5 L 6.671875 -13.5 L 6.65625 -13.296875 L 6.421875 -13.296875 C 6.085938 -13.296875 5.796875 -13.175781 5.546875 -12.9375 C 5.304688 -12.707031 5.1875 -12.425781 5.1875 -12.09375 L 5.1875 -0.828125 L 7.71875 -0.828125 C 8.65625 -0.828125 9.441406 -1.097656 10.078125 -1.640625 C 10.710938 -2.179688 11.179688 -2.945312 11.484375 -3.9375 L 11.6875 -3.9375 L 10.796875 0 L 0.8125 0 L 0.8125 -0.1875 Z M 1.0625 -0.1875 "/></g></g></g><g fill="#9f7944" fill-opacity="1"><g transform="translate(96.681147, 18.713377)"><g><path d="M 1.0625 -0.1875 C 1.394531 -0.1875 1.679688 -0.304688 1.921875 -0.546875 C 2.160156 -0.785156 2.285156 -1.070312 2.296875 -1.40625 L 2.296875 -12.140625 C 2.265625 -12.472656 2.164062 -12.71875 2 -12.875 C 1.695312 -13.15625 1.382812 -13.296875 1.0625 -13.296875 L 0.8125 -13.296875 L 0.8125 -13.5 L 8.1875 -13.5 C 8.820312 -13.5 9.34375 -13.546875 9.75 -13.640625 C 10.164062 -13.734375 10.421875 -13.800781 10.515625 -13.84375 L 10.515625 -10.46875 L 10.3125 -10.484375 L 10.3125 -10.703125 C 10.3125 -11.492188 10.015625 -12.054688 9.421875 -12.390625 C 9.140625 -12.554688 8.804688 -12.648438 8.421875 -12.671875 L 5.1875 -12.671875 L 5.1875 -7.0625 L 7.734375 -7.0625 C 8.203125 -7.070312 8.59375 -7.234375 8.90625 -7.546875 C 9.21875 -7.859375 9.375 -8.25 9.375 -8.71875 L 9.375 -8.890625 L 9.5625 -8.890625 L 9.5625 -4.4375 L 9.375 -4.4375 L 9.375 -4.59375 C 9.375 -5.0625 9.222656 -5.453125 8.921875 -5.765625 C 8.617188 -6.078125 8.234375 -6.238281 7.765625 -6.25 L 5.1875 -6.25 L 5.1875 -0.828125 L 7.71875 -0.828125 C 8.65625 -0.828125 9.441406 -1.097656 10.078125 -1.640625 C 10.710938 -2.179688 11.179688 -2.945312 11.484375 -3.9375 L 11.6875 -3.9375 L 10.796875 0 L 0.8125 0 L 0.8125 -0.1875 Z M 1.0625 -0.1875 "/></g></g></g><g fill="#9f7944" fill-opacity="1"><g transform="translate(110.198911, 18.713377)"><g><path d="M 1.0625 -0.1875 C 1.394531 -0.1875 1.679688 -0.304688 1.921875 -0.546875 C 2.160156 -0.785156 2.285156 -1.070312 2.296875 -1.40625 L 2.296875 -12.09375 C 2.285156 -12.425781 2.160156 -12.707031 1.921875 -12.9375 C 1.679688 -13.175781 1.394531 -13.296875 1.0625 -13.296875 L 0.8125 -13.296875 L 0.8125 -13.5 L 6.671875 -13.5 L 6.65625 -13.296875 L 6.421875 -13.296875 C 6.085938 -13.296875 5.796875 -13.175781 5.546875 -12.9375 C 5.304688 -12.707031 5.1875 -12.425781 5.1875 -12.09375 L 5.1875 -0.828125 L 7.71875 -0.828125 C 8.65625 -0.828125 9.441406 -1.097656 10.078125 -1.640625 C 10.710938 -2.179688 11.179688 -2.945312 11.484375 -3.9375 L 11.6875 -3.9375 L 10.796875 0 L 0.8125 0 L 0.8125 -0.1875 Z M 1.0625 -0.1875 "/></g></g></g><g fill="#9f7944" fill-opacity="1"><g transform="translate(123.42743, 18.713377)"><g><path d="M 1.0625 -0.1875 C 1.394531 -0.1875 1.679688 -0.304688 1.921875 -0.546875 C 2.160156 -0.785156 2.285156 -1.070312 2.296875 -1.40625 L 2.296875 -12.140625 C 2.265625 -12.472656 2.164062 -12.71875 2 -12.875 C 1.695312 -13.15625 1.382812 -13.296875 1.0625 -13.296875 L 0.8125 -13.296875 L 0.8125 -13.5 L 8.1875 -13.5 C 8.820312 -13.5 9.34375 -13.546875 9.75 -13.640625 C 10.164062 -13.734375 10.421875 -13.800781 10.515625 -13.84375 L 10.515625 -10.46875 L 10.3125 -10.484375 L 10.3125 -10.703125 C 10.3125 -11.492188 10.015625 -12.054688 9.421875 -12.390625 C 9.140625 -12.554688 8.804688 -12.648438 8.421875 -12.671875 L 5.1875 -12.671875 L 5.1875 -7.0625 L 7.734375 -7.0625 C 8.203125 -7.070312 8.59375 -7.234375 8.90625 -7.546875 C 9.21875 -7.859375 9.375 -8.25 9.375 -8.71875 L 9.375 -8.890625 L 9.5625 -8.890625 L 9.5625 -4.4375 L 9.375 -4.4375 L 9.375 -4.59375 C 9.375 -5.0625 9.222656 -5.453125 8.921875 -5.765625 C 8.617188 -6.078125 8.234375 -6.238281 7.765625 -6.25 L 5.1875 -6.25 L 5.1875 -0.828125 L 7.71875 -0.828125 C 8.65625 -0.828125 9.441406 -1.097656 10.078125 -1.640625 C 10.710938 -2.179688 11.179688 -2.945312 11.484375 -3.9375 L 11.6875 -3.9375 L 10.796875 0 L 0.8125 0 L 0.8125 -0.1875 Z M 1.0625 -0.1875 "/></g></g></g><g fill="#9f7944" fill-opacity="1"><g transform="translate(136.952861, 18.713377)"><g/></g></g></g></g><g transform="matrix(1, 0, 0, 1, 97, 109)"><g clip-path="url(#1f011c6344)"><g fill="#13325b" fill-opacity="1"><g transform="translate(1.870399, 12.132631)"><g><path d="M 1.15625 -3.484375 C 0.820312 -2.960938 0.65625 -2.425781 0.65625 -1.875 C 0.65625 -1.28125 0.875 -0.738281 1.3125 -0.25 C 1.550781 0.03125 1.851562 0.25 2.21875 0.40625 C 2.582031 0.5625 2.976562 0.640625 3.40625 0.640625 C 3.84375 0.640625 4.234375 0.554688 4.578125 0.390625 C 5.265625 0.0546875 5.609375 -0.488281 5.609375 -1.25 C 5.609375 -1.539062 5.507812 -1.84375 5.3125 -2.15625 C 5.125 -2.476562 4.835938 -2.765625 4.453125 -3.015625 L 2.375 -4.421875 C 1.5625 -4.921875 1.15625 -5.570312 1.15625 -6.375 C 1.15625 -6.457031 1.160156 -6.539062 1.171875 -6.625 C 1.210938 -7.25 1.457031 -7.757812 1.90625 -8.15625 C 2.363281 -8.550781 2.972656 -8.75 3.734375 -8.75 C 4.203125 -8.75 4.769531 -8.710938 5.4375 -8.640625 L 6.1875 -8.640625 L 6.03125 -6.828125 L 5.921875 -6.828125 C 5.910156 -7.253906 5.742188 -7.597656 5.421875 -7.859375 C 5.109375 -8.117188 4.691406 -8.25 4.171875 -8.25 C 3.535156 -8.25 3.070312 -8.054688 2.78125 -7.671875 C 2.644531 -7.472656 2.578125 -7.257812 2.578125 -7.03125 C 2.578125 -6.800781 2.644531 -6.601562 2.78125 -6.4375 C 2.925781 -6.28125 3.148438 -6.109375 3.453125 -5.921875 L 5.734375 -4.421875 C 6.203125 -4.117188 6.566406 -3.765625 6.828125 -3.359375 C 7.140625 -2.878906 7.296875 -2.382812 7.296875 -1.875 C 7.296875 -1.550781 7.226562 -1.207031 7.09375 -0.84375 C 6.957031 -0.476562 6.734375 -0.140625 6.421875 0.171875 C 6.117188 0.484375 5.726562 0.738281 5.25 0.9375 C 4.769531 1.132812 4.234375 1.234375 3.640625 1.234375 C 3.054688 1.234375 2.53125 1.128906 2.0625 0.921875 C 1.1875 0.554688 0.628906 -0.0820312 0.390625 -1 C 0.335938 -1.195312 0.3125 -1.40625 0.3125 -1.625 C 0.3125 -2.3125 0.554688 -2.957031 1.046875 -3.5625 Z M 1.15625 -3.484375 "/></g></g></g><g fill="#13325b" fill-opacity="1"><g transform="translate(10.12629, 12.132631)"><g><path d="M 0.671875 -0.125 C 0.890625 -0.125 1.070312 -0.195312 1.21875 -0.34375 C 1.375 -0.5 1.453125 -0.679688 1.453125 -0.890625 L 1.453125 -7.703125 C 1.453125 -7.992188 1.320312 -8.210938 1.0625 -8.359375 C 0.945312 -8.429688 0.816406 -8.46875 0.671875 -8.46875 L 0.515625 -8.46875 L 0.515625 -8.59375 L 4.25 -8.59375 L 4.234375 -8.46875 L 4.078125 -8.46875 C 3.785156 -8.46875 3.5625 -8.335938 3.40625 -8.078125 C 3.332031 -7.960938 3.296875 -7.835938 3.296875 -7.703125 L 3.296875 -0.890625 C 3.296875 -0.679688 3.375 -0.5 3.53125 -0.34375 C 3.6875 -0.195312 3.867188 -0.125 4.078125 -0.125 L 4.234375 -0.125 L 4.25 0 L 0.515625 0 L 0.515625 -0.125 Z M 9.53125 0 L 8.53125 0 C 7.28125 0 6.398438 -0.335938 5.890625 -1.015625 C 4.421875 -3.003906 3.6875 -4.015625 3.6875 -4.046875 L 6.59375 -7.90625 C 6.664062 -7.976562 6.703125 -8.046875 6.703125 -8.109375 C 6.703125 -8.179688 6.6875 -8.242188 6.65625 -8.296875 C 6.59375 -8.410156 6.476562 -8.46875 6.3125 -8.46875 L 6.1875 -8.46875 L 6.1875 -8.59375 L 9 -8.59375 L 9 -8.46875 L 8.953125 -8.46875 C 8.398438 -8.46875 7.953125 -8.273438 7.609375 -7.890625 L 5.21875 -5.046875 L 8.28125 -0.890625 C 8.65625 -0.390625 9.070312 -0.132812 9.53125 -0.125 Z M 9.53125 0 "/></g></g></g><g fill="#13325b" fill-opacity="1"><g transform="translate(20.013729, 12.132631)"><g><path d="M 0.671875 -0.125 C 0.890625 -0.125 1.070312 -0.195312 1.21875 -0.34375 C 1.375 -0.5 1.453125 -0.679688 1.453125 -0.890625 L 1.453125 -7.703125 C 1.453125 -7.910156 1.375 -8.085938 1.21875 -8.234375 C 1.070312 -8.390625 0.890625 -8.46875 0.671875 -8.46875 L 0.515625 -8.46875 L 0.515625 -8.59375 L 4.25 -8.59375 L 4.234375 -8.46875 L 4.078125 -8.46875 C 3.867188 -8.46875 3.6875 -8.390625 3.53125 -8.234375 C 3.375 -8.085938 3.296875 -7.910156 3.296875 -7.703125 L 3.296875 -0.890625 C 3.296875 -0.679688 3.375 -0.5 3.53125 -0.34375 C 3.6875 -0.195312 3.867188 -0.125 4.078125 -0.125 L 4.234375 -0.125 L 4.25 0 L 0.515625 0 L 0.515625 -0.125 Z M 0.671875 -0.125 "/></g></g></g><g fill="#13325b" fill-opacity="1"><g transform="translate(25.362263, 12.132631)"><g><path d="M 0.671875 -0.125 C 0.890625 -0.125 1.070312 -0.195312 1.21875 -0.34375 C 1.375 -0.5 1.453125 -0.679688 1.453125 -0.890625 L 1.453125 -7.6875 C 1.453125 -7.90625 1.375 -8.085938 1.21875 -8.234375 C 1.070312 -8.390625 0.890625 -8.46875 0.671875 -8.46875 L 0.515625 -8.46875 L 0.515625 -8.59375 L 4.25 -8.59375 L 4.234375 -8.46875 L 4.078125 -8.46875 C 3.867188 -8.46875 3.6875 -8.390625 3.53125 -8.234375 C 3.375 -8.085938 3.296875 -7.90625 3.296875 -7.6875 L 3.296875 -0.53125 L 4.90625 -0.53125 C 5.5 -0.53125 6 -0.703125 6.40625 -1.046875 C 6.8125 -1.390625 7.113281 -1.875 7.3125 -2.5 L 7.4375 -2.5 L 6.875 0 L 0.515625 0 L 0.515625 -0.125 Z M 0.671875 -0.125 "/></g></g></g><g fill="#13325b" fill-opacity="1"><g transform="translate(33.532283, 12.132631)"><g><path d="M 0.671875 -0.125 C 0.890625 -0.125 1.070312 -0.195312 1.21875 -0.34375 C 1.375 -0.5 1.453125 -0.679688 1.453125 -0.890625 L 1.453125 -7.6875 C 1.453125 -7.90625 1.375 -8.085938 1.21875 -8.234375 C 1.070312 -8.390625 0.890625 -8.46875 0.671875 -8.46875 L 0.515625 -8.46875 L 0.515625 -8.59375 L 4.25 -8.59375 L 4.234375 -8.46875 L 4.078125 -8.46875 C 3.867188 -8.46875 3.6875 -8.390625 3.53125 -8.234375 C 3.375 -8.085938 3.296875 -7.90625 3.296875 -7.6875 L 3.296875 -0.53125 L 4.90625 -0.53125 C 5.5 -0.53125 6 -0.703125 6.40625 -1.046875 C 6.8125 -1.390625 7.113281 -1.875 7.3125 -2.5 L 7.4375 -2.5 L 6.875 0 L 0.515625 0 L 0.515625 -0.125 Z M 0.671875 -0.125 "/></g></g></g><g fill="#13325b" fill-opacity="1"><g transform="translate(41.702304, 12.132631)"><g><path d="M 0.609375 -1.140625 C 0.609375 -1.734375 0.738281 -2.238281 1 -2.65625 L 1.109375 -2.65625 C 1.097656 -2.582031 1.09375 -2.515625 1.09375 -2.453125 C 1.09375 -1.890625 1.296875 -1.394531 1.703125 -0.96875 C 2.109375 -0.550781 2.660156 -0.34375 3.359375 -0.34375 C 3.910156 -0.34375 4.335938 -0.472656 4.640625 -0.734375 C 4.953125 -0.992188 5.109375 -1.328125 5.109375 -1.734375 C 5.109375 -2.210938 4.78125 -2.632812 4.125 -3 L 1.984375 -4.40625 C 1.554688 -4.644531 1.25 -4.9375 1.0625 -5.28125 C 0.882812 -5.632812 0.796875 -5.992188 0.796875 -6.359375 C 0.796875 -7.117188 1.035156 -7.707031 1.515625 -8.125 C 2.003906 -8.539062 2.628906 -8.75 3.390625 -8.75 C 3.847656 -8.75 4.40625 -8.710938 5.0625 -8.640625 L 5.84375 -8.640625 L 5.671875 -6.828125 L 5.5625 -6.828125 C 5.5625 -7.253906 5.398438 -7.597656 5.078125 -7.859375 C 4.765625 -8.117188 4.347656 -8.25 3.828125 -8.25 C 3.191406 -8.25 2.726562 -8.050781 2.4375 -7.65625 C 2.289062 -7.46875 2.21875 -7.253906 2.21875 -7.015625 C 2.21875 -6.617188 2.503906 -6.253906 3.078125 -5.921875 L 5.421875 -4.40625 C 6.160156 -3.976562 6.53125 -3.351562 6.53125 -2.53125 C 6.53125 -1.65625 6.234375 -0.984375 5.640625 -0.515625 C 5.046875 -0.0546875 4.257812 0.171875 3.28125 0.171875 C 2.71875 0.171875 2.203125 0.101562 1.734375 -0.03125 C 1.265625 -0.164062 0.921875 -0.347656 0.703125 -0.578125 C 0.640625 -0.734375 0.609375 -0.921875 0.609375 -1.140625 Z M 0.609375 -1.140625 "/></g></g></g><g fill="#13325b" fill-opacity="1"><g transform="translate(49.40616, 12.132631)"><g/></g></g><g fill="#13325b" fill-opacity="1"><g transform="translate(53.086333, 12.132631)"><g><path d="M 2.546875 -8.59375 C 2.679688 -8.59375 2.929688 -8.59375 3.296875 -8.59375 C 3.671875 -8.59375 4.351562 -8.59375 5.34375 -8.59375 C 6.789062 -8.570312 7.9375 -8.175781 8.78125 -7.40625 C 9.625 -6.644531 10.046875 -5.601562 10.046875 -4.28125 C 10.046875 -2.96875 9.625 -1.925781 8.78125 -1.15625 C 7.9375 -0.382812 6.789062 0 5.34375 0 L 0.90625 0 L 0.90625 -0.125 L 1.0625 -0.125 C 1.257812 -0.125 1.429688 -0.191406 1.578125 -0.328125 C 1.734375 -0.472656 1.820312 -0.648438 1.84375 -0.859375 L 1.84375 -8.03125 C 0.925781 -7.96875 0.25 -7.753906 -0.1875 -7.390625 C -0.414062 -7.222656 -0.59375 -7.046875 -0.71875 -6.859375 C -0.84375 -6.679688 -0.96875 -6.46875 -1.09375 -6.21875 L -1.21875 -6.265625 C -1.019531 -7.085938 -0.609375 -7.679688 0.015625 -8.046875 C 0.640625 -8.410156 1.484375 -8.59375 2.546875 -8.59375 Z M 5.203125 -0.515625 C 6.078125 -0.515625 6.769531 -0.851562 7.28125 -1.53125 C 7.789062 -2.207031 8.046875 -3.125 8.046875 -4.28125 C 8.046875 -5.445312 7.789062 -6.363281 7.28125 -7.03125 C 6.769531 -7.707031 6.085938 -8.046875 5.234375 -8.046875 C 5.222656 -8.046875 5.210938 -8.046875 5.203125 -8.046875 L 3.6875 -8.046875 L 3.6875 -0.515625 Z M 5.203125 -0.515625 "/></g></g></g><g fill="#13325b" fill-opacity="1"><g transform="translate(64.274101, 12.132631)"><g><path d="M 0.671875 -0.125 C 0.890625 -0.125 1.070312 -0.195312 1.21875 -0.34375 C 1.375 -0.5 1.453125 -0.679688 1.453125 -0.890625 L 1.453125 -7.734375 C 1.429688 -8.015625 1.300781 -8.222656 1.0625 -8.359375 C 0.9375 -8.429688 0.804688 -8.46875 0.671875 -8.46875 L 0.515625 -8.46875 L 0.515625 -8.59375 L 5.21875 -8.59375 C 5.46875 -8.59375 5.742188 -8.613281 6.046875 -8.65625 C 6.347656 -8.707031 6.5625 -8.757812 6.6875 -8.8125 L 6.6875 -6.65625 L 6.5625 -6.65625 L 6.5625 -6.8125 C 6.5625 -7.175781 6.453125 -7.46875 6.234375 -7.6875 C 6.015625 -7.914062 5.722656 -8.039062 5.359375 -8.0625 L 3.296875 -8.0625 L 3.296875 -4.484375 L 4.921875 -4.484375 C 5.222656 -4.492188 5.472656 -4.597656 5.671875 -4.796875 C 5.867188 -5.003906 5.96875 -5.253906 5.96875 -5.546875 L 5.96875 -5.65625 L 6.078125 -5.65625 L 6.078125 -2.828125 L 5.96875 -2.828125 L 5.96875 -2.921875 C 5.96875 -3.328125 5.800781 -3.628906 5.46875 -3.828125 C 5.300781 -3.921875 5.125 -3.96875 4.9375 -3.96875 L 3.296875 -3.96875 L 3.296875 -0.53125 L 4.90625 -0.53125 C 5.5 -0.53125 6 -0.703125 6.40625 -1.046875 C 6.8125 -1.390625 7.113281 -1.875 7.3125 -2.5 L 7.4375 -2.5 L 6.875 0 L 0.515625 0 L 0.515625 -0.125 Z M 0.671875 -0.125 "/></g></g></g><g fill="#13325b" fill-opacity="1"><g transform="translate(72.628122, 12.132631)"><g><path d="M 9.28125 -8.46875 L 9.171875 -8.46875 C 8.984375 -8.46875 8.796875 -8.410156 8.609375 -8.296875 C 8.421875 -8.179688 8.265625 -8.007812 8.140625 -7.78125 L 5.234375 -1.359375 C 4.859375 -0.546875 4.660156 -0.0078125 4.640625 0.25 L 4.53125 0.25 L 0.8125 -7.765625 C 0.6875 -7.992188 0.53125 -8.164062 0.34375 -8.28125 C 0.15625 -8.40625 -0.0351562 -8.46875 -0.234375 -8.46875 L -0.328125 -8.46875 L -0.328125 -8.59375 L 3.578125 -8.59375 L 3.578125 -8.46875 L 3.46875 -8.46875 C 3.289062 -8.46875 3.160156 -8.410156 3.078125 -8.296875 C 2.992188 -8.179688 2.953125 -8.078125 2.953125 -7.984375 C 2.953125 -7.890625 2.96875 -7.789062 3 -7.6875 L 5.078125 -2.625 L 7.234375 -7.6875 C 7.273438 -7.789062 7.296875 -7.890625 7.296875 -7.984375 C 7.296875 -8.078125 7.253906 -8.179688 7.171875 -8.296875 C 7.085938 -8.410156 6.957031 -8.46875 6.78125 -8.46875 L 6.65625 -8.46875 L 6.65625 -8.59375 L 9.28125 -8.59375 Z M 9.28125 -8.46875 "/></g></g></g><g fill="#13325b" fill-opacity="1"><g transform="translate(82.159804, 12.132631)"><g><path d="M 0.671875 -0.125 C 0.890625 -0.125 1.070312 -0.195312 1.21875 -0.34375 C 1.375 -0.5 1.453125 -0.679688 1.453125 -0.890625 L 1.453125 -7.734375 C 1.429688 -8.015625 1.300781 -8.222656 1.0625 -8.359375 C 0.9375 -8.429688 0.804688 -8.46875 0.671875 -8.46875 L 0.515625 -8.46875 L 0.515625 -8.59375 L 5.21875 -8.59375 C 5.46875 -8.59375 5.742188 -8.613281 6.046875 -8.65625 C 6.347656 -8.707031 6.5625 -8.757812 6.6875 -8.8125 L 6.6875 -6.65625 L 6.5625 -6.65625 L 6.5625 -6.8125 C 6.5625 -7.175781 6.453125 -7.46875 6.234375 -7.6875 C 6.015625 -7.914062 5.722656 -8.039062 5.359375 -8.0625 L 3.296875 -8.0625 L 3.296875 -4.484375 L 4.921875 -4.484375 C 5.222656 -4.492188 5.472656 -4.597656 5.671875 -4.796875 C 5.867188 -5.003906 5.96875 -5.253906 5.96875 -5.546875 L 5.96875 -5.65625 L 6.078125 -5.65625 L 6.078125 -2.828125 L 5.96875 -2.828125 L 5.96875 -2.921875 C 5.96875 -3.328125 5.800781 -3.628906 5.46875 -3.828125 C 5.300781 -3.921875 5.125 -3.96875 4.9375 -3.96875 L 3.296875 -3.96875 L 3.296875 -0.53125 L 4.90625 -0.53125 C 5.5 -0.53125 6 -0.703125 6.40625 -1.046875 C 6.8125 -1.390625 7.113281 -1.875 7.3125 -2.5 L 7.4375 -2.5 L 6.875 0 L 0.515625 0 L 0.515625 -0.125 Z M 0.671875 -0.125 "/></g></g></g><g fill="#13325b" fill-opacity="1"><g transform="translate(90.513825, 12.132631)"><g><path d="M 0.671875 -0.125 C 0.890625 -0.125 1.070312 -0.195312 1.21875 -0.34375 C 1.375 -0.5 1.453125 -0.679688 1.453125 -0.890625 L 1.453125 -7.6875 C 1.453125 -7.90625 1.375 -8.085938 1.21875 -8.234375 C 1.070312 -8.390625 0.890625 -8.46875 0.671875 -8.46875 L 0.515625 -8.46875 L 0.515625 -8.59375 L 4.25 -8.59375 L 4.234375 -8.46875 L 4.078125 -8.46875 C 3.867188 -8.46875 3.6875 -8.390625 3.53125 -8.234375 C 3.375 -8.085938 3.296875 -7.90625 3.296875 -7.6875 L 3.296875 -0.53125 L 4.90625 -0.53125 C 5.5 -0.53125 6 -0.703125 6.40625 -1.046875 C 6.8125 -1.390625 7.113281 -1.875 7.3125 -2.5 L 7.4375 -2.5 L 6.875 0 L 0.515625 0 L 0.515625 -0.125 Z M 0.671875 -0.125 "/></g></g></g><g fill="#13325b" fill-opacity="1"><g transform="translate(98.683845, 12.132631)"><g><path d="M 5.390625 -8.75 C 6.910156 -8.75 8.113281 -8.347656 9 -7.546875 C 9.894531 -6.753906 10.34375 -5.671875 10.34375 -4.296875 C 10.34375 -2.921875 9.894531 -1.832031 9 -1.03125 C 8.113281 -0.226562 6.910156 0.171875 5.390625 0.171875 C 3.878906 0.171875 2.675781 -0.226562 1.78125 -1.03125 C 0.894531 -1.832031 0.453125 -2.921875 0.453125 -4.296875 C 0.453125 -5.203125 0.65625 -5.988281 1.0625 -6.65625 C 1.46875 -7.332031 2.039062 -7.847656 2.78125 -8.203125 C 3.53125 -8.566406 4.398438 -8.75 5.390625 -8.75 Z M 3.25 -1.40625 C 3.78125 -0.695312 4.492188 -0.34375 5.390625 -0.34375 C 6.296875 -0.34375 7.007812 -0.695312 7.53125 -1.40625 C 8.0625 -2.113281 8.328125 -3.078125 8.328125 -4.296875 C 8.328125 -5.097656 8.207031 -5.796875 7.96875 -6.390625 C 7.726562 -6.984375 7.390625 -7.441406 6.953125 -7.765625 C 6.515625 -8.085938 5.992188 -8.25 5.390625 -8.25 C 4.492188 -8.25 3.78125 -7.894531 3.25 -7.1875 C 2.726562 -6.476562 2.46875 -5.515625 2.46875 -4.296875 C 2.46875 -3.078125 2.726562 -2.113281 3.25 -1.40625 Z M 3.25 -1.40625 "/></g></g></g><g fill="#13325b" fill-opacity="1"><g transform="translate(110.080166, 12.132631)"><g><path d="M 7.46875 -5.0625 C 7.1875 -4.425781 6.671875 -3.984375 5.921875 -3.734375 C 5.703125 -3.660156 5.5 -3.625 5.3125 -3.625 C 4.726562 -3.625 4.207031 -3.773438 3.75 -4.078125 L 3.75 -4.203125 C 4.363281 -4.191406 4.859375 -4.394531 5.234375 -4.8125 C 5.566406 -5.164062 5.734375 -5.632812 5.734375 -6.21875 C 5.734375 -7.113281 5.425781 -7.691406 4.8125 -7.953125 C 4.613281 -8.035156 4.394531 -8.078125 4.15625 -8.078125 L 3.34375 -8.078125 L 3.34375 -0.890625 C 3.34375 -0.679688 3.414062 -0.5 3.5625 -0.34375 C 3.71875 -0.195312 3.90625 -0.125 4.125 -0.125 L 4.28125 -0.125 L 4.28125 0 L 0.546875 0 L 0.546875 -0.125 L 0.71875 -0.125 C 0.925781 -0.125 1.101562 -0.195312 1.25 -0.34375 C 1.40625 -0.5 1.488281 -0.679688 1.5 -0.890625 L 1.5 -7.75 C 1.46875 -8.03125 1.328125 -8.234375 1.078125 -8.359375 C 0.960938 -8.429688 0.84375 -8.46875 0.71875 -8.46875 L 0.546875 -8.46875 L 0.546875 -8.59375 L 4.65625 -8.59375 C 6.132812 -8.59375 7.082031 -8.117188 7.5 -7.171875 C 7.625 -6.859375 7.6875 -6.507812 7.6875 -6.125 C 7.6875 -5.75 7.613281 -5.394531 7.46875 -5.0625 Z M 7.46875 -5.0625 "/></g></g></g><g fill="#13325b" fill-opacity="1"><g transform="translate(118.728611, 12.132631)"><g><path d="M 11.609375 -0.125 L 11.8125 -0.125 L 11.8125 0 L 8.125 0 L 8.125 -0.109375 L 8.3125 -0.109375 C 8.457031 -0.109375 8.578125 -0.160156 8.671875 -0.265625 C 8.765625 -0.378906 8.804688 -0.503906 8.796875 -0.640625 L 8.3125 -5.09375 L 6.015625 -1.109375 C 5.710938 -0.609375 5.554688 -0.15625 5.546875 0.25 L 5.421875 0.25 L 2.265625 -5.046875 L 1.796875 -0.640625 C 1.773438 -0.503906 1.8125 -0.378906 1.90625 -0.265625 C 2.007812 -0.160156 2.128906 -0.109375 2.265625 -0.109375 L 2.453125 -0.109375 L 2.453125 0 L -0.109375 0 L -0.109375 -0.125 L 0.078125 -0.125 C 0.304688 -0.125 0.503906 -0.191406 0.671875 -0.328125 C 0.847656 -0.472656 0.953125 -0.660156 0.984375 -0.890625 L 2 -8.75 L 2.109375 -8.75 L 5.90625 -2.5 L 9.5625 -8.75 L 9.671875 -8.75 L 10.71875 -0.890625 C 10.757812 -0.660156 10.863281 -0.472656 11.03125 -0.328125 C 11.195312 -0.191406 11.390625 -0.125 11.609375 -0.125 Z M 11.609375 -0.125 "/></g></g></g><g fill="#13325b" fill-opacity="1"><g transform="translate(131.032706, 12.132631)"><g><path d="M 0.671875 -0.125 C 0.890625 -0.125 1.070312 -0.195312 1.21875 -0.34375 C 1.375 -0.5 1.453125 -0.679688 1.453125 -0.890625 L 1.453125 -7.734375 C 1.429688 -8.015625 1.300781 -8.222656 1.0625 -8.359375 C 0.9375 -8.429688 0.804688 -8.46875 0.671875 -8.46875 L 0.515625 -8.46875 L 0.515625 -8.59375 L 5.21875 -8.59375 C 5.46875 -8.59375 5.742188 -8.613281 6.046875 -8.65625 C 6.347656 -8.707031 6.5625 -8.757812 6.6875 -8.8125 L 6.6875 -6.65625 L 6.5625 -6.65625 L 6.5625 -6.8125 C 6.5625 -7.175781 6.453125 -7.46875 6.234375 -7.6875 C 6.015625 -7.914062 5.722656 -8.039062 5.359375 -8.0625 L 3.296875 -8.0625 L 3.296875 -4.484375 L 4.921875 -4.484375 C 5.222656 -4.492188 5.472656 -4.597656 5.671875 -4.796875 C 5.867188 -5.003906 5.96875 -5.253906 5.96875 -5.546875 L 5.96875 -5.65625 L 6.078125 -5.65625 L 6.078125 -2.828125 L 5.96875 -2.828125 L 5.96875 -2.921875 C 5.96875 -3.328125 5.800781 -3.628906 5.46875 -3.828125 C 5.300781 -3.921875 5.125 -3.96875 4.9375 -3.96875 L 3.296875 -3.96875 L 3.296875 -0.53125 L 4.90625 -0.53125 C 5.5 -0.53125 6 -0.703125 6.40625 -1.046875 C 6.8125 -1.390625 7.113281 -1.875 7.3125 -2.5 L 7.4375 -2.5 L 6.875 0 L 0.515625 0 L 0.515625 -0.125 Z M 0.671875 -0.125 "/></g></g></g><g fill="#13325b" fill-opacity="1"><g transform="translate(139.386727, 12.132631)"><g><path d="M 10.015625 -8.46875 C 9.816406 -8.46875 9.640625 -8.394531 9.484375 -8.25 C 9.335938 -8.101562 9.265625 -7.929688 9.265625 -7.734375 L 9.265625 -1.390625 C 9.265625 -0.847656 9.300781 -0.390625 9.375 -0.015625 L 9.40625 0.171875 L 9.296875 0.171875 L 3.109375 -5.734375 L 3.109375 -0.859375 C 3.109375 -0.648438 3.179688 -0.472656 3.328125 -0.328125 C 3.472656 -0.191406 3.644531 -0.125 3.84375 -0.125 L 4.078125 -0.125 L 4.078125 0 L 0.375 0 L 0.375 -0.125 L 0.59375 -0.125 C 0.800781 -0.125 0.976562 -0.191406 1.125 -0.328125 C 1.269531 -0.472656 1.34375 -0.65625 1.34375 -0.875 L 1.34375 -7.234375 C 1.34375 -7.773438 1.304688 -8.226562 1.234375 -8.59375 L 1.21875 -8.765625 L 1.328125 -8.765625 L 7.515625 -2.875 L 7.515625 -7.71875 C 7.503906 -7.925781 7.425781 -8.101562 7.28125 -8.25 C 7.132812 -8.394531 6.960938 -8.46875 6.765625 -8.46875 L 6.53125 -8.46875 L 6.53125 -8.59375 L 10.25 -8.59375 L 10.25 -8.46875 Z M 10.015625 -8.46875 "/></g></g></g><g fill="#13325b" fill-opacity="1"><g transform="translate(150.611292, 12.132631)"><g><path d="M 5.015625 -8.078125 L 5.015625 -0.890625 C 5.023438 -0.671875 5.101562 -0.488281 5.25 -0.34375 C 5.40625 -0.195312 5.585938 -0.125 5.796875 -0.125 L 5.953125 -0.125 L 5.96875 0 L 2.234375 0 L 2.234375 -0.125 L 2.390625 -0.125 C 2.597656 -0.125 2.773438 -0.195312 2.921875 -0.34375 C 3.078125 -0.488281 3.160156 -0.664062 3.171875 -0.875 L 3.171875 -8.078125 L 1.515625 -8.078125 C 1.140625 -8.078125 0.84375 -7.960938 0.625 -7.734375 C 0.40625 -7.503906 0.296875 -7.203125 0.296875 -6.828125 L 0.296875 -6.6875 L 0.171875 -6.6875 L 0.171875 -8.8125 C 0.285156 -8.769531 0.488281 -8.722656 0.78125 -8.671875 C 1.082031 -8.617188 1.363281 -8.59375 1.625 -8.59375 L 6.5625 -8.59375 C 6.957031 -8.601562 7.28125 -8.632812 7.53125 -8.6875 C 7.789062 -8.75 7.953125 -8.789062 8.015625 -8.8125 L 8.015625 -6.6875 L 7.890625 -6.6875 L 7.890625 -6.828125 C 7.890625 -7.203125 7.773438 -7.503906 7.546875 -7.734375 C 7.328125 -7.960938 7.03125 -8.078125 6.65625 -8.078125 Z M 5.015625 -8.078125 "/></g></g></g><g fill="#13325b" fill-opacity="1"><g transform="translate(159.394664, 12.132631)"><g/></g></g><g fill="#13325b" fill-opacity="1"><g transform="translate(163.074837, 12.132631)"><g><path d="M 14.578125 1.296875 C 13.847656 1.710938 13.039062 1.921875 12.15625 1.921875 C 10.832031 1.921875 9.585938 1.472656 8.421875 0.578125 C 8.191406 0.390625 7.773438 0.0546875 7.171875 -0.421875 C 6.441406 -0.046875 5.632812 0.140625 4.75 0.140625 C 4.101562 0.140625 3.515625 0.0546875 2.984375 -0.109375 C 2.453125 -0.285156 2.015625 -0.472656 1.671875 -0.671875 C 1.335938 -0.878906 1.054688 -1.148438 0.828125 -1.484375 C 0.597656 -1.828125 0.484375 -2.21875 0.484375 -2.65625 C 0.484375 -3.320312 0.75 -3.875 1.28125 -4.3125 C 1.570312 -4.550781 1.898438 -4.738281 2.265625 -4.875 C 1.890625 -5.445312 1.703125 -5.988281 1.703125 -6.5 C 1.703125 -7.019531 1.84375 -7.445312 2.125 -7.78125 C 2.644531 -8.425781 3.476562 -8.75 4.625 -8.75 C 5.351562 -8.75 5.972656 -8.617188 6.484375 -8.359375 C 6.742188 -8.234375 6.941406 -8.078125 7.078125 -7.890625 L 6.65625 -6.140625 L 6.546875 -6.140625 C 6.523438 -6.960938 6.296875 -7.5625 5.859375 -7.9375 C 5.617188 -8.144531 5.304688 -8.25 4.921875 -8.25 C 4.546875 -8.25 4.226562 -8.113281 3.96875 -7.84375 C 3.71875 -7.570312 3.59375 -7.21875 3.59375 -6.78125 C 3.59375 -6.351562 3.757812 -5.925781 4.09375 -5.5 C 4.425781 -5.082031 4.929688 -4.582031 5.609375 -4 C 6.296875 -3.414062 7.148438 -2.703125 8.171875 -1.859375 C 9.148438 -2.867188 9.640625 -4.03125 9.640625 -5.34375 C 9.640625 -6.320312 9.328125 -7.222656 8.703125 -8.046875 C 8.285156 -8.609375 7.734375 -9.117188 7.046875 -9.578125 L 7.109375 -9.65625 C 7.835938 -9.238281 8.4375 -8.75 8.90625 -8.1875 C 9.375 -7.625 9.679688 -7.078125 9.828125 -6.546875 C 9.984375 -6.023438 10.0625 -5.519531 10.0625 -5.03125 C 10.0625 -3.6875 9.578125 -2.507812 8.609375 -1.5 L 8.984375 -1.171875 C 9.367188 -0.847656 9.691406 -0.582031 9.953125 -0.375 C 10.222656 -0.175781 10.554688 0.046875 10.953125 0.296875 C 11.347656 0.546875 11.71875 0.734375 12.0625 0.859375 C 12.675781 1.097656 13.3125 1.21875 13.96875 1.21875 C 14.164062 1.21875 14.363281 1.203125 14.5625 1.171875 Z M 2.421875 -3.0625 C 2.421875 -2.207031 2.726562 -1.539062 3.34375 -1.0625 C 3.851562 -0.664062 4.445312 -0.46875 5.125 -0.46875 C 5.65625 -0.46875 6.175781 -0.582031 6.6875 -0.8125 C 5.382812 -1.851562 4.59375 -2.5 4.3125 -2.75 C 3.632812 -3.300781 3.109375 -3.800781 2.734375 -4.25 C 2.523438 -3.90625 2.421875 -3.507812 2.421875 -3.0625 Z M 2.421875 -3.0625 "/></g></g></g><g fill="#13325b" fill-opacity="1"><g transform="translate(51.993496, 28.488925)"><g><path d="M -0.296875 -5.734375 C -0.703125 -6.109375 -0.90625 -6.519531 -0.90625 -6.96875 C -0.90625 -7.3125 -0.796875 -7.609375 -0.578125 -7.859375 C -0.160156 -8.347656 0.425781 -8.59375 1.1875 -8.59375 L 6.953125 -8.59375 C 7.316406 -8.601562 7.632812 -8.632812 7.90625 -8.6875 C 8.175781 -8.738281 8.347656 -8.78125 8.421875 -8.8125 L 8.421875 -6.6875 L 8.296875 -6.6875 L 8.296875 -6.828125 C 8.296875 -7.203125 8.179688 -7.503906 7.953125 -7.734375 C 7.734375 -7.960938 7.4375 -8.078125 7.0625 -8.078125 L 5.40625 -8.078125 L 5.40625 -0.890625 C 5.425781 -0.585938 5.5625 -0.363281 5.8125 -0.21875 C 5.925781 -0.15625 6.054688 -0.125 6.203125 -0.125 L 6.359375 -0.125 L 6.359375 0 L 2.625 0 L 2.625 -0.125 L 2.78125 -0.125 C 3 -0.125 3.179688 -0.195312 3.328125 -0.34375 C 3.484375 -0.488281 3.566406 -0.664062 3.578125 -0.875 L 3.578125 -8.078125 L 1.1875 -8.078125 C 0.84375 -8.078125 0.546875 -8.019531 0.296875 -7.90625 C -0.210938 -7.65625 -0.46875 -7.269531 -0.46875 -6.75 C -0.46875 -6.4375 -0.375 -6.117188 -0.1875 -5.796875 Z M -0.296875 -5.734375 "/></g></g></g><g fill="#13325b" fill-opacity="1"><g transform="translate(61.169422, 28.488925)"><g><path d="M 3.90625 -8.046875 L 3.375 -8.046875 C 3.351562 -8.046875 3.34375 -8.046875 3.34375 -8.046875 L 3.34375 -0.890625 C 3.34375 -0.585938 3.472656 -0.363281 3.734375 -0.21875 C 3.847656 -0.15625 3.976562 -0.125 4.125 -0.125 L 4.28125 -0.125 L 4.28125 0 L 0.546875 0 L 0.546875 -0.125 L 0.71875 -0.125 C 1.007812 -0.125 1.234375 -0.25 1.390625 -0.5 C 1.453125 -0.613281 1.488281 -0.742188 1.5 -0.890625 L 1.5 -7.6875 C 1.488281 -7.90625 1.40625 -8.085938 1.25 -8.234375 C 1.101562 -8.390625 0.925781 -8.46875 0.71875 -8.46875 L 0.546875 -8.46875 L 0.546875 -8.59375 L 4.765625 -8.59375 C 5.554688 -8.59375 6.222656 -8.421875 6.765625 -8.078125 C 7.046875 -7.898438 7.265625 -7.65625 7.421875 -7.34375 C 7.585938 -7.039062 7.671875 -6.695312 7.671875 -6.3125 C 7.671875 -5.925781 7.601562 -5.566406 7.46875 -5.234375 C 7.34375 -4.910156 7.117188 -4.625 6.796875 -4.375 C 6.484375 -4.132812 6.109375 -3.988281 5.671875 -3.9375 C 6.140625 -3.78125 6.554688 -3.421875 6.921875 -2.859375 C 7.804688 -1.441406 8.457031 -0.597656 8.875 -0.328125 C 9.09375 -0.203125 9.359375 -0.132812 9.671875 -0.125 L 9.671875 0 L 8.46875 0 C 7.78125 0 7.203125 -0.09375 6.734375 -0.28125 C 6.265625 -0.476562 5.882812 -0.8125 5.59375 -1.28125 C 5.445312 -1.507812 5.257812 -1.863281 5.03125 -2.34375 C 4.800781 -2.820312 4.648438 -3.164062 4.578125 -3.375 C 4.359375 -3.863281 4.078125 -4.132812 3.734375 -4.1875 L 3.734375 -4.3125 L 4.125 -4.3125 C 4.488281 -4.3125 4.8125 -4.421875 5.09375 -4.640625 C 5.375 -4.867188 5.566406 -5.234375 5.671875 -5.734375 C 5.703125 -5.898438 5.71875 -6.035156 5.71875 -6.140625 C 5.71875 -6.804688 5.582031 -7.285156 5.3125 -7.578125 C 5.039062 -7.878906 4.691406 -8.035156 4.265625 -8.046875 C 4.179688 -8.046875 4.0625 -8.046875 3.90625 -8.046875 Z M 3.90625 -8.046875 "/></g></g></g><g fill="#13325b" fill-opacity="1"><g transform="translate(70.934179, 28.488925)"><g><path d="M 9.0625 -0.125 L 9.171875 -0.125 L 9.171875 0 L 5.25 0 L 5.25 -0.125 L 5.359375 -0.125 C 5.546875 -0.125 5.679688 -0.175781 5.765625 -0.28125 C 5.847656 -0.394531 5.890625 -0.5 5.890625 -0.59375 C 5.890625 -0.695312 5.867188 -0.796875 5.828125 -0.890625 L 5.234375 -2.40625 L 2.359375 -2.40625 L 1.71875 -0.890625 C 1.675781 -0.785156 1.65625 -0.6875 1.65625 -0.59375 C 1.65625 -0.5 1.695312 -0.394531 1.78125 -0.28125 C 1.875 -0.175781 2.015625 -0.125 2.203125 -0.125 L 2.296875 -0.125 L 2.296875 0 L -0.328125 0 L -0.328125 -0.125 L -0.21875 -0.125 C -0.03125 -0.125 0.15625 -0.179688 0.34375 -0.296875 C 0.53125 -0.410156 0.6875 -0.582031 0.8125 -0.8125 L 3.640625 -7.21875 C 4.023438 -8.03125 4.234375 -8.566406 4.265625 -8.828125 L 4.375 -8.828125 L 8.015625 -0.828125 C 8.140625 -0.597656 8.296875 -0.421875 8.484375 -0.296875 C 8.671875 -0.179688 8.863281 -0.125 9.0625 -0.125 Z M 2.5625 -2.921875 L 5.015625 -2.921875 L 3.828125 -5.9375 Z M 2.5625 -2.921875 "/></g></g></g><g fill="#13325b" fill-opacity="1"><g transform="translate(80.330918, 28.488925)"><g><path d="M 0.671875 -0.125 C 0.890625 -0.125 1.070312 -0.195312 1.21875 -0.34375 C 1.375 -0.5 1.453125 -0.679688 1.453125 -0.890625 L 1.453125 -7.703125 C 1.453125 -7.910156 1.375 -8.085938 1.21875 -8.234375 C 1.070312 -8.390625 0.890625 -8.46875 0.671875 -8.46875 L 0.515625 -8.46875 L 0.515625 -8.59375 L 4.25 -8.59375 L 4.234375 -8.46875 L 4.078125 -8.46875 C 3.867188 -8.46875 3.6875 -8.390625 3.53125 -8.234375 C 3.375 -8.085938 3.296875 -7.910156 3.296875 -7.703125 L 3.296875 -0.890625 C 3.296875 -0.679688 3.375 -0.5 3.53125 -0.34375 C 3.6875 -0.195312 3.867188 -0.125 4.078125 -0.125 L 4.234375 -0.125 L 4.25 0 L 0.515625 0 L 0.515625 -0.125 Z M 0.671875 -0.125 "/></g></g></g><g fill="#13325b" fill-opacity="1"><g transform="translate(85.679452, 28.488925)"><g><path d="M 10.015625 -8.46875 C 9.816406 -8.46875 9.640625 -8.394531 9.484375 -8.25 C 9.335938 -8.101562 9.265625 -7.929688 9.265625 -7.734375 L 9.265625 -1.390625 C 9.265625 -0.847656 9.300781 -0.390625 9.375 -0.015625 L 9.40625 0.171875 L 9.296875 0.171875 L 3.109375 -5.734375 L 3.109375 -0.859375 C 3.109375 -0.648438 3.179688 -0.472656 3.328125 -0.328125 C 3.472656 -0.191406 3.644531 -0.125 3.84375 -0.125 L 4.078125 -0.125 L 4.078125 0 L 0.375 0 L 0.375 -0.125 L 0.59375 -0.125 C 0.800781 -0.125 0.976562 -0.191406 1.125 -0.328125 C 1.269531 -0.472656 1.34375 -0.65625 1.34375 -0.875 L 1.34375 -7.234375 C 1.34375 -7.773438 1.304688 -8.226562 1.234375 -8.59375 L 1.21875 -8.765625 L 1.328125 -8.765625 L 7.515625 -2.875 L 7.515625 -7.71875 C 7.503906 -7.925781 7.425781 -8.101562 7.28125 -8.25 C 7.132812 -8.394531 6.960938 -8.46875 6.765625 -8.46875 L 6.53125 -8.46875 L 6.53125 -8.59375 L 10.25 -8.59375 L 10.25 -8.46875 Z M 10.015625 -8.46875 "/></g></g></g><g fill="#13325b" fill-opacity="1"><g transform="translate(96.904017, 28.488925)"><g><path d="M 0.671875 -0.125 C 0.890625 -0.125 1.070312 -0.195312 1.21875 -0.34375 C 1.375 -0.5 1.453125 -0.679688 1.453125 -0.890625 L 1.453125 -7.703125 C 1.453125 -7.910156 1.375 -8.085938 1.21875 -8.234375 C 1.070312 -8.390625 0.890625 -8.46875 0.671875 -8.46875 L 0.515625 -8.46875 L 0.515625 -8.59375 L 4.25 -8.59375 L 4.234375 -8.46875 L 4.078125 -8.46875 C 3.867188 -8.46875 3.6875 -8.390625 3.53125 -8.234375 C 3.375 -8.085938 3.296875 -7.910156 3.296875 -7.703125 L 3.296875 -0.890625 C 3.296875 -0.679688 3.375 -0.5 3.53125 -0.34375 C 3.6875 -0.195312 3.867188 -0.125 4.078125 -0.125 L 4.234375 -0.125 L 4.25 0 L 0.515625 0 L 0.515625 -0.125 Z M 0.671875 -0.125 "/></g></g></g><g fill="#13325b" fill-opacity="1"><g transform="translate(102.25255, 28.488925)"><g><path d="M 10.015625 -8.46875 C 9.816406 -8.46875 9.640625 -8.394531 9.484375 -8.25 C 9.335938 -8.101562 9.265625 -7.929688 9.265625 -7.734375 L 9.265625 -1.390625 C 9.265625 -0.847656 9.300781 -0.390625 9.375 -0.015625 L 9.40625 0.171875 L 9.296875 0.171875 L 3.109375 -5.734375 L 3.109375 -0.859375 C 3.109375 -0.648438 3.179688 -0.472656 3.328125 -0.328125 C 3.472656 -0.191406 3.644531 -0.125 3.84375 -0.125 L 4.078125 -0.125 L 4.078125 0 L 0.375 0 L 0.375 -0.125 L 0.59375 -0.125 C 0.800781 -0.125 0.976562 -0.191406 1.125 -0.328125 C 1.269531 -0.472656 1.34375 -0.65625 1.34375 -0.875 L 1.34375 -7.234375 C 1.34375 -7.773438 1.304688 -8.226562 1.234375 -8.59375 L 1.21875 -8.765625 L 1.328125 -8.765625 L 7.515625 -2.875 L 7.515625 -7.71875 C 7.503906 -7.925781 7.425781 -8.101562 7.28125 -8.25 C 7.132812 -8.394531 6.960938 -8.46875 6.765625 -8.46875 L 6.53125 -8.46875 L 6.53125 -8.59375 L 10.25 -8.59375 L 10.25 -8.46875 Z M 10.015625 -8.46875 "/></g></g></g><g fill="#13325b" fill-opacity="1"><g transform="translate(113.477115, 28.488925)"><g><path d="M 10.046875 -3.984375 L 9.859375 -3.984375 C 9.660156 -3.984375 9.507812 -3.9375 9.40625 -3.84375 C 9.300781 -3.75 9.25 -3.613281 9.25 -3.4375 L 9.25 -1.40625 C 8.925781 -0.988281 8.394531 -0.617188 7.65625 -0.296875 C 6.925781 0.015625 6.101562 0.171875 5.1875 0.171875 C 3.789062 0.171875 2.664062 -0.226562 1.8125 -1.03125 C 0.96875 -1.84375 0.546875 -2.929688 0.546875 -4.296875 C 0.546875 -5.671875 0.96875 -6.753906 1.8125 -7.546875 C 2.664062 -8.347656 3.816406 -8.75 5.265625 -8.75 C 5.921875 -8.75 6.550781 -8.6875 7.15625 -8.5625 C 7.769531 -8.4375 8.265625 -8.28125 8.640625 -8.09375 L 8.671875 -5.984375 L 8.5625 -5.984375 C 8.351562 -6.773438 7.988281 -7.347656 7.46875 -7.703125 C 6.957031 -8.066406 6.34375 -8.25 5.625 -8.25 C 4.632812 -8.25 3.875 -7.894531 3.34375 -7.1875 C 2.8125 -6.476562 2.546875 -5.503906 2.546875 -4.265625 C 2.546875 -3.035156 2.789062 -2.070312 3.28125 -1.375 C 3.769531 -0.6875 4.457031 -0.34375 5.34375 -0.34375 C 5.988281 -0.34375 6.53125 -0.523438 6.96875 -0.890625 C 7.175781 -1.078125 7.332031 -1.300781 7.4375 -1.5625 L 7.4375 -3.4375 C 7.4375 -3.613281 7.378906 -3.75 7.265625 -3.84375 C 7.160156 -3.9375 7.003906 -3.984375 6.796875 -3.984375 L 6.59375 -3.984375 L 6.59375 -4.109375 L 10.046875 -4.109375 Z M 10.046875 -3.984375 "/></g></g></g></g></g><g transform="matrix(1, 0, 0, 1, 168, 266)"><g clip-path="url(#bbc59f787e)"><g fill="#13325b" fill-opacity="1"><g transform="translate(1.283776, 13.540896)"><g><path d="M 5.859375 -6.703125 C 5.859375 -6.515625 5.835938 -6.332031 5.796875 -6.15625 C 5.753906 -5.976562 5.679688 -5.796875 5.578125 -5.609375 C 5.484375 -5.421875 5.359375 -5.222656 5.203125 -5.015625 C 5.046875 -4.804688 4.851562 -4.570312 4.625 -4.3125 C 4.394531 -4.0625 4.125 -3.785156 3.8125 -3.484375 C 3.507812 -3.179688 3.160156 -2.84375 2.765625 -2.46875 L 1.5625 -1.3125 L 4.359375 -1.3125 C 4.597656 -1.3125 4.804688 -1.382812 4.984375 -1.53125 C 5.160156 -1.675781 5.28125 -1.882812 5.34375 -2.15625 L 5.453125 -2.515625 L 6.15625 -2.515625 L 6.09375 0 L 0.421875 0 L 0.421875 -1.234375 L 2.203125 -3.046875 C 2.566406 -3.421875 2.867188 -3.757812 3.109375 -4.0625 C 3.347656 -4.375 3.535156 -4.664062 3.671875 -4.9375 C 3.804688 -5.21875 3.898438 -5.492188 3.953125 -5.765625 C 4.015625 -6.035156 4.046875 -6.328125 4.046875 -6.640625 C 4.046875 -7.097656 3.960938 -7.429688 3.796875 -7.640625 C 3.628906 -7.847656 3.398438 -7.953125 3.109375 -7.953125 C 2.703125 -7.953125 2.414062 -7.773438 2.25 -7.421875 C 2.082031 -7.078125 2 -6.566406 2 -5.890625 C 1.78125 -5.890625 1.570312 -5.910156 1.375 -5.953125 C 1.1875 -5.992188 1.023438 -6.0625 0.890625 -6.15625 C 0.753906 -6.25 0.648438 -6.367188 0.578125 -6.515625 C 0.503906 -6.671875 0.46875 -6.851562 0.46875 -7.0625 C 0.46875 -7.28125 0.519531 -7.488281 0.625 -7.6875 C 0.738281 -7.882812 0.90625 -8.054688 1.125 -8.203125 C 1.34375 -8.347656 1.617188 -8.460938 1.953125 -8.546875 C 2.285156 -8.640625 2.671875 -8.6875 3.109375 -8.6875 C 3.554688 -8.6875 3.953125 -8.640625 4.296875 -8.546875 C 4.640625 -8.460938 4.925781 -8.332031 5.15625 -8.15625 C 5.382812 -7.988281 5.554688 -7.78125 5.671875 -7.53125 C 5.796875 -7.28125 5.859375 -7.003906 5.859375 -6.703125 Z M 5.859375 -6.703125 "/></g></g></g><g fill="#13325b" fill-opacity="1"><g transform="translate(9.43293, 13.540896)"><g><path d="M 6.296875 -4.296875 C 6.296875 -3.640625 6.238281 -3.035156 6.125 -2.484375 C 6.019531 -1.941406 5.847656 -1.476562 5.609375 -1.09375 C 5.367188 -0.707031 5.0625 -0.40625 4.6875 -0.1875 C 4.320312 0.0195312 3.878906 0.125 3.359375 0.125 C 2.804688 0.125 2.34375 0.0195312 1.96875 -0.1875 C 1.59375 -0.40625 1.289062 -0.707031 1.0625 -1.09375 C 0.832031 -1.476562 0.664062 -1.941406 0.5625 -2.484375 C 0.457031 -3.035156 0.40625 -3.644531 0.40625 -4.3125 C 0.40625 -4.96875 0.457031 -5.566406 0.5625 -6.109375 C 0.664062 -6.648438 0.832031 -7.109375 1.0625 -7.484375 C 1.289062 -7.867188 1.59375 -8.164062 1.96875 -8.375 C 2.351562 -8.582031 2.820312 -8.6875 3.375 -8.6875 C 3.894531 -8.6875 4.335938 -8.582031 4.703125 -8.375 C 5.078125 -8.164062 5.378906 -7.867188 5.609375 -7.484375 C 5.847656 -7.109375 6.019531 -6.648438 6.125 -6.109375 C 6.238281 -5.566406 6.296875 -4.960938 6.296875 -4.296875 Z M 2.265625 -4.296875 C 2.265625 -3.722656 2.28125 -3.210938 2.3125 -2.765625 C 2.34375 -2.316406 2.398438 -1.9375 2.484375 -1.625 C 2.566406 -1.3125 2.675781 -1.070312 2.8125 -0.90625 C 2.957031 -0.738281 3.140625 -0.65625 3.359375 -0.65625 C 3.578125 -0.65625 3.753906 -0.738281 3.890625 -0.90625 C 4.035156 -1.070312 4.148438 -1.3125 4.234375 -1.625 C 4.316406 -1.9375 4.367188 -2.316406 4.390625 -2.765625 C 4.421875 -3.210938 4.4375 -3.722656 4.4375 -4.296875 C 4.4375 -4.867188 4.421875 -5.378906 4.390625 -5.828125 C 4.367188 -6.273438 4.316406 -6.648438 4.234375 -6.953125 C 4.160156 -7.265625 4.050781 -7.5 3.90625 -7.65625 C 3.769531 -7.820312 3.59375 -7.90625 3.375 -7.90625 C 3.144531 -7.90625 2.957031 -7.820312 2.8125 -7.65625 C 2.675781 -7.5 2.566406 -7.265625 2.484375 -6.953125 C 2.398438 -6.648438 2.34375 -6.273438 2.3125 -5.828125 C 2.28125 -5.378906 2.265625 -4.867188 2.265625 -4.296875 Z M 2.265625 -4.296875 "/></g></g></g><g fill="#13325b" fill-opacity="1"><g transform="translate(17.582084, 13.540896)"><g><path d="M 5.859375 -6.703125 C 5.859375 -6.515625 5.835938 -6.332031 5.796875 -6.15625 C 5.753906 -5.976562 5.679688 -5.796875 5.578125 -5.609375 C 5.484375 -5.421875 5.359375 -5.222656 5.203125 -5.015625 C 5.046875 -4.804688 4.851562 -4.570312 4.625 -4.3125 C 4.394531 -4.0625 4.125 -3.785156 3.8125 -3.484375 C 3.507812 -3.179688 3.160156 -2.84375 2.765625 -2.46875 L 1.5625 -1.3125 L 4.359375 -1.3125 C 4.597656 -1.3125 4.804688 -1.382812 4.984375 -1.53125 C 5.160156 -1.675781 5.28125 -1.882812 5.34375 -2.15625 L 5.453125 -2.515625 L 6.15625 -2.515625 L 6.09375 0 L 0.421875 0 L 0.421875 -1.234375 L 2.203125 -3.046875 C 2.566406 -3.421875 2.867188 -3.757812 3.109375 -4.0625 C 3.347656 -4.375 3.535156 -4.664062 3.671875 -4.9375 C 3.804688 -5.21875 3.898438 -5.492188 3.953125 -5.765625 C 4.015625 -6.035156 4.046875 -6.328125 4.046875 -6.640625 C 4.046875 -7.097656 3.960938 -7.429688 3.796875 -7.640625 C 3.628906 -7.847656 3.398438 -7.953125 3.109375 -7.953125 C 2.703125 -7.953125 2.414062 -7.773438 2.25 -7.421875 C 2.082031 -7.078125 2 -6.566406 2 -5.890625 C 1.78125 -5.890625 1.570312 -5.910156 1.375 -5.953125 C 1.1875 -5.992188 1.023438 -6.0625 0.890625 -6.15625 C 0.753906 -6.25 0.648438 -6.367188 0.578125 -6.515625 C 0.503906 -6.671875 0.46875 -6.851562 0.46875 -7.0625 C 0.46875 -7.28125 0.519531 -7.488281 0.625 -7.6875 C 0.738281 -7.882812 0.90625 -8.054688 1.125 -8.203125 C 1.34375 -8.347656 1.617188 -8.460938 1.953125 -8.546875 C 2.285156 -8.640625 2.671875 -8.6875 3.109375 -8.6875 C 3.554688 -8.6875 3.953125 -8.640625 4.296875 -8.546875 C 4.640625 -8.460938 4.925781 -8.332031 5.15625 -8.15625 C 5.382812 -7.988281 5.554688 -7.78125 5.671875 -7.53125 C 5.796875 -7.28125 5.859375 -7.003906 5.859375 -6.703125 Z M 5.859375 -6.703125 "/></g></g></g><g fill="#13325b" fill-opacity="1"><g transform="translate(25.731239, 13.540896)"><g><path d="M 6.296875 -4.296875 C 6.296875 -3.640625 6.238281 -3.035156 6.125 -2.484375 C 6.019531 -1.941406 5.847656 -1.476562 5.609375 -1.09375 C 5.367188 -0.707031 5.0625 -0.40625 4.6875 -0.1875 C 4.320312 0.0195312 3.878906 0.125 3.359375 0.125 C 2.804688 0.125 2.34375 0.0195312 1.96875 -0.1875 C 1.59375 -0.40625 1.289062 -0.707031 1.0625 -1.09375 C 0.832031 -1.476562 0.664062 -1.941406 0.5625 -2.484375 C 0.457031 -3.035156 0.40625 -3.644531 0.40625 -4.3125 C 0.40625 -4.96875 0.457031 -5.566406 0.5625 -6.109375 C 0.664062 -6.648438 0.832031 -7.109375 1.0625 -7.484375 C 1.289062 -7.867188 1.59375 -8.164062 1.96875 -8.375 C 2.351562 -8.582031 2.820312 -8.6875 3.375 -8.6875 C 3.894531 -8.6875 4.335938 -8.582031 4.703125 -8.375 C 5.078125 -8.164062 5.378906 -7.867188 5.609375 -7.484375 C 5.847656 -7.109375 6.019531 -6.648438 6.125 -6.109375 C 6.238281 -5.566406 6.296875 -4.960938 6.296875 -4.296875 Z M 2.265625 -4.296875 C 2.265625 -3.722656 2.28125 -3.210938 2.3125 -2.765625 C 2.34375 -2.316406 2.398438 -1.9375 2.484375 -1.625 C 2.566406 -1.3125 2.675781 -1.070312 2.8125 -0.90625 C 2.957031 -0.738281 3.140625 -0.65625 3.359375 -0.65625 C 3.578125 -0.65625 3.753906 -0.738281 3.890625 -0.90625 C 4.035156 -1.070312 4.148438 -1.3125 4.234375 -1.625 C 4.316406 -1.9375 4.367188 -2.316406 4.390625 -2.765625 C 4.421875 -3.210938 4.4375 -3.722656 4.4375 -4.296875 C 4.4375 -4.867188 4.421875 -5.378906 4.390625 -5.828125 C 4.367188 -6.273438 4.316406 -6.648438 4.234375 -6.953125 C 4.160156 -7.265625 4.050781 -7.5 3.90625 -7.65625 C 3.769531 -7.820312 3.59375 -7.90625 3.375 -7.90625 C 3.144531 -7.90625 2.957031 -7.820312 2.8125 -7.65625 C 2.675781 -7.5 2.566406 -7.265625 2.484375 -6.953125 C 2.398438 -6.648438 2.34375 -6.273438 2.3125 -5.828125 C 2.28125 -5.378906 2.265625 -4.867188 2.265625 -4.296875 Z M 2.265625 -4.296875 "/></g></g></g></g></g></svg>